# This file uses centimeters as units for non-parametric coordinates.

mtllib Bobomb.mtl
g default
v 0.000026 0.490414 0.000000
v 0.122923 0.457483 0.000000
v 0.086928 0.457483 0.086902
v 0.223534 0.367516 0.000000
v 0.158070 0.367516 0.158044
v 0.258111 0.244618 0.000000
v 0.182520 0.244618 0.182494
v 0.223534 0.121720 0.000000
v 0.158070 0.121720 0.158044
v 0.122923 0.031753 0.000000
v 0.086928 0.031753 0.086902
v 0.000026 -0.001178 0.000000
v 0.000026 0.031753 0.122898
v -0.086876 0.031753 0.086902
v -0.158019 0.121720 0.158044
v -0.223483 0.121720 0.000000
v -0.258060 0.244618 0.000000
v -0.182468 0.244618 -0.182494
v -0.158019 0.367516 -0.158044
v 0.000026 0.367516 -0.223508
v 0.000026 0.457483 -0.122898
v -0.103591 0.446839 0.000000
v -0.103591 0.517611 0.000000
v -0.051783 0.446839 0.089735
v -0.051783 0.517611 0.089735
v 0.051834 0.446839 0.089735
v 0.051834 0.517611 0.089735
v 0.103642 0.446839 0.000000
v 0.103642 0.517611 0.000000
v 0.051834 0.446839 -0.089735
v 0.051834 0.517611 -0.089735
v -0.051783 0.446839 -0.089735
v -0.051783 0.517611 -0.089735
v -0.117387 0.252316 0.205027
v -0.112972 0.269933 0.219111
v -0.089269 0.234550 0.225458
v -0.092056 0.269857 0.230439
v -0.068755 0.271177 0.235032
v -0.093309 0.309344 0.230833
v -0.066101 0.345425 0.222348
v -0.089558 0.344100 0.217699
v -0.084636 0.372085 0.201841
v -0.110630 0.344172 0.206315
v -0.113536 0.353113 0.188009
v -0.124033 0.303460 0.194193
v 0.000026 0.457483 0.122898
v 0.000026 0.367516 0.223508
v 0.000026 0.244618 0.258085
v 0.000026 0.121720 0.223508
v 0.086928 0.031753 -0.086902
v 0.158070 0.121720 -0.158044
v 0.182520 0.244618 -0.182494
v 0.158070 0.367516 -0.158044
v 0.086928 0.457483 -0.086902
v -0.182468 0.244618 0.182494
v -0.158019 0.367516 0.158044
v -0.086876 0.457483 0.086902
v 0.000026 0.031753 -0.122898
v 0.000026 0.121720 -0.223508
v 0.000026 0.244618 -0.258085
v 0.111446 0.654150 -0.047544
v 0.081148 0.655775 -0.087683
v 0.043336 0.553083 0.000219
v 0.011290 0.560948 -0.042091
v -0.070402 0.044956 0.039810
v -0.025174 0.573580 -0.001227
v 0.008567 0.570753 0.038508
v 0.080173 0.681140 -0.018398
v 0.117439 0.252316 0.205027
v 0.089321 0.234550 0.225458
v 0.113023 0.269933 0.219111
v 0.092108 0.269857 0.230439
v 0.093361 0.309344 0.230833
v 0.068806 0.271177 0.235032
v 0.066152 0.345425 0.222348
v 0.046093 0.305655 0.222274
v 0.052701 0.354826 0.209932
v -0.158019 0.121720 -0.158044
v -0.086876 0.031753 -0.086902
v -0.223483 0.367516 0.000000
v -0.122872 0.457483 0.000000
v 0.110681 0.344172 0.206315
v 0.089610 0.344100 0.217699
v 0.084687 0.372085 0.201841
v 0.124084 0.303460 0.194193
v 0.113588 0.353113 0.188009
v -0.122872 0.031753 0.000000
v -0.086876 0.457483 -0.086902
v 0.055561 0.254057 0.227307
v 0.047756 0.672095 -0.055139
v 0.000026 0.517611 0.000000
v -0.055509 0.254057 0.227307
v -0.046042 0.305655 0.222274
v -0.052649 0.354826 0.209932
vt 0.312683 0.474609
vt 0.360596 0.458679
vt 0.348633 0.458679
vt 0.360596 0.442078
vt 0.348633 0.442078
vt 0.360596 0.426758
vt 0.348633 0.426758
vt 0.360596 0.411377
vt 0.348633 0.411377
vt 0.360596 0.394775
vt 0.348633 0.394775
vt 0.312683 0.378845
vt 0.336609 0.394775
vt 0.324646 0.394775
vt 0.324646 0.411377
vt 0.312683 0.411377
vt 0.312683 0.426758
vt 0.300720 0.426758
vt 0.300720 0.442078
vt 0.288696 0.442078
vt 0.288696 0.458679
vt 0.304871 0.012207
vt 0.304871 0.225403
vt 0.319763 0.012207
vt 0.319763 0.225403
vt 0.409607 0.012207
vt 0.409607 0.225403
vt 0.426270 0.012207
vt 0.426270 0.225403
vt 0.409607 0.012207
vt 0.409607 0.225403
vt 0.319763 0.012207
vt 0.319763 0.225403
vt 0.304871 0.012207
vt 0.304871 0.225403
vt 0.869019 0.109192
vt 0.847046 0.130127
vt 0.738098 0.048645
vt 0.735901 0.133911
vt 0.847046 0.130127
vt 0.726807 0.283508
vt 0.839722 0.415588
vt 0.736938 0.411499
vt 0.736206 0.477539
vt 0.839722 0.415588
vt 0.852173 0.438660
vt 0.902283 0.282654
vt 0.312683 0.474609
vt 0.348633 0.458679
vt 0.336609 0.458679
vt 0.348633 0.442078
vt 0.336609 0.442078
vt 0.348633 0.426758
vt 0.336609 0.426758
vt 0.348633 0.411377
vt 0.336609 0.411377
vt 0.348633 0.394775
vt 0.336609 0.394775
vt 0.408508 0.378845
vt 0.360596 0.394775
vt 0.372559 0.394775
vt 0.360596 0.411377
vt 0.372559 0.411377
vt 0.360596 0.426758
vt 0.372559 0.426758
vt 0.360596 0.442078
vt 0.372559 0.442078
vt 0.360596 0.458679
vt 0.372559 0.458679
vt 0.336609 0.394775
vt 0.324646 0.411377
vt 0.336609 0.411377
vt 0.324646 0.426758
vt 0.336609 0.426758
vt 0.324646 0.442078
vt 0.336609 0.442078
vt 0.324646 0.458679
vt 0.336609 0.458679
vt 0.312683 0.474609
vt 0.408508 0.378845
vt 0.372559 0.394775
vt 0.384522 0.394775
vt 0.372559 0.411377
vt 0.384522 0.411377
vt 0.372559 0.426758
vt 0.384522 0.426758
vt 0.372559 0.442078
vt 0.384522 0.442078
vt 0.372559 0.458679
vt 0.105713 0.809814
vt 0.155945 0.809998
vt 0.106262 0.581238
vt 0.156555 0.572876
vt 0.105896 0.023438
vt 0.106323 0.581360
vt 0.052673 0.572510
vt 0.052124 0.809631
vt 0.106262 0.581238
vt 0.105713 0.809814
vt 0.869019 0.109192
vt 0.738098 0.048645
vt 0.847046 0.130127
vt 0.735901 0.133911
vt 0.726807 0.283508
vt 0.847046 0.130127
vt 0.839722 0.415588
vt 0.902283 0.282654
vt 0.852173 0.438660
vt 0.288696 0.442078
vt 0.300720 0.426758
vt 0.288696 0.426758
vt 0.300720 0.411377
vt 0.288696 0.411377
vt 0.300720 0.394775
vt 0.288696 0.394775
vt 0.312683 0.378845
vt 0.324646 0.411377
vt 0.312683 0.426758
vt 0.324646 0.426758
vt 0.312683 0.442078
vt 0.324646 0.442078
vt 0.312683 0.458679
vt 0.324646 0.458679
vt 0.312683 0.474609
vt 0.847046 0.130127
vt 0.726807 0.283508
vt 0.839722 0.415588
vt 0.736938 0.411499
vt 0.736206 0.477539
vt 0.839722 0.415588
vt 0.852173 0.438660
vt 0.869019 0.109192
vt 0.847046 0.130127
vt 0.902283 0.282654
vt 0.839722 0.415588
vt 0.852173 0.438660
vt 0.736206 0.477539
vt 0.300720 0.426758
vt 0.312683 0.411377
vt 0.300720 0.411377
vt 0.312683 0.394775
vt 0.300720 0.394775
vt 0.312683 0.378845
vt 0.312683 0.426758
vt 0.300720 0.442078
vt 0.312683 0.442078
vt 0.300720 0.458679
vt 0.312683 0.458679
vt 0.312683 0.474609
vt 0.456421 0.458679
vt 0.408508 0.474609
vt 0.372559 0.458679
vt 0.384522 0.458679
vt 0.384522 0.442078
vt 0.735901 0.133911
vt 0.847046 0.130127
vt 0.726807 0.283508
vt 0.839722 0.415588
vt 0.736938 0.411499
vt 0.735901 0.133911
vt 0.738098 0.048645
vt 0.847046 0.130127
vt 0.869019 0.109192
vt 0.902283 0.282654
vt 0.156555 0.572876
vt 0.155945 0.809998
vt 0.106323 0.581360
vt 0.105713 0.809814
vt 0.052124 0.809631
vt 0.319763 0.225403
vt 0.304871 0.225403
vt 0.364685 0.225403
vt 0.319763 0.225403
vt 0.409607 0.225403
vt 0.409607 0.225403
vt 0.426270 0.225403
vt 0.364685 0.225403
vt 0.409607 0.225403
vt 0.319763 0.225403
vt 0.839722 0.415588
vt 0.847046 0.130127
vt 0.902283 0.282654
vt 0.869019 0.109192
vt 0.738098 0.048645
vt 0.847046 0.130127
vt 0.869019 0.109192
vt 0.902283 0.282654
vt 0.847046 0.130127
vt 0.839722 0.415588
vt 0.902283 0.282654
vt 0.852173 0.438660
vt 0.130737 0.808044
vt 0.105713 0.809814
vt 0.100037 0.803101
vt 0.155945 0.809998
vt 0.312683 0.378845
vt 0.312683 0.394775
vt 0.324646 0.394775
vt 0.312683 0.411377
vt 0.312683 0.474609
vt 0.300720 0.458679
vt 0.288696 0.458679
vt 0.300720 0.442078
vt 0.736206 0.477539
vt 0.852173 0.438660
vt 0.839722 0.415588
vt 0.839722 0.415588
vt 0.736938 0.411499
vt 0.726807 0.283508
vt 0.052673 0.572510
vt 0.106262 0.581238
vt 0.105896 0.023438
vn 0.000000 1.000000 -0.000000
vn 0.411766 0.837213 0.359892
vn 0.545645 0.837213 -0.036680
vn 0.874084 0.485225 -0.023097
vn 0.634403 0.485225 0.601739
vn 1.000000 0.000000 -0.000000
vn 0.707107 0.000000 0.707107
vn 0.874083 -0.485226 0.023097
vn 0.601738 -0.485226 0.634403
vn 0.545645 -0.837213 0.036680
vn 0.359892 -0.837213 0.411766
vn 0.000000 -1.000000 -0.000000
vn -0.036680 -0.837213 0.545645
vn -0.411766 -0.837213 0.359892
vn -0.634403 -0.485226 0.601738
vn -0.874084 -0.485226 -0.023097
vn -1.000000 0.000000 0.000000
vn -0.707107 0.000000 -0.707107
vn -0.634403 0.485225 -0.601739
vn -0.023097 0.485226 -0.874084
vn -0.036680 0.837213 -0.545645
vn -1.000000 0.000000 0.000000
vn -0.500000 0.000000 0.866025
vn -1.000000 0.000000 0.000000
vn -0.500000 0.000000 0.866025
vn 0.500000 0.000000 0.866025
vn 0.500000 0.000000 0.866025
vn 1.000000 0.000000 0.000000
vn 1.000000 0.000000 0.000000
vn 0.500000 0.000000 -0.866025
vn 0.500000 0.000000 -0.866025
vn -0.500000 0.000000 -0.866026
vn -0.500000 0.000000 -0.866026
vn -0.810939 -0.227658 0.539027
vn -0.320697 -0.259454 0.910954
vn -0.752436 -0.047660 0.656938
vn -0.335357 -0.086237 0.938136
vn 0.162685 -0.021911 0.986435
vn -0.338085 0.169459 0.925733
vn 0.182684 0.358997 0.915286
vn -0.316620 0.429391 0.845798
vn -0.283187 0.611659 0.738701
vn -0.741458 0.332994 0.582541
vn -0.809896 0.466028 0.356211
vn -0.862772 0.112055 0.493019
vn 0.036680 0.837213 0.545645
vn 0.023097 0.485225 0.874084
vn 0.000000 0.000000 1.000000
vn -0.023097 -0.485226 0.874083
vn 0.411766 -0.837213 -0.359892
vn 0.634403 -0.485226 -0.601738
vn 0.707107 0.000000 -0.707107
vn 0.601738 0.485225 -0.634403
vn 0.359892 0.837213 -0.411766
vn -0.707107 0.000000 0.707107
vn -0.601739 0.485225 0.634403
vn -0.359892 0.837213 0.411766
vn 0.036680 -0.837213 -0.545645
vn 0.023097 -0.485226 -0.874083
vn 0.000000 0.000000 -1.000000
vn 0.964454 -0.255991 0.065549
vn 0.959137 -0.260526 0.110373
vn 0.190645 -0.211019 -0.958710
vn -0.117182 -0.177624 -0.977097
vn -0.304751 -0.945938 -0.111032
vn -0.983518 0.180548 -0.009798
vn -0.075254 0.109477 0.991136
vn 0.202357 0.598728 0.774969
vn 0.810938 -0.227658 0.539028
vn 0.752436 -0.047660 0.656938
vn 0.320696 -0.259454 0.910954
vn 0.335357 -0.086238 0.938136
vn 0.338085 0.169459 0.925733
vn -0.162685 -0.021911 0.986435
vn -0.182684 0.358997 0.915286
vn -0.344029 0.146012 0.927537
vn -0.372886 0.499309 0.782078
vn -0.601738 -0.485226 -0.634403
vn -0.359892 -0.837213 -0.411766
vn -0.874084 0.485225 0.023097
vn -0.545645 0.837213 0.036680
vn 0.741459 0.332994 0.582541
vn 0.316620 0.429392 0.845798
vn 0.283187 0.611659 0.738701
vn 0.862773 0.112055 0.493019
vn 0.809896 0.466029 0.356210
vn -0.545645 -0.837213 -0.036680
vn -0.411766 0.837213 -0.359892
vn -0.291762 -0.196631 0.936062
vn -0.710720 0.641257 -0.289253
vn 0.000000 1.000000 0.000000
vn 0.000000 1.000000 0.000000
vn 0.000000 1.000000 0.000000
vn 0.000000 1.000000 0.000000
vn 0.000000 1.000000 -0.000000
vn 0.000000 1.000000 -0.000000
vn 0.000000 1.000000 0.000001
vn 0.291762 -0.196630 0.936062
vn 0.344029 0.146012 0.927537
vn 0.372886 0.499309 0.782078
s 1
g polySurface9 polySurface6 polySurface3 polygon0
usemtl lambert2SG
f 1/1/1 3/3/2 2/2/3
f 3/3/2 4/4/4 2/2/3
f 3/3/2 5/5/5 4/4/4
f 5/5/5 6/6/6 4/4/4
f 5/5/5 7/7/7 6/6/6
f 7/7/7 8/8/8 6/6/6
f 7/7/7 9/9/9 8/8/8
f 9/9/9 10/10/10 8/8/8
f 9/9/9 11/11/11 10/10/10
f 11/11/11 12/12/12 10/10/10
f 11/11/11 13/13/13 12/12/12
f 13/13/13 14/14/14 12/12/12
f 13/13/13 15/15/15 14/14/14
f 15/15/15 16/16/16 14/14/14
f 15/15/15 17/17/17 16/16/16
f 17/17/17 18/18/18 16/16/16
f 17/17/17 19/19/19 18/18/18
f 19/19/19 20/20/20 18/18/18
f 19/19/19 21/21/21 20/20/20
s 2
f 22/22/22 24/24/23 23/23/24
f 24/24/23 25/25/25 23/23/24
f 24/24/23 26/26/26 25/25/25
f 26/26/26 27/27/27 25/25/25
f 26/26/26 28/28/28 27/27/27
f 28/28/28 29/29/29 27/27/27
f 28/28/28 30/30/30 29/29/29
f 30/30/30 31/31/31 29/29/29
f 30/30/30 32/32/32 31/31/31
f 32/32/32 33/33/33 31/31/31
f 32/32/32 22/34/22 33/33/33
f 22/34/22 23/35/24 33/33/33
s 3
f 34/36/34 36/38/35 35/37/36
f 36/38/35 37/39/37 35/37/36
f 36/38/35 38/40/38 37/39/37
f 38/40/38 39/41/39 37/39/37
f 38/40/38 40/42/40 39/41/39
f 40/42/40 41/43/41 39/41/39
f 40/42/40 42/44/42 41/43/41
f 42/44/42 43/45/43 41/43/41
f 42/44/42 44/46/44 43/45/43
f 44/46/44 45/47/45 43/45/43
s 1
f 1/48/1 46/50/46 3/49/2
f 46/50/46 5/51/5 3/49/2
f 46/50/46 47/52/47 5/51/5
f 47/52/47 7/53/7 5/51/5
f 47/52/47 48/54/48 7/53/7
f 48/54/48 9/55/9 7/53/7
f 48/54/48 49/56/49 9/55/9
f 49/56/49 11/57/11 9/55/9
f 49/56/49 13/58/13 11/57/11
f 12/59/12 50/61/50 10/60/10
f 50/61/50 8/62/8 10/60/10
f 50/61/50 51/63/51 8/62/8
f 51/63/51 6/64/6 8/62/8
f 51/63/51 52/65/52 6/64/6
f 52/65/52 4/66/4 6/64/6
f 52/65/52 53/67/53 4/66/4
f 53/67/53 2/68/3 4/66/4
f 53/67/53 54/69/54 2/68/3
f 13/70/13 49/72/49 15/71/15
f 49/72/49 55/73/55 15/71/15
f 49/72/49 48/74/48 55/73/55
f 48/74/48 56/75/56 55/73/55
f 48/74/48 47/76/47 56/75/56
f 47/76/47 57/77/57 56/75/56
f 47/76/47 46/78/46 57/77/57
f 46/78/46 1/79/1 57/77/57
f 12/80/12 58/82/58 50/81/50
f 58/82/58 51/83/51 50/81/50
f 58/82/58 59/84/59 51/83/51
f 59/84/59 52/85/52 51/83/51
f 59/84/59 60/86/60 52/85/52
f 60/86/60 53/87/53 52/85/52
f 60/86/60 20/88/20 53/87/53
f 20/88/20 54/89/54 53/87/53
s 4
f 61/90/61 63/92/62 62/91/63
f 63/92/62 64/93/64 62/91/63
f 63/92/62 65/94/65 64/93/64
f 65/94/65 66/95/66 64/93/64
f 65/94/65 67/96/67 66/95/66
f 67/96/67 68/97/68 66/95/66
f 67/96/67 63/98/62 68/97/68
f 63/98/62 61/99/61 68/97/68
s 5
f 69/100/69 71/102/70 70/101/71
f 71/102/70 72/103/72 70/101/71
f 71/102/70 73/104/73 72/103/72
f 73/104/73 74/105/74 72/103/72
f 73/104/73 75/106/75 74/105/74
f 75/106/75 76/107/76 74/105/74
f 75/106/75 77/108/77 76/107/76
s 1
f 20/109/20 60/111/60 18/110/18
f 60/111/60 78/112/78 18/110/18
f 60/111/60 59/113/59 78/112/78
f 59/113/59 79/114/79 78/112/78
f 59/113/59 58/115/58 79/114/79
f 58/115/58 12/116/12 79/114/79
f 15/117/15 55/119/55 17/118/17
f 55/119/55 80/120/80 17/118/17
f 55/119/55 56/121/56 80/120/80
f 56/121/56 81/122/81 80/120/80
f 56/121/56 57/123/57 81/122/81
f 57/123/57 1/124/1 81/122/81
s 5
f 71/125/70 82/127/82 73/126/73
f 82/127/82 83/128/83 73/126/73
f 82/127/82 84/129/84 83/128/83
f 84/129/84 75/130/75 83/128/83
f 84/129/84 77/131/77 75/130/75
f 69/132/69 85/134/85 71/133/70
f 85/134/85 82/135/82 71/133/70
f 85/134/85 86/136/86 82/135/82
f 86/136/86 84/137/84 82/135/82
s 1
f 18/138/18 78/140/78 16/139/16
f 78/140/78 87/141/87 16/139/16
f 78/140/78 79/142/79 87/141/87
f 79/142/79 12/143/12 87/141/87
f 17/144/17 80/146/80 19/145/19
f 80/146/80 88/147/88 19/145/19
f 80/146/80 81/148/81 88/147/88
f 81/148/81 1/149/1 88/147/88
f 2/150/3 54/152/54 1/151/1
f 54/152/54 21/153/21 1/151/1
f 54/152/54 20/154/20 21/153/21
s 3
f 37/155/37 39/157/39 35/156/36
f 39/157/39 43/158/43 35/156/36
f 39/157/39 41/159/41 43/158/43
s 5
f 72/160/72 74/162/74 70/161/71
f 74/162/74 89/163/89 70/161/71
f 74/162/74 76/164/76 89/163/89
s 4
f 64/165/64 66/167/66 62/166/63
f 66/167/66 90/168/90 62/166/63
f 66/167/66 68/169/68 90/168/90
s 6
f 25/170/91 91/172/92 23/171/93
f 91/172/92 33/173/94 23/171/93
f 91/172/92 31/174/95 33/173/94
f 31/175/95 91/177/92 29/176/96
f 91/177/92 27/178/97 29/176/96
f 91/177/92 25/179/91 27/178/97
s 3
f 43/180/43 45/182/45 35/181/36
f 45/182/45 34/183/34 35/181/36
f 36/184/35 92/186/98 38/185/38
f 92/186/98 93/187/99 38/185/38
f 38/188/38 93/190/99 40/189/40
f 93/190/99 94/191/100 40/189/40
s 4
f 68/192/68 61/194/61 90/193/90
f 61/194/61 62/195/63 90/193/90
s 1
f 12/196/12 14/198/14 87/197/87
f 14/198/14 16/199/16 87/197/87
f 1/200/1 21/202/21 88/201/88
f 21/202/21 19/203/19 88/201/88
s 3
f 40/206/40 94/205/100 42/204/42
s 5
f 73/209/73 83/208/83 75/207/75
s 4
f 65/212/65 63/211/62 67/210/67
