# This file uses centimeters as units for non-parametric coordinates.

mtllib Rigth.mtl
g default
v -0.135030 -0.000890 -0.065982
v -0.080221 -0.000890 -0.070966
v -0.081341 0.043889 -0.068559
v -0.048735 -0.000890 -0.025829
v -0.055930 0.046285 -0.025212
v -0.086670 0.045366 0.125589
v -0.107206 0.095939 0.090217
v -0.175068 0.061315 0.132873
v -0.186144 0.095939 0.053488
v -0.226429 0.045366 0.060559
v -0.130867 0.046285 -0.060080
v -0.090718 0.070309 -0.048406
v -0.113307 0.064403 0.000140
v -0.182548 -0.000890 0.148949
v -0.094047 -0.000890 0.140005
v -0.232705 -0.000890 0.075487
v -0.122584 0.015781 0.029345
v -0.079151 0.189047 0.006320
v -0.068187 0.015781 0.011978
v -0.091212 0.189047 -0.031455
v -0.085555 0.015781 -0.042419
v -0.128988 0.189047 -0.019394
v -0.139952 0.015781 -0.025052
v -0.116927 0.189047 0.018381
vt 0.126587 0.932190
vt 0.085876 0.932556
vt 0.126587 0.932861
vt 0.126587 0.926880
vt 0.083313 0.926819
vt 0.084290 0.906921
vt 0.023315 0.911560
vt 0.060242 0.905945
vt 0.023315 0.916443
vt 0.084290 0.915466
vt 0.083313 0.931396
vt 0.126587 0.932190
vt 0.085876 0.932556
vt 0.083313 0.931396
vt 0.050659 0.929871
vt 0.085876 0.932556
vt 0.083313 0.926819
vt 0.056946 0.923462
vt 0.023315 0.911560
vt 0.023315 0.916443
vt 0.084290 0.915466
vt 0.126587 0.903809
vt 0.060242 0.905945
vt 0.084290 0.906921
vt 0.126587 0.905029
vt 0.126587 0.926880
vt 0.148315 0.945374
vt 0.135071 0.929504
vt 0.171326 0.943665
vt 0.212341 0.893921
vt 0.154114 0.871277
vt 0.191284 0.868103
vt 0.050659 0.929871
vt 0.083313 0.931396
vt 0.056946 0.923462
vt 0.023315 0.916443
vt 0.126587 0.932190
vt 0.126587 0.913513
vt 0.084290 0.915466
vt 0.126587 0.903809
vt 0.081116 0.957092
vt 0.059753 0.957092
vt 0.064087 0.985291
vt 0.068787 0.985291
vt 0.066589 0.957092
vt 0.083679 0.985291
vt 0.087952 0.957092
vt 0.078918 0.985291
vt 0.081116 0.957092
vt 0.064087 0.985291
vn -0.300494 -0.893183 -0.334555
vn 0.403522 0.291685 -0.867231
vn 0.333040 -0.613826 -0.715753
vn 0.365731 -0.930647 0.011717
vn 0.887808 0.460212 -0.001767
vn 0.773082 0.304786 0.556283
vn 0.444745 0.867461 0.222966
vn -0.351319 0.553618 0.755038
vn -0.457004 0.867461 -0.196618
vn -0.923452 0.304786 -0.233114
vn -0.570445 0.460211 -0.680292
vn 0.101529 0.970608 -0.218202
vn 0.134456 0.947850 -0.288967
vn -0.322306 -0.645217 0.692686
vn 0.248939 -0.938985 0.237354
vn -0.380989 -0.923631 -0.041858
vn -0.477453 0.071008 0.875783
vn 0.875783 0.071008 0.477453
vn 0.866512 0.070964 0.494086
vn 0.494086 0.070964 -0.866512
vn 0.477453 0.071008 -0.875783
vn -0.866512 0.070964 -0.494086
vn -0.875783 0.071008 -0.477453
vn -0.494086 0.070964 0.866512
s 1
g polySurface4
usemtl lambert2SG
f 1/1/1 3/2/2 2/3/3
f 3/2/2 4/4/4 2/3/3
f 3/2/2 5/5/5 4/4/4
f 5/5/5 6/6/6 4/4/4
f 5/5/5 7/7/7 6/6/6
f 7/7/7 8/8/8 6/6/6
f 7/7/7 9/9/9 8/8/8
f 9/9/9 10/10/10 8/8/8
f 9/9/9 11/11/11 10/10/10
f 11/11/11 1/12/1 10/10/10
f 11/11/11 3/13/2 1/12/1
f 11/14/11 12/15/12 3/16/2
f 12/15/12 5/17/5 3/16/2
f 12/15/12 13/18/13 5/17/5
f 13/18/13 7/19/7 5/17/5
f 13/18/13 9/20/9 7/19/7
f 10/21/10 14/22/14 8/23/8
f 14/22/14 6/24/6 8/23/8
f 14/22/14 15/25/15 6/24/6
f 15/25/15 4/26/4 6/24/6
f 2/27/3 4/28/4 1/29/1
f 4/28/4 16/30/16 1/29/1
f 4/28/4 15/31/15 16/30/16
f 15/31/15 14/32/14 16/30/16
f 12/33/12 11/34/11 13/35/13
f 11/34/11 9/36/9 13/35/13
f 1/37/1 16/38/16 10/39/10
f 16/38/16 14/40/14 10/39/10
s 2
f 17/41/17 19/42/18 18/43/19
f 19/42/18 20/44/20 18/43/19
f 19/42/18 21/45/21 20/44/20
f 21/45/21 22/46/22 20/44/20
f 21/45/21 23/47/23 22/46/22
f 23/47/23 24/48/24 22/46/22
f 23/47/23 17/49/17 24/48/24
f 17/49/17 18/50/19 24/48/24
