# This file uses centimeters as units for non-parametric coordinates.

mtllib Pintura.mtl
g default
v 0.064380 0.500000 0.000000
v 0.500000 0.500000 0.000000
v -0.500000 -0.500000 -0.000000
v -0.500000 -0.064380 -0.000000
v -0.064380 0.500000 -0.000000
v -0.500000 0.500000 -0.000000
v -0.500000 0.064380 -0.000000
v -0.447952 0.258626 -0.000000
v -0.258625 0.447952 -0.000000
v -0.064380 -0.500000 -0.000000
v 0.500000 0.064380 0.000000
v 0.064380 -0.500000 0.000000
v 0.500000 -0.064380 0.000000
v -0.076917 0.044408 -0.000000
v -0.044408 0.076917 -0.000000
v -0.088816 0.000000 -0.000000
v 0.000000 0.088816 0.000000
v -0.076917 -0.044408 -0.000000
v 0.044408 0.076917 0.000000
v -0.044408 -0.076916 -0.000000
v 0.076917 0.044408 0.000000
v -0.258625 -0.447952 -0.000000
v -0.447952 -0.258625 -0.000000
v 0.258625 0.447952 0.000000
v 0.447952 0.258625 0.000000
v 0.500000 -0.500000 0.000000
v 0.000000 -0.088816 0.000000
v 0.088816 0.000000 0.000000
v 0.044408 -0.076916 0.000000
v 0.076917 -0.044408 0.000000
v 0.447952 -0.258625 0.000000
v 0.258625 -0.447952 0.000000
v -0.197469 0.000000 -0.000000
v -0.171013 0.098734 -0.000000
v -0.098734 0.171013 -0.000000
v 0.000000 0.197469 0.000000
v 0.098734 0.171013 0.000000
v 0.171013 0.098734 0.000000
v 0.197469 0.000000 0.000000
v 0.378053 0.000000 0.000000
v 0.327403 0.189026 0.000000
v 0.189026 0.327403 0.000000
v 0.000000 0.378053 0.000000
v -0.189026 0.327403 -0.000000
v -0.327403 0.189027 -0.000000
v -0.171013 -0.098734 -0.000000
v -0.098734 -0.171013 -0.000000
v 0.000000 -0.197469 0.000000
v 0.098734 -0.171013 0.000000
v 0.171013 -0.098734 0.000000
v -0.327403 -0.189026 -0.000000
v -0.189026 -0.327403 -0.000000
v 0.000000 -0.378053 0.000000
v 0.189026 -0.327403 0.000000
v 0.327403 -0.189026 0.000000
v -0.378053 0.000000 -0.000000
vt 0.564380 1.000000
vt 1.000000 1.000000
vt 0.758625 0.947952
vt 1.000000 0.564380
vt 0.947952 0.758626
vt 1.000000 0.435620
vt 1.000000 0.000000
vt 0.947952 0.241375
vt 0.564380 0.000000
vt 0.758625 0.052048
vt 0.435620 1.000000
vt 0.241375 0.947952
vt 0.000000 1.000000
vt 0.000000 0.564380
vt 0.052048 0.758625
vt 0.435620 0.000000
vt 0.000000 0.000000
vt 0.241375 0.052048
vt 0.000000 0.435620
vt 0.052048 0.241375
vt 0.121947 0.500000
vt 0.172597 0.689026
vt 0.172597 0.310974
vt 0.310974 0.827403
vt 0.328987 0.598734
vt 0.302531 0.500000
vt 0.328987 0.401266
vt 0.401266 0.671013
vt 0.500000 0.878053
vt 0.500000 0.697469
vt 0.689026 0.827403
vt 0.598734 0.671013
vt 0.827403 0.689027
vt 0.671013 0.598734
vt 0.878053 0.500000
vt 0.697469 0.500000
vt 0.827403 0.310974
vt 0.671013 0.401266
vt 0.689026 0.172597
vt 0.598734 0.328987
vt 0.500000 0.121947
vt 0.500000 0.302531
vt 0.310974 0.172597
vt 0.401266 0.328987
vt 0.423083 0.544408
vt 0.411184 0.500000
vt 0.455592 0.576917
vt 0.423083 0.455592
vt 0.500000 0.588816
vt 0.544408 0.576917
vt 0.576917 0.544408
vt 0.588816 0.500000
vt 0.576917 0.455592
vt 0.544408 0.423083
vt 0.500000 0.411184
vt 0.455592 0.423083
vn -0.000000 0.000000 1.000000
vn -0.000000 0.000000 1.000000
vn -0.000000 0.000000 1.000000
vn -0.000000 0.000000 1.000000
vn -0.000000 0.000000 1.000000
vn -0.000000 0.000000 1.000000
vn -0.000000 0.000000 1.000000
vn -0.000000 0.000000 1.000000
vn -0.000000 0.000000 1.000000
vn -0.000000 0.000000 1.000000
vn -0.000000 -0.000001 1.000000
vn -0.000001 0.000000 1.000000
vn -0.000000 0.000000 1.000000
vn -0.000000 0.000000 1.000000
vn -0.000000 -0.000001 1.000000
vn -0.000000 -0.000001 1.000000
vn -0.000000 0.000000 1.000000
vn -0.000001 0.000000 1.000000
vn -0.000000 0.000000 1.000000
vn -0.000000 0.000000 1.000000
vn -0.000000 0.000000 1.000000
vn -0.000000 0.000000 1.000000
vn -0.000000 0.000000 1.000000
vn -0.000000 0.000000 1.000000
vn -0.000000 0.000000 1.000000
vn -0.000000 0.000000 1.000000
vn -0.000000 0.000000 1.000000
vn -0.000000 0.000000 1.000000
vn -0.000000 0.000000 1.000000
vn -0.000000 0.000000 1.000000
vn -0.000000 0.000000 1.000000
vn -0.000000 0.000000 1.000000
vn -0.000000 0.000000 1.000000
vn -0.000000 0.000000 1.000000
vn -0.000000 0.000000 1.000000
vn -0.000000 0.000000 1.000000
vn -0.000000 0.000000 1.000000
vn -0.000000 0.000000 1.000000
vn -0.000000 0.000000 1.000000
vn -0.000000 0.000000 1.000000
vn -0.000000 0.000000 1.000000
vn -0.000000 0.000000 1.000000
vn -0.000000 0.000000 1.000000
vn -0.000000 0.000000 1.000000
vn -0.000000 0.000000 1.000000
vn -0.000000 0.000000 1.000000
vn -0.000000 0.000000 1.000000
vn -0.000000 0.000000 1.000000
vn -0.000000 0.000000 1.000000
vn -0.000000 0.000000 1.000000
vn -0.000000 0.000000 1.000000
vn -0.000000 0.000000 1.000000
vn -0.000000 0.000000 1.000000
vn -0.000000 0.000000 1.000000
vn -0.000000 0.000000 1.000000
vn -0.000000 0.000000 1.000000
vn -0.000000 0.000000 1.000000
vn -0.000000 0.000000 1.000000
vn -0.000000 0.000000 1.000000
vn -0.000000 0.000000 1.000000
vn -0.000000 0.000000 1.000000
vn -0.000000 0.000000 1.000000
vn -0.000000 0.000000 1.000000
vn -0.000000 0.000000 1.000000
vn -0.000000 0.000000 1.000000
vn -0.000000 0.000000 1.000000
vn -0.000000 0.000000 1.000000
vn -0.000000 0.000000 1.000000
vn -0.000000 0.000000 1.000000
vn -0.000000 0.000000 1.000000
vn -0.000000 0.000000 1.000000
vn -0.000000 0.000000 1.000000
vn -0.000000 0.000000 1.000000
vn -0.000000 0.000000 1.000000
vn -0.000000 0.000000 1.000000
vn -0.000000 0.000000 1.000000
vn -0.000000 0.000000 1.000000
vn -0.000000 0.000000 1.000000
vn -0.000000 0.000000 1.000000
vn -0.000000 0.000000 1.000000
vn -0.000000 0.000000 1.000000
vn -0.000000 0.000000 1.000000
vn -0.000000 0.000000 1.000000
vn -0.000000 0.000000 1.000000
vn -0.000000 0.000000 1.000000
vn -0.000000 0.000000 1.000000
vn -0.000000 0.000000 1.000000
vn -0.000000 0.000000 1.000000
vn -0.000000 0.000000 1.000000
vn -0.000000 0.000000 1.000000
vn -0.000000 0.000000 1.000000
vn -0.000000 0.000000 1.000000
vn -0.000000 0.000000 1.000000
vn -0.000000 0.000000 1.000000
vn -0.000000 0.000000 1.000000
vn -0.000000 0.000000 1.000000
vn -0.000000 0.000000 1.000000
vn -0.000000 0.000000 1.000000
vn -0.000000 0.000000 1.000000
vn -0.000000 0.000000 1.000000
vn -0.000000 0.000000 1.000000
vn -0.000000 0.000000 1.000000
vn -0.000000 0.000000 1.000000
vn -0.000000 0.000000 1.000000
vn -0.000000 0.000000 1.000000
vn -0.000000 0.000000 1.000000
vn -0.000000 0.000000 1.000000
vn -0.000000 0.000000 1.000000
vn -0.000000 0.000000 1.000000
vn -0.000000 0.000000 1.000000
vn -0.000000 0.000000 1.000000
vn -0.000000 0.000000 1.000000
vn -0.000000 0.000000 1.000000
vn -0.000000 0.000000 1.000000
vn -0.000000 0.000000 1.000000
vn -0.000000 0.000000 1.000000
vn -0.000000 0.000000 1.000000
vn -0.000000 0.000000 1.000000
vn -0.000000 0.000000 1.000000
vn -0.000000 0.000000 1.000000
vn -0.000000 0.000000 1.000000
vn -0.000000 0.000000 1.000000
vn -0.000000 0.000000 1.000000
vn -0.000000 0.000000 1.000000
vn -0.000000 0.000000 1.000000
vn -0.000000 0.000000 1.000000
vn -0.000000 0.000000 1.000000
vn -0.000000 0.000000 1.000000
vn -0.000000 0.000000 1.000000
vn -0.000000 0.000000 1.000000
vn -0.000000 0.000000 1.000000
vn -0.000000 0.000000 1.000000
vn -0.000000 0.000000 1.000000
vn -0.000000 0.000000 1.000000
vn -0.000000 0.000000 1.000000
vn -0.000000 0.000000 1.000000
vn -0.000000 0.000000 1.000000
vn -0.000000 0.000000 1.000000
vn -0.000000 0.000000 1.000000
vn -0.000000 0.000000 1.000000
vn -0.000000 0.000000 1.000000
vn -0.000000 0.000000 1.000000
vn -0.000000 0.000000 1.000000
vn -0.000000 0.000000 1.000000
vn -0.000000 0.000000 1.000000
vn -0.000000 0.000000 1.000000
vn -0.000000 0.000000 1.000000
vn -0.000000 0.000000 1.000000
vn -0.000000 0.000000 1.000000
vn -0.000000 0.000000 1.000000
vn -0.000000 0.000000 1.000000
vn -0.000000 0.000000 1.000000
vn -0.000000 0.000000 1.000000
vn -0.000000 0.000000 1.000000
vn -0.000000 0.000000 1.000000
vn -0.000000 0.000000 1.000000
vn -0.000000 0.000000 1.000000
vn -0.000000 0.000000 1.000000
vn -0.000000 0.000000 1.000000
vn -0.000000 0.000000 1.000000
vn -0.000000 0.000000 1.000000
vn -0.000001 0.000000 1.000000
vn -0.000000 0.000000 1.000000
vn -0.000000 0.000000 1.000000
vn -0.000001 0.000000 1.000000
vn -0.000001 0.000000 1.000000
vn -0.000000 0.000000 1.000000
vn -0.000000 0.000000 1.000000
vn -0.000000 0.000000 1.000000
vn -0.000000 0.000000 1.000000
vn -0.000000 0.000000 1.000000
vn -0.000000 0.000000 1.000000
vn -0.000000 0.000000 1.000000
vn -0.000000 0.000000 1.000000
vn -0.000000 0.000000 1.000000
vn -0.000000 0.000000 1.000000
vn -0.000000 0.000000 1.000000
vn -0.000000 0.000000 1.000000
vn -0.000000 0.000000 1.000000
vn -0.000000 0.000000 1.000000
vn -0.000000 0.000000 1.000000
vn -0.000000 0.000000 1.000000
vn -0.000000 0.000000 1.000000
vn -0.000000 0.000000 1.000000
vn -0.000000 0.000000 1.000000
vn -0.000000 0.000000 1.000000
vn -0.000000 0.000000 1.000000
vn -0.000000 0.000000 1.000000
vn -0.000000 0.000000 1.000000
vn -0.000000 0.000000 1.000000
vn -0.000000 0.000000 1.000000
vn -0.000000 0.000000 1.000000
vn -0.000000 0.000000 1.000000
vn -0.000000 0.000000 1.000000
vn -0.000000 0.000000 1.000000
vn -0.000000 0.000000 1.000000
vn -0.000000 0.000000 1.000000
vn -0.000000 0.000000 1.000000
vn -0.000000 0.000000 1.000000
vn -0.000000 0.000000 1.000000
vn -0.000000 0.000000 1.000000
vn -0.000000 0.000000 1.000000
vn -0.000000 0.000000 1.000000
vn -0.000000 0.000000 1.000000
vn -0.000000 0.000000 1.000000
vn -0.000000 0.000000 1.000000
vn -0.000000 0.000000 1.000000
vn -0.000000 0.000000 1.000000
vn -0.000000 0.000000 1.000000
vn -0.000000 0.000000 1.000000
vn -0.000000 0.000000 1.000000
vn -0.000000 0.000000 1.000000
vn -0.000000 0.000000 1.000000
vn -0.000000 0.000000 1.000000
vn -0.000000 0.000000 1.000000
vn -0.000000 0.000000 1.000000
vn -0.000000 0.000000 1.000000
vn -0.000000 0.000000 1.000000
vn -0.000000 0.000000 1.000000
vn -0.000000 0.000000 1.000000
vn -0.000000 0.000000 1.000000
vn -0.000000 0.000000 1.000000
vn -0.000000 0.000000 1.000000
vn -0.000000 0.000000 1.000000
vn -0.000000 0.000000 1.000000
vn -0.000000 0.000000 1.000000
vn -0.000000 0.000000 1.000000
vn -0.000000 0.000000 1.000000
vn -0.000000 0.000000 1.000000
vn -0.000000 0.000000 1.000000
vn -0.000000 0.000000 1.000000
vn -0.000000 0.000000 1.000000
vn -0.000000 0.000000 1.000000
vn -0.000000 0.000000 1.000000
vn -0.000000 0.000000 1.000000
vn -0.000000 0.000000 1.000000
vn -0.000000 0.000000 1.000000
vn -0.000000 0.000000 1.000000
vn -0.000000 0.000000 1.000000
vn -0.000000 0.000000 1.000000
vn -0.000000 0.000000 1.000000
vn -0.000000 0.000000 1.000000
vn -0.000000 0.000000 1.000000
vn -0.000000 0.000000 1.000000
vn -0.000000 0.000000 1.000000
vn -0.000000 0.000000 1.000000
vn -0.000000 0.000000 1.000000
vn -0.000000 0.000000 1.000000
vn -0.000000 0.000000 1.000000
vn -0.000000 0.000000 1.000000
vn -0.000000 0.000000 1.000000
vn -0.000000 0.000000 1.000000
vn -0.000000 0.000000 1.000000
vn -0.000000 0.000000 1.000000
vn -0.000000 0.000000 1.000000
vn -0.000000 0.000000 1.000000
vn -0.000000 0.000000 1.000000
vn -0.000000 0.000000 1.000000
vn -0.000000 0.000000 1.000000
vn -0.000000 0.000000 1.000000
vn -0.000000 0.000000 1.000000
vn -0.000000 0.000000 1.000000
vn -0.000000 0.000000 1.000000
vn -0.000000 0.000000 1.000000
vn -0.000000 0.000000 1.000000
vn -0.000000 0.000000 1.000000
vn -0.000000 0.000000 1.000000
vn -0.000000 0.000000 1.000000
vn -0.000000 0.000000 1.000000
vn -0.000000 0.000000 1.000000
vn -0.000000 0.000000 1.000000
vn -0.000000 0.000000 1.000000
vn -0.000000 0.000000 1.000000
vn -0.000000 0.000000 1.000000
vn -0.000000 0.000000 1.000000
vn -0.000000 0.000000 1.000000
vn -0.000000 0.000000 1.000000
vn -0.000000 0.000000 1.000000
vn -0.000000 0.000000 1.000000
vn -0.000000 0.000000 1.000000
vn -0.000000 0.000000 1.000000
vn -0.000000 0.000000 1.000000
vn -0.000000 0.000000 1.000000
vn -0.000000 0.000000 1.000000
vn -0.000000 0.000000 1.000000
vn -0.000000 0.000000 1.000000
vn -0.000000 0.000000 1.000000
vn -0.000000 0.000000 1.000000
vn -0.000000 0.000000 1.000000
vn -0.000000 0.000000 1.000000
vn -0.000000 0.000000 1.000000
vn -0.000000 0.000000 1.000000
vn -0.000000 0.000000 1.000000
vn -0.000000 0.000000 1.000000
s off
g Pintura1:polySurface4
usemtl Pintura1:lambert2SG
f 5/1/1 6/2/2 9/3/3
f 7/4/4 8/5/5 6/2/6
f 6/2/7 8/5/8 9/3/9
f 4/6/10 3/7/11 23/8/12
f 10/9/13 22/10/14 3/7/15
f 3/7/16 22/10/17 23/8/18
f 1/11/19 24/12/20 2/13/21
f 11/14/22 2/13/23 25/15/24
f 2/13/25 24/12/26 25/15/27
f 12/16/28 26/17/29 32/18/30
f 13/19/31 31/20/32 26/17/33
f 26/17/34 31/20/35 32/18/36
f 40/21/37 41/22/38 55/23/39
f 41/22/40 42/24/41 55/23/42
f 42/24/43 38/25/44 55/23/45
f 38/25/46 39/26/47 55/23/48
f 39/26/49 50/27/50 55/23/51
f 38/25/52 42/24/53 37/28/54
f 42/24/55 43/29/56 37/28/57
f 37/28/58 43/29/59 36/30/60
f 43/29/61 44/31/62 36/30/63
f 36/30/64 44/31/65 35/32/66
f 44/31/67 45/33/68 35/32/69
f 35/32/70 45/33/71 34/34/72
f 45/33/73 56/35/74 34/34/75
f 34/34/76 56/35/77 33/36/78
f 56/35/79 51/37/80 33/36/81
f 33/36/82 51/37/83 46/38/84
f 51/37/85 52/39/86 46/38/87
f 46/38/88 52/39/89 47/40/90
f 52/39/91 53/41/92 47/40/93
f 47/40/94 53/41/95 48/42/96
f 53/41/97 54/43/98 48/42/99
f 48/42/100 54/43/101 49/44/102
f 54/43/103 55/23/104 49/44/105
f 50/27/106 49/44/107 55/23/108
f 25/15/109 24/12/110 11/14/111
f 24/12/112 1/11/113 11/14/114
f 11/14/115 1/11/116 41/22/117
f 41/22/118 1/11/119 42/24/120
f 41/22/121 40/21/122 11/14/123
f 42/24/124 1/11/125 43/29/126
f 11/14/127 40/21/128 13/19/129
f 1/11/130 5/1/131 43/29/132
f 40/21/133 55/23/134 13/19/135
f 13/19/136 55/23/137 31/20/138
f 31/20/139 55/23/140 32/18/141
f 55/23/142 54/43/143 32/18/144
f 32/18/145 54/43/146 12/16/147
f 54/43/148 53/41/149 12/16/150
f 12/16/151 53/41/152 10/9/153
f 53/41/154 52/39/155 10/9/156
f 10/9/157 52/39/158 22/10/159
f 22/10/160 52/39/161 23/8/162
f 52/39/163 51/37/164 23/8/165
f 23/8/166 51/37/167 4/6/168
f 51/37/169 56/35/170 4/6/171
f 4/6/172 56/35/173 7/4/174
f 56/35/175 45/33/176 7/4/177
f 7/4/178 45/33/179 8/5/180
f 8/5/181 45/33/182 9/3/183
f 45/33/184 44/31/185 9/3/186
f 9/3/187 44/31/188 5/1/189
f 44/31/190 43/29/191 5/1/192
f 39/26/193 38/25/194 50/27/195
f 38/25/196 37/28/197 50/27/198
f 37/28/199 36/30/200 50/27/201
f 36/30/202 21/45/203 50/27/204
f 21/45/205 28/46/206 50/27/207
f 21/45/208 36/30/209 19/47/210
f 28/46/211 30/48/212 50/27/213
f 19/47/214 36/30/215 17/49/216
f 36/30/217 35/32/218 17/49/219
f 17/49/220 35/32/221 15/50/222
f 35/32/223 34/34/224 15/50/225
f 15/50/226 34/34/227 14/51/228
f 34/34/229 33/36/230 14/51/231
f 14/51/232 33/36/233 16/52/234
f 33/36/235 46/38/236 16/52/237
f 16/52/238 46/38/239 18/53/240
f 46/38/241 47/40/242 18/53/243
f 18/53/244 47/40/245 20/54/246
f 47/40/247 48/42/248 20/54/249
f 20/54/250 48/42/251 27/55/252
f 48/42/253 49/44/254 27/55/255
f 27/55/256 49/44/257 29/56/258
f 49/44/259 50/27/260 29/56/261
f 30/48/262 29/56/263 50/27/264
f 14/51/265 16/52/266 15/50/267
f 16/52/268 18/53/269 15/50/270
f 18/53/271 20/54/272 15/50/273
f 20/54/274 27/55/275 15/50/276
f 27/55/277 29/56/278 15/50/279
f 29/56/280 30/48/281 15/50/282
f 30/48/283 28/46/284 15/50/285
f 28/46/286 21/45/287 15/50/288
f 21/45/289 19/47/290 15/50/291
f 19/47/292 17/49/293 15/50/294
