# Blender 3.5.0
# www.blender.org
mtllib grim_oz.mtl
o Oz
v -0.143797 2.792899 0.807458
v -0.090116 3.810201 0.807458
v -0.143797 2.792899 1.006459
v -0.090116 3.810201 1.006459
v 0.123299 2.643338 0.807458
v 0.176979 3.660639 0.807458
v 0.123299 2.643338 1.006459
v 0.176979 3.660639 1.006459
v -0.349266 2.903317 1.006459
v -0.349266 2.903317 0.807458
v -0.296298 3.907120 0.807458
v -0.296298 3.907120 1.006459
v -0.545665 3.018782 1.006459
v -0.545665 3.018782 0.807458
v -0.494049 3.996966 0.807458
v -0.494049 3.996966 1.006459
v -0.741429 3.104574 1.006459
v -0.741429 3.104574 0.807458
v -0.690535 4.069067 0.807458
v -0.690535 4.069067 1.006459
v -0.934893 3.192218 1.006459
v -0.934893 3.192218 0.807458
v -0.885355 4.131034 0.807458
v -0.885355 4.131034 1.006459
v -1.131048 3.270605 1.006459
v -1.131048 3.270605 0.807458
v -1.082937 4.182371 0.807458
v -1.082937 4.182371 1.006459
v -1.330249 3.332977 1.006459
v -1.330249 3.332977 0.807458
v -1.283387 4.221056 0.807458
v -1.283387 4.221056 1.006459
v -1.526108 3.375246 1.006459
v -1.526108 3.375246 0.807458
v -1.480522 4.239143 0.807458
v -1.480522 4.239143 1.006459
v -1.727727 3.391774 1.006459
v -1.727727 3.391774 0.807458
v -1.682761 4.243926 0.807458
v -1.682761 4.243926 1.006459
v -1.927885 3.394300 1.006459
v -1.927885 3.394300 0.807458
v -1.884297 4.220337 0.807458
v -1.884297 4.220337 1.006459
v -2.128841 3.390028 1.006459
v -2.128841 3.390028 0.807458
v -2.086920 4.184482 0.807458
v -2.086920 4.184482 1.006459
v -2.324632 3.383544 1.006459
v -2.324632 3.383544 0.807458
v -2.285705 4.121258 0.807458
v -2.285705 4.121258 1.006459
v -2.527332 3.346227 1.006459
v -2.527332 3.346227 0.807458
v -2.491755 4.020435 0.807458
v -2.491755 4.020435 1.006459
v -2.731221 3.286376 0.995754
v -2.731221 3.286376 0.818163
v -2.698498 3.906505 0.818163
v -2.698498 3.906505 0.995754
v -2.936691 3.196557 0.983829
v -2.936691 3.196557 0.830089
v -2.906161 3.775134 0.830089
v -2.906161 3.775134 0.983829
v -3.142158 3.106816 0.965753
v -3.142158 3.106816 0.848164
v -3.115774 3.606811 0.848164
v -3.115774 3.606811 0.965753
v -3.346109 2.995736 0.950991
v -3.346109 2.995736 0.862926
v -3.324136 3.412140 0.862926
v -3.324136 3.412140 0.950991
v -3.456564 2.904619 0.942529
v -3.456564 2.904619 0.871388
v -3.436620 3.282596 0.871388
v -3.436620 3.282596 0.942529
v -3.555657 2.828632 0.932357
v -3.555657 2.828632 0.881560
v -3.538839 3.147345 0.881560
v -3.538839 3.147345 0.932357
v -3.663844 2.748062 0.924740
v -3.663844 2.748062 0.889177
v -3.654032 2.934008 0.889177
v -3.654032 2.934008 0.924740
v -3.715399 2.697955 0.916785
v -3.715399 2.697955 0.897133
v -3.710644 2.788063 0.895231
v -3.710644 2.788063 0.918687
v -3.743194 2.699422 0.916785
v -3.743194 2.699422 0.897133
v -3.745062 2.664024 0.910891
v -3.745062 2.664024 0.903027
v -0.209668 -3.677747 0.822965
v 0.177643 3.662225 0.804008
v -0.193488 -3.678601 0.824566
v 0.197156 3.661195 0.805973
v -0.177929 -3.679422 0.829307
v 0.215919 3.660205 0.811793
v -0.163591 -3.680179 0.837006
v 0.233210 3.659292 0.821243
v -0.151023 -3.680842 0.847366
v 0.248367 3.658493 0.833961
v -0.140708 -3.681386 0.859991
v 0.260805 3.657836 0.849459
v -0.133044 -3.681791 0.874394
v 0.270048 3.657349 0.867140
v -0.128324 -3.682040 0.890023
v 0.275739 3.657048 0.886324
v -0.126731 -3.682124 0.906276
v 0.277661 3.656947 0.906276
v -0.128324 -3.682040 0.922529
v 0.275739 3.657048 0.926227
v -0.133044 -3.681791 0.938157
v 0.270048 3.657349 0.945412
v -0.140708 -3.681386 0.952560
v 0.260805 3.657836 0.963093
v -0.151023 -3.680842 0.965185
v 0.248367 3.658493 0.978590
v -0.163591 -3.680179 0.975546
v 0.233210 3.659292 0.991308
v -0.177929 -3.679422 0.983245
v 0.215919 3.660205 1.000759
v -0.193488 -3.678601 0.987985
v 0.197156 3.661195 1.006578
v -0.209668 -3.677747 0.989586
v 0.177643 3.662225 1.008543
v -0.225848 -3.676894 0.987985
v 0.158131 3.663254 1.006578
v -0.241407 -3.676073 0.983245
v 0.139368 3.664244 1.000759
v -0.255746 -3.675316 0.975546
v 0.122076 3.665157 0.991308
v -0.268314 -3.674653 0.965185
v 0.106920 3.665956 0.978590
v -0.278628 -3.674109 0.952560
v 0.094481 3.666613 0.963093
v -0.286292 -3.673704 0.938157
v 0.085239 3.667100 0.945412
v -0.291012 -3.673455 0.922529
v 0.079547 3.667401 0.926227
v -0.292605 -3.673371 0.906276
v 0.077625 3.667502 0.906276
v -0.291012 -3.673455 0.890023
v 0.079547 3.667401 0.886324
v -0.286292 -3.673704 0.874394
v 0.085239 3.667100 0.867140
v -0.278628 -3.674109 0.859991
v 0.094481 3.666613 0.849459
v -0.268314 -3.674653 0.847366
v 0.106920 3.665956 0.833961
v -0.255746 -3.675316 0.837006
v 0.122076 3.665157 0.821243
v -0.241407 -3.676073 0.829307
v 0.139368 3.664244 0.811793
v -0.225848 -3.676894 0.824566
v 0.158131 3.663254 0.805973
vn -0.4254 -0.9050 -0.0000
vn -0.0000 -0.0000 -1.0000
vn -0.9986 0.0527 -0.0000
vn -0.0000 -0.0000 1.0000
vn 0.4886 0.8725 -0.0000
vn -0.4886 -0.8725 -0.0000
vn 0.4734 0.8809 -0.0000
vn -0.3445 -0.9388 -0.0000
vn -0.4137 -0.9104 -0.0000
vn 0.5068 0.8621 -0.0000
vn 0.4014 0.9159 -0.0000
vn -0.2515 -0.9679 -0.0000
vn -0.3031 -0.9530 -0.0000
vn 0.4127 0.9109 -0.0000
vn -0.1895 -0.9819 -0.0000
vn 0.3711 0.9286 -0.0000
vn 0.2988 0.9543 -0.0000
vn -0.0236 -0.9997 -0.0000
vn -0.0914 -0.9958 -0.0000
vn 0.2110 0.9775 -0.0000
vn 0.0126 0.9999 -0.0000
vn 0.0817 0.9967 -0.0000
vn 0.1162 -0.9932 -0.0000
vn 0.3031 -0.9530 -0.0000
vn 0.1742 -0.9847 -0.0000
vn -0.0213 0.9998 -0.0000
vn -0.0331 0.9995 -0.0000
vn 0.0533 -0.0028 0.9986
vn 0.4395 -0.8982 -0.0000
vn -0.1811 0.9835 -0.0000
vn 0.5346 -0.8451 -0.0000
vn 0.4826 -0.8758 -0.0000
vn -0.2817 0.9595 -0.0000
vn 0.0533 -0.0028 -0.9986
vn 0.0897 -0.0047 -0.9960
vn -0.4005 0.9163 -0.0000
vn 0.0593 -0.0031 -0.9982
vn 0.0593 -0.0031 0.9982
vn 0.0743 -0.0039 -0.9972
vn 0.0897 -0.0047 0.9960
vn 0.6261 -0.7797 -0.0000
vn -0.4003 0.9164 -0.0000
vn 0.7551 -0.6556 -0.0000
vn 0.0743 -0.0039 0.9972
vn 0.6827 -0.7307 -0.0000
vn -0.4783 0.8782 -0.0000
vn 0.7978 -0.6029 -0.0000
vn -0.6363 0.7714 -0.0000
vn 0.0798 -0.0042 -0.9968
vn 0.0798 -0.0042 0.9968
vn 0.0731 -0.0039 -0.9973
vn -0.6085 0.7935 -0.0000
vn 0.1064 -0.0056 -0.9943
vn 0.1064 -0.0056 0.9943
vn 0.9323 -0.3616 -0.0000
vn 0.0731 -0.0039 0.9973
vn 0.8799 -0.4751 -0.0000
vn -0.5973 0.8020 -0.0000
vn -0.6970 0.7171 -0.0000
vn 0.1228 -0.0065 -0.9924
vn 0.1396 0.0135 0.9901
vn 0.9986 -0.0527 -0.0000
vn 0.9387 -0.3447 -0.0000
vn 0.0011 0.0210 0.9998
vn 0.0086 0.1638 -0.9865
vn 0.0011 0.0210 -0.9998
vn 0.0086 0.1638 0.9865
vn -0.7529 0.6582 -0.0000
vn 0.0980 -0.0077 -0.9952
vn 0.2906 -0.0179 -0.9567
vn 0.4717 -0.0274 -0.8813
vn 0.6346 -0.0359 -0.7720
vn 0.7728 -0.0432 -0.6332
vn 0.8812 -0.0489 -0.4703
vn 0.9557 -0.0528 -0.2895
vn 0.9937 -0.0548 -0.0977
vn 0.9937 -0.0548 0.0977
vn 0.9557 -0.0528 0.2895
vn 0.8812 -0.0489 0.4703
vn 0.7728 -0.0432 0.6332
vn 0.6346 -0.0359 0.7720
vn 0.4717 -0.0274 0.8813
vn 0.2906 -0.0179 0.9567
vn 0.0980 -0.0077 0.9952
vn -0.0983 0.0026 0.9952
vn -0.2908 0.0128 0.9567
vn -0.4720 0.0224 0.8813
vn -0.6348 0.0310 0.7720
vn -0.7730 0.0384 0.6332
vn -0.8814 0.0441 0.4703
vn -0.9560 0.0481 0.2895
vn -0.9940 0.0501 0.0977
vn -0.9940 0.0501 -0.0977
vn -0.9560 0.0481 -0.2895
vn -0.8814 0.0441 -0.4703
vn -0.7730 0.0384 -0.6332
vn -0.6348 0.0310 -0.7720
vn -0.4720 0.0224 -0.8813
vn 0.0527 0.9986 -0.0000
vn -0.2908 0.0128 -0.9567
vn -0.0983 0.0026 -0.9952
vn -0.0527 -0.9986 -0.0000
vn -0.4136 -0.9104 -0.0000
vn 0.1743 -0.9847 -0.0000
vn -0.0212 0.9998 -0.0000
vn 0.1396 0.0135 -0.9901
vn 0.1228 -0.0065 0.9924
vn 0.0998 -0.0078 -0.9950
vn 0.2953 -0.0181 -0.9552
vn 0.4783 -0.0278 -0.8778
vn 0.6413 -0.0363 -0.7665
vn 0.7782 -0.0435 -0.6265
vn 0.8846 -0.0491 -0.4638
vn 0.9571 -0.0529 -0.2848
vn 0.9939 -0.0548 -0.0960
vn 0.9939 -0.0548 0.0960
vn 0.9571 -0.0529 0.2848
vn 0.8846 -0.0491 0.4638
vn 0.7782 -0.0435 0.6265
vn 0.6413 -0.0363 0.7665
vn 0.4783 -0.0278 0.8778
vn 0.2953 -0.0181 0.9552
vn 0.0998 -0.0078 0.9950
vn -0.1001 0.0027 0.9950
vn -0.2956 0.0130 0.9552
vn -0.4785 0.0227 0.8778
vn -0.6415 0.0314 0.7665
vn -0.7785 0.0387 0.6265
vn -0.8848 0.0443 0.4638
vn -0.9574 0.0482 0.2848
vn -0.9941 0.0501 0.0960
vn -0.9941 0.0501 -0.0960
vn -0.9574 0.0482 -0.2848
vn -0.8848 0.0443 -0.4638
vn -0.7785 0.0387 -0.6265
vn -0.6415 0.0314 -0.7665
vn -0.4785 0.0227 -0.8778
vn -0.2956 0.0130 -0.9552
vn -0.1001 0.0027 -0.9950
vn -0.0526 -0.9986 -0.0000
vt 0.928822 0.438512
vt 0.929310 0.510366
vt 0.929334 0.510366
vt 0.928904 0.445695
vt 0.928785 0.459943
vt 0.071029 0.458681
vt 0.929859 0.560789
vt 0.071097 0.465863
vt 0.999822 0.436726
vt 0.050306 0.446611
vt 1.000350 0.509627
vt 0.050231 0.439428
vt 0.999904 0.443909
vt 1.000354 0.509627
vt 0.000007 0.458373
vt -0.000117 0.447136
vt 0.999825 0.459204
vt 1.000878 0.560050
vt 0.000075 0.465556
vt -0.000191 0.439953
vt 0.874199 0.460512
vt 0.125601 0.458885
vt 0.874267 0.439853
vt 0.874724 0.510934
vt 0.874761 0.510934
vt 0.874347 0.446940
vt 0.875286 0.561357
vt 0.125668 0.465972
vt 0.821887 0.461056
vt 0.177899 0.459149
vt 0.821985 0.441206
vt 0.822412 0.511479
vt 0.822462 0.511479
vt 0.822063 0.448112
vt 0.822987 0.561901
vt 0.177965 0.466056
vt 0.770143 0.461595
vt 0.229628 0.459210
vt 0.770269 0.442343
vt 0.770668 0.512018
vt 0.770729 0.512017
vt 0.770347 0.449153
vt 0.229692 0.466020
vt 0.771254 0.562440
vt 0.718968 0.462128
vt 0.280788 0.459290
vt 0.719122 0.443488
vt 0.719493 0.512550
vt 0.719564 0.512550
vt 0.719197 0.450116
vt 0.720089 0.562973
vt 0.280850 0.465918
vt 0.667224 0.462666
vt 0.332515 0.459298
vt 0.667406 0.444573
vt 0.667749 0.513089
vt 0.667829 0.513088
vt 0.667479 0.451010
vt 0.668354 0.563511
vt 0.332576 0.465735
vt 0.614910 0.463211
vt 0.384810 0.459187
vt 0.615120 0.445551
vt 0.615435 0.513634
vt 0.615524 0.513633
vt 0.615191 0.451821
vt 0.384869 0.465457
vt 0.616048 0.564056
vt 0.563733 0.463744
vt 0.435967 0.458947
vt 0.563969 0.446375
vt 0.564258 0.514166
vt 0.564353 0.514165
vt 0.564038 0.452475
vt 0.436025 0.465046
vt 0.564878 0.564588
vt 0.511418 0.464288
vt 0.488259 0.458512
vt 0.511943 0.514711
vt 0.511679 0.447030
vt 0.512044 0.514710
vt 0.511748 0.453046
vt 0.488316 0.464529
vt 0.512569 0.565133
vt 0.459671 0.464827
vt 0.539982 0.457985
vt 0.459957 0.447579
vt 0.460196 0.515250
vt 0.460300 0.515249
vt 0.460023 0.453411
vt 0.540037 0.463817
vt 0.460825 0.565672
vt 0.407811 0.465367
vt 0.591817 0.457408
vt 0.408336 0.515790
vt 0.408120 0.448082
vt 0.408441 0.515788
vt 0.408184 0.453691
vt 0.591871 0.463017
vt 0.408966 0.566211
vt 0.357315 0.465892
vt 0.642289 0.456831
vt 0.357648 0.448555
vt 0.357839 0.516315
vt 0.357943 0.516314
vt 0.357707 0.453763
vt 0.642338 0.462039
vt 0.358468 0.566737
vt 0.305453 0.466432
vt 0.694123 0.456021
vt 0.305808 0.448825
vt 0.305977 0.516855
vt 0.305862 0.453585
vt 0.306076 0.516854
vt 0.694168 0.460781
vt 0.306601 0.567277
vt 0.253618 0.469684
vt 0.746038 0.455020
vt 0.254086 0.514683
vt 0.253883 0.448905
vt 0.254236 0.520106
vt 0.253933 0.453283
vt 0.254704 0.565105
vt 0.746080 0.459399
vt 0.201786 0.473246
vt 0.797962 0.453805
vt 0.201946 0.448771
vt 0.202191 0.512201
vt 0.202397 0.523668
vt 0.201992 0.452855
vt 0.798000 0.457890
vt 0.202802 0.562623
vt 0.849933 0.452571
vt 0.149970 0.478366
vt 0.149960 0.448619
vt 0.150280 0.508161
vt 0.150570 0.528788
vt 0.150000 0.452149
vt 0.849966 0.456102
vt 0.150880 0.558583
vt 0.098826 0.482639
vt 0.901195 0.451204
vt 0.099059 0.504953
vt 0.098681 0.448320
vt 0.099413 0.533062
vt 0.098714 0.451260
vt 0.901223 0.454144
vt 0.099645 0.555375
vt 0.071550 0.485067
vt 0.928537 0.450249
vt 0.071738 0.503093
vt 0.071325 0.447933
vt 0.072128 0.535490
vt 0.071355 0.450602
vt 0.072316 0.553515
vt 0.928562 0.452917
vt 0.047009 0.487901
vt 0.953165 0.449423
vt 0.046685 0.447621
vt 0.047143 0.500772
vt 0.047576 0.538323
vt 0.046710 0.449871
vt 0.953186 0.451674
vt 0.047710 0.551194
vt 0.020174 0.490110
vt 0.980059 0.448549
vt 0.020267 0.499121
vt 0.019778 0.447307
vt 0.020721 0.540533
vt 0.019793 0.448620
vt 0.980072 0.449862
vt 0.020815 0.549544
vt 0.992748 0.448039
vt 0.007556 0.492258
vt 0.007081 0.447061
vt 0.007608 0.497237
vt 0.008085 0.542198
vt 0.007103 0.447702
vt 0.992740 0.448681
vt 0.008146 0.548142
vt 0.000355 0.492332
vt 0.999946 0.447973
vt 0.055283 0.446309
vt 0.000931 0.547735
vt -0.000116 0.447145
vt 0.000407 0.497312
vt 0.050304 0.446361
vt 0.000879 0.542755
vt 0.053792 0.446575
vt 0.000369 0.493826
vt 0.051800 0.446595
vt 0.000390 0.495818
vt 0.142000 0.819295
vt 0.407792 0.570242
vt 0.000000 0.183814
vt 0.138344 0.407792
vt 0.175300 0.819295
vt 0.414176 0.537561
vt 0.178508 0.407799
vt 0.000000 0.223978
vt 0.207944 0.819901
vt 0.426699 0.506753
vt 0.217895 0.408548
vt 0.007836 0.263370
vt 0.238678 0.821088
vt 0.444880 0.479002
vt 0.254991 0.410011
vt 0.023206 0.300477
vt 0.266321 0.822811
vt 0.468020 0.455376
vt 0.288371 0.412132
vt 0.045520 0.333872
vt 0.289812 0.825005
vt 0.763955 0.831804
vt 0.495229 0.436782
vt 0.316753 0.414829
vt 0.740048 0.421272
vt 0.073920 0.362272
vt 0.791120 0.830163
vt 0.525462 0.423934
vt 0.773428 0.419289
vt 0.107315 0.384586
vt 0.821323 0.829033
vt 0.557558 0.417326
vt 0.810524 0.417920
vt 0.144422 0.399956
vt 0.853403 0.828457
vt 0.590282 0.417213
vt 0.849911 0.417219
vt 0.183814 0.407792
vt 0.886128 0.828457
vt 0.622378 0.423598
vt 0.890075 0.417213
vt 0.223978 0.407792
vt 0.918239 0.829033
vt 0.652611 0.436237
vt 0.929473 0.417902
vt 0.263370 0.399956
vt 0.948503 0.830163
vt 0.679820 0.454642
vt 0.966590 0.419259
vt 0.300477 0.384586
vt 0.434989 0.417213
vt 0.975757 0.831804
vt 0.702960 0.478108
vt 1.000000 0.421232
vt 0.407792 0.006985
vt 0.333872 0.362272
vt 0.458591 0.415019
vt 0.721140 0.505733
vt 0.436211 0.004297
vt 0.362272 0.333872
vt 0.486322 0.413296
vt 0.733663 0.536454
vt 0.469621 0.002187
vt 0.384586 0.300477
vt 0.517117 0.412109
vt 0.740048 0.569092
vt 0.506738 0.000736
vt 0.399956 0.263370
vt 0.549792 0.411503
vt 0.740048 0.602391
vt 0.546136 0.000000
vt 0.407792 0.223978
vt 0.583091 0.411503
vt 0.733663 0.635073
vt 0.586300 0.000007
vt 0.407792 0.183814
vt 0.615736 0.412109
vt 0.721140 0.665881
vt 0.625687 0.000756
vt 0.399956 0.144422
vt 0.646470 0.413296
vt 0.702960 0.693631
vt 0.662783 0.002219
vt 0.384586 0.107315
vt 0.674113 0.415019
vt 0.679820 0.717257
vt 0.696164 0.004340
vt 0.362272 0.073920
vt 0.697604 0.417213
vt 0.748452 0.414591
vt 0.652611 0.735852
vt 0.724545 0.007037
vt 0.724545 0.004059
vt 0.333872 0.045520
vt 0.775617 0.412950
vt 0.622378 0.748699
vt 0.757925 0.002076
vt 0.300477 0.023206
vt 0.805820 0.411820
vt 0.590282 0.755307
vt 0.795021 0.000707
vt 0.263370 0.007836
vt 0.837901 0.411244
vt 0.557558 0.755420
vt 0.834408 0.000006
vt 0.223978 0.000000
vt 0.870625 0.411244
vt 0.525462 0.749035
vt 0.874572 0.000000
vt 0.183814 0.000000
vt 0.902736 0.411820
vt 0.495229 0.736397
vt 0.913970 0.000689
vt 0.144422 0.007836
vt 0.933000 0.412950
vt 0.468020 0.717991
vt 0.951087 0.002046
vt 0.107315 0.023206
vt 0.027197 0.825005
vt 0.960254 0.414591
vt 0.444880 0.694525
vt 0.984497 0.004019
vt 0.000000 0.414777
vt 0.073920 0.045520
vt 0.050799 0.822811
vt 0.426699 0.666900
vt 0.028419 0.412089
vt 0.045520 0.073920
vt 0.078530 0.821088
vt 0.414176 0.636179
vt 0.023206 0.107315
vt 0.061829 0.409979
vt 0.109325 0.819901
vt 0.407792 0.603542
vt 0.007836 0.144422
vt 0.098946 0.408528
s 0
usemtl Material.004
f 4/7/1 11/25/1 2/3/1
f 3/6/2 8/19/2 7/15/2
f 8/20/3 5/10/3 7/16/3
f 6/13/4 1/1/4 5/9/4
f 7/17/5 1/2/5 3/5/5
f 4/7/6 6/14/6 8/18/6
f 11/26/4 14/31/4 10/23/4
f 1/2/7 9/21/7 3/5/7
f 4/8/2 9/22/2 12/28/2
f 2/4/4 10/23/4 1/1/4
f 16/35/8 19/41/8 15/33/8
f 12/27/9 15/33/9 11/25/9
f 10/24/10 13/29/10 9/21/10
f 12/28/2 13/30/2 16/36/2
f 20/43/2 21/46/2 24/52/2
f 14/32/11 17/37/11 13/29/11
f 16/36/2 17/38/2 20/43/2
f 15/34/4 18/39/4 14/31/4
f 24/51/12 27/57/12 23/49/12
f 19/42/4 22/47/4 18/39/4
f 20/44/13 23/49/13 19/41/13
f 18/40/14 21/45/14 17/37/14
f 28/59/15 31/65/15 27/57/15
f 22/48/16 25/53/16 21/45/16
f 24/52/2 25/54/2 28/60/2
f 23/50/4 26/55/4 22/47/4
f 32/67/2 33/70/2 36/75/2
f 26/56/17 29/61/17 25/53/17
f 28/60/2 29/62/2 32/67/2
f 27/58/4 30/63/4 26/55/4
f 36/76/18 39/81/18 35/73/18
f 31/66/4 34/71/4 30/63/4
f 32/68/19 35/73/19 31/65/19
f 30/64/20 33/69/20 29/61/20
f 38/79/21 41/85/21 37/77/21
f 34/72/22 37/77/22 33/69/22
f 33/70/2 40/83/2 36/75/2
f 35/74/4 38/80/4 34/71/4
f 41/86/2 48/99/2 44/91/2
f 37/78/2 44/91/2 40/83/2
f 38/80/4 43/90/4 42/87/4
f 40/84/23 43/89/23 39/81/23
f 48/100/24 51/105/24 47/97/24
f 42/87/4 47/98/4 46/96/4
f 44/92/25 47/97/25 43/89/25
f 42/88/26 45/93/26 41/85/26
f 49/102/2 56/115/2 52/107/2
f 46/95/27 49/101/27 45/93/27
f 45/94/2 52/107/2 48/99/2
f 46/96/4 51/106/4 50/103/4
f 54/111/28 59/122/28 58/120/28
f 50/103/4 55/113/4 54/111/4
f 52/108/29 55/114/29 51/105/29
f 50/104/30 53/109/30 49/101/30
f 60/123/31 63/129/31 59/121/31
f 56/116/32 59/121/32 55/114/32
f 54/112/33 57/117/33 53/109/33
f 53/110/34 60/124/34 56/115/34
f 61/126/35 68/139/35 64/131/35
f 58/119/36 61/125/36 57/117/36
f 57/118/37 64/131/37 60/124/37
f 58/120/38 63/130/38 62/127/38
f 65/133/39 72/147/39 68/139/39
f 62/127/40 67/138/40 66/135/40
f 64/132/41 67/137/41 63/129/41
f 62/128/42 65/134/42 61/125/42
f 72/148/43 75/153/43 71/145/43
f 66/135/44 71/146/44 70/144/44
f 68/140/45 71/145/45 67/137/45
f 66/136/46 69/141/46 65/134/46
f 76/155/47 79/161/47 75/153/47
f 70/143/48 73/149/48 69/141/48
f 69/142/49 76/156/49 72/147/49
f 70/144/50 75/154/50 74/152/50
f 77/158/51 84/171/51 80/163/51
f 74/151/52 77/157/52 73/149/52
f 73/150/53 80/163/53 76/156/53
f 74/152/54 79/162/54 78/159/54
f 84/172/55 87/177/55 83/169/55
f 78/159/56 83/170/56 82/168/56
f 80/164/57 83/169/57 79/161/57
f 78/160/58 81/165/58 77/157/58
f 82/167/59 85/174/59 81/165/59
f 81/166/60 88/179/60 84/171/60
f 82/168/61 87/178/61 86/175/61
f 90/187/62 91/189/62 92/191/62
f 88/180/63 90/188/63 87/177/63
f 86/175/64 87/178/64 90/185/64
f 89/181/65 85/174/65 91/190/65
f 89/182/66 88/179/66 85/173/66
f 92/192/67 86/176/67 90/186/67
f 92/192/68 85/174/68 86/176/68
f 4/7/1 12/27/1 11/25/1
f 3/6/2 4/8/2 8/19/2
f 8/20/3 6/12/3 5/10/3
f 6/13/4 2/4/4 1/1/4
f 7/17/5 5/11/5 1/2/5
f 4/7/6 2/3/6 6/14/6
f 11/26/4 15/34/4 14/31/4
f 1/2/7 10/24/7 9/21/7
f 4/8/2 3/6/2 9/22/2
f 2/4/4 11/26/4 10/23/4
f 16/35/8 20/44/8 19/41/8
f 12/27/103 16/35/103 15/33/103
f 10/24/10 14/32/10 13/29/10
f 12/28/2 9/22/2 13/30/2
f 20/43/2 17/38/2 21/46/2
f 14/32/11 18/40/11 17/37/11
f 16/36/2 13/30/2 17/38/2
f 15/34/4 19/42/4 18/39/4
f 24/51/12 28/59/12 27/57/12
f 19/42/4 23/50/4 22/47/4
f 20/44/13 24/51/13 23/49/13
f 18/40/14 22/48/14 21/45/14
f 28/59/15 32/68/15 31/65/15
f 22/48/16 26/56/16 25/53/16
f 24/52/2 21/46/2 25/54/2
f 23/50/4 27/58/4 26/55/4
f 32/67/2 29/62/2 33/70/2
f 26/56/17 30/64/17 29/61/17
f 28/60/2 25/54/2 29/62/2
f 27/58/4 31/66/4 30/63/4
f 36/76/18 40/84/18 39/81/18
f 31/66/4 35/74/4 34/71/4
f 32/68/19 36/76/19 35/73/19
f 30/64/20 34/72/20 33/69/20
f 38/79/21 42/88/21 41/85/21
f 34/72/22 38/79/22 37/77/22
f 33/70/2 37/78/2 40/83/2
f 35/74/4 39/82/4 38/80/4
f 41/86/2 45/94/2 48/99/2
f 37/78/2 41/86/2 44/91/2
f 38/80/4 39/82/4 43/90/4
f 40/84/23 44/92/23 43/89/23
f 48/100/24 52/108/24 51/105/24
f 42/87/4 43/90/4 47/98/4
f 44/92/104 48/100/104 47/97/104
f 42/88/105 46/95/105 45/93/105
f 49/102/2 53/110/2 56/115/2
f 46/95/27 50/104/27 49/101/27
f 45/94/2 49/102/2 52/107/2
f 46/96/4 47/98/4 51/106/4
f 54/111/28 55/113/28 59/122/28
f 50/103/4 51/106/4 55/113/4
f 52/108/29 56/116/29 55/114/29
f 50/104/30 54/112/30 53/109/30
f 60/123/31 64/132/31 63/129/31
f 56/116/32 60/123/32 59/121/32
f 54/112/33 58/119/33 57/117/33
f 53/110/34 57/118/34 60/124/34
f 61/126/35 65/133/35 68/139/35
f 58/119/36 62/128/36 61/125/36
f 57/118/37 61/126/37 64/131/37
f 58/120/38 59/122/38 63/130/38
f 65/133/39 69/142/39 72/147/39
f 62/127/40 63/130/40 67/138/40
f 64/132/41 68/140/41 67/137/41
f 62/128/42 66/136/42 65/134/42
f 72/148/43 76/155/43 75/153/43
f 66/135/44 67/138/44 71/146/44
f 68/140/45 72/148/45 71/145/45
f 66/136/46 70/143/46 69/141/46
f 76/155/47 80/164/47 79/161/47
f 70/143/48 74/151/48 73/149/48
f 69/142/49 73/150/49 76/156/49
f 70/144/50 71/146/50 75/154/50
f 77/158/51 81/166/51 84/171/51
f 74/151/52 78/160/52 77/157/52
f 73/150/53 77/158/53 80/163/53
f 74/152/54 75/154/54 79/162/54
f 84/172/55 88/180/55 87/177/55
f 78/159/56 79/162/56 83/170/56
f 80/164/57 84/172/57 83/169/57
f 78/160/58 82/167/58 81/165/58
f 82/167/59 86/176/59 85/174/59
f 81/166/106 85/173/106 88/179/106
f 82/168/107 83/170/107 87/178/107
f 90/187/62 89/183/62 91/189/62
f 88/180/63 89/184/63 90/188/63
f 92/192/68 91/190/68 85/174/68
usemtl Material.003
f 93/193/69 96/199/69 95/197/69
f 95/197/70 98/203/70 97/201/70
f 97/201/71 100/207/71 99/205/71
f 99/205/72 102/211/72 101/209/72
f 101/209/73 104/216/73 103/213/73
f 103/214/74 106/221/74 105/219/74
f 105/219/75 108/225/75 107/223/75
f 107/223/76 110/229/76 109/227/76
f 110/229/77 111/231/77 109/227/77
f 112/233/78 113/235/78 111/231/78
f 114/237/79 115/239/79 113/235/79
f 116/241/80 117/244/80 115/239/80
f 118/247/81 119/249/81 117/243/81
f 120/251/82 121/253/82 119/249/82
f 122/255/83 123/257/83 121/253/83
f 124/259/84 125/261/84 123/257/84
f 125/261/85 128/267/85 127/265/85
f 127/265/86 130/271/86 129/269/86
f 129/269/87 132/275/87 131/273/87
f 131/273/88 134/279/88 133/277/88
f 133/277/89 136/284/89 135/281/89
f 135/282/90 138/289/90 137/287/90
f 137/287/91 140/293/91 139/291/91
f 139/291/92 142/297/92 141/295/92
f 142/297/93 143/299/93 141/295/93
f 144/301/94 145/303/94 143/299/94
f 146/305/95 147/307/95 145/303/95
f 148/309/96 149/312/96 147/307/96
f 150/315/97 151/317/97 149/311/97
f 152/319/98 153/321/98 151/317/98
f 130/272/99 114/238/99 98/204/99
f 154/324/100 155/325/100 153/321/100
f 156/328/101 93/193/101 155/325/101
f 123/258/102 139/292/102 155/326/102
f 93/193/108 94/196/108 96/199/108
f 95/197/109 96/199/109 98/203/109
f 97/201/110 98/203/110 100/207/110
f 99/205/111 100/207/111 102/211/111
f 101/209/112 102/211/112 104/216/112
f 103/214/113 104/217/113 106/221/113
f 105/219/114 106/221/114 108/225/114
f 107/223/115 108/225/115 110/229/115
f 110/229/116 112/233/116 111/231/116
f 112/233/117 114/237/117 113/235/117
f 114/237/118 116/241/118 115/239/118
f 116/241/119 118/246/119 117/244/119
f 118/247/120 120/251/120 119/249/120
f 120/251/121 122/255/121 121/253/121
f 122/255/122 124/259/122 123/257/122
f 124/259/123 126/263/123 125/261/123
f 125/261/124 126/263/124 128/267/124
f 127/265/125 128/267/125 130/271/125
f 129/269/126 130/271/126 132/275/126
f 131/273/127 132/275/127 134/279/127
f 133/277/128 134/279/128 136/284/128
f 135/282/129 136/285/129 138/289/129
f 137/287/130 138/289/130 140/293/130
f 139/291/131 140/293/131 142/297/131
f 142/297/132 144/301/132 143/299/132
f 144/301/133 146/305/133 145/303/133
f 146/305/134 148/309/134 147/307/134
f 148/309/135 150/314/135 149/312/135
f 150/315/136 152/319/136 151/317/136
f 152/319/137 154/324/137 153/321/137
f 98/204/99 96/200/99 94/195/99
f 94/195/99 156/327/99 154/323/99
f 154/323/99 152/320/99 150/316/99
f 150/316/99 148/310/99 146/306/99
f 146/306/99 144/302/99 142/298/99
f 142/298/99 140/294/99 138/290/99
f 138/290/99 136/286/99 134/280/99
f 134/280/99 132/276/99 130/272/99
f 130/272/99 128/268/99 126/264/99
f 126/264/99 124/260/99 122/256/99
f 122/256/99 120/252/99 118/248/99
f 118/248/99 116/242/99 114/238/99
f 114/238/99 112/234/99 110/230/99
f 110/230/99 108/226/99 106/222/99
f 106/222/99 104/218/99 102/212/99
f 102/212/99 100/208/99 98/204/99
f 98/204/99 94/195/99 154/323/99
f 154/323/99 150/316/99 146/306/99
f 146/306/99 142/298/99 138/290/99
f 138/290/99 134/280/99 130/272/99
f 130/272/99 126/264/99 122/256/99
f 122/256/99 118/248/99 114/238/99
f 114/238/99 110/230/99 106/222/99
f 106/222/99 102/212/99 98/204/99
f 98/204/99 154/323/99 146/306/99
f 146/306/99 138/290/99 130/272/99
f 130/272/99 122/256/99 114/238/99
f 114/238/99 106/222/99 98/204/99
f 98/204/99 146/306/99 130/272/99
f 154/324/138 156/328/138 155/325/138
f 156/328/139 94/196/139 93/193/139
f 155/326/102 93/194/102 95/198/102
f 95/198/102 97/202/102 99/206/102
f 99/206/102 101/210/102 103/215/102
f 103/215/102 105/220/102 107/224/102
f 107/224/102 109/228/102 111/232/102
f 111/232/102 113/236/102 115/240/102
f 115/240/102 117/245/102 119/250/102
f 119/250/102 121/254/102 123/258/102
f 123/258/102 125/262/102 127/266/102
f 127/266/102 129/270/102 131/274/102
f 131/274/102 133/278/102 135/283/102
f 135/283/102 137/288/102 139/292/102
f 139/292/102 141/296/102 143/300/102
f 143/300/102 145/304/102 147/308/102
f 147/308/102 149/313/102 151/318/102
f 151/318/102 153/322/102 155/326/102
f 155/326/102 95/198/102 99/206/102
f 99/206/140 103/215/140 107/224/140
f 107/224/102 111/232/102 115/240/102
f 115/240/102 119/250/102 123/258/102
f 123/258/102 127/266/102 131/274/102
f 131/274/102 135/283/102 139/292/102
f 139/292/102 143/300/102 147/308/102
f 147/308/102 151/318/102 155/326/102
f 155/326/102 99/206/102 107/224/102
f 107/224/102 115/240/102 123/258/102
f 123/258/102 131/274/102 139/292/102
f 139/292/102 147/308/102 155/326/102
f 155/326/102 107/224/102 123/258/102
