# Blender 3.5.0
# www.blender.org
mtllib grim_antebrazo.mtl
o antebrazo
v 0.141542 -0.051706 0.136414
v 0.164827 -0.223996 0.100733
v -0.156324 0.141110 -0.010789
v -0.007199 0.107768 0.093426
v 0.043062 -0.185714 -0.126272
v -0.118788 -0.010348 -0.153462
v -0.312474 -0.053771 0.077653
v -0.122820 0.143440 0.060583
v -0.504803 -0.007263 0.777083
v -0.443829 -0.413786 1.024847
v -0.301468 -0.291786 0.197438
v -0.143107 -0.406638 0.326445
v -0.388959 -0.328916 1.025050
v -0.193335 -0.521155 1.160441
v -0.191285 -0.659916 1.198392
v 0.025225 -0.394183 1.069025
v -0.000075 -0.235141 0.221100
v 0.094753 -0.022211 0.856947
v 0.030196 -0.023511 0.899962
v -0.025854 -0.313747 1.059322
v 0.020569 -0.019564 0.134008
v -0.168766 0.271978 0.657432
v -0.438037 -0.011814 0.837625
v -0.175727 0.206563 0.737989
v -0.167759 -0.105761 0.290843
v -0.200861 0.020007 -0.025679
v -0.214862 0.056773 0.048174
v -0.408805 -0.162475 0.586160
v -0.367083 -0.273415 0.523397
v -0.112712 -0.283918 0.105402
v 0.003934 -0.283330 0.115362
v -0.320682 -0.435567 1.083070
v -0.296510 -0.520928 1.116348
v -0.111592 -0.482489 0.805013
v -0.027629 -0.350375 0.617510
v 0.045886 -0.192835 0.965385
v 0.014290 -0.209315 0.991647
v -0.100382 0.150136 0.333895
v -0.011699 0.066412 0.525030
v 0.049544 -0.114934 0.169287
v 0.053703 0.016094 0.119830
v -0.334496 0.118203 0.738992
v -0.289470 0.129775 0.757795
v -0.123311 -0.481024 1.131083
v -0.085903 -0.489140 1.123780
v 0.034920 -0.227464 0.678546
v 0.046633 -0.080646 0.468166
v 0.004302 -0.296844 0.218266
v 0.097796 -0.169867 0.155964
v -0.304772 -0.441087 0.736376
v -0.211337 -0.486023 0.678277
v -0.143540 -0.175645 -0.004693
v -0.236152 -0.122240 0.033883
v -0.088081 0.128429 0.049486
v -0.038601 0.073236 0.096679
v -0.337112 0.025365 0.369751
v -0.264917 0.128687 0.470951
v -0.456934 -0.208862 0.913496
v -0.435355 -0.152864 0.904224
v -0.053705 0.124529 0.766824
v -0.044570 0.080736 0.814697
v -0.256707 0.017018 0.598696
v -0.106156 0.011473 0.617337
v -0.314928 -0.152829 0.682430
v -0.068131 -0.149695 0.703472
v -0.234664 -0.292847 0.753788
v -0.137809 -0.287114 0.759011
vn -0.6716 0.7252 -0.1517
vn -0.8845 0.1320 -0.4476
vn -0.6758 0.6754 0.2952
vn -0.9180 0.3602 0.1659
vn -0.9293 -0.2836 -0.2367
vn -0.8652 -0.2746 0.4196
vn -0.9722 -0.1395 -0.1878
vn -0.6941 -0.5819 -0.4238
vn -0.1896 -0.7881 -0.5856
vn -0.2069 -0.8430 -0.4965
vn 0.1560 -0.9489 -0.2743
vn 0.3032 -0.8996 -0.3143
vn -0.0223 0.6008 0.7991
vn -0.3792 0.2430 0.8929
vn -0.0805 0.4386 0.8951
vn -0.3812 0.2386 0.8932
vn 0.0152 -0.7510 0.6602
vn 0.7280 -0.6681 -0.1538
vn 0.8195 -0.1998 0.5371
vn 0.7120 -0.6859 -0.1499
vn 0.8750 0.3611 0.3224
vn -0.2048 0.5160 0.8317
vn 0.5145 0.3501 0.7828
vn 0.4268 0.3705 0.8250
vn -0.0455 0.9990 -0.0031
vn 0.0372 0.9919 0.1217
vn 0.7658 0.6383 -0.0785
vn 0.5641 0.4720 0.6775
vn 0.7679 0.6360 -0.0765
vn 0.8563 -0.1606 0.4908
vn 0.2693 0.2100 0.9399
vn 0.0790 0.3669 0.9269
vn 0.0651 0.3159 0.9466
vn 0.0484 0.4956 0.8672
vn -0.4257 0.7371 0.5248
vn -0.3953 0.7295 0.5582
vn 0.2433 0.2592 0.9347
vn -0.1711 0.5782 0.7978
vn 0.2363 0.2629 0.9354
vn 0.9725 -0.2221 -0.0707
vn 0.9856 -0.1354 -0.1016
vn 0.6385 -0.6829 0.3550
vn 0.5894 0.0047 0.8079
vn 0.5912 -0.0862 0.8019
vn -0.6009 -0.7694 -0.2168
vn -0.4072 -0.8708 -0.2754
vn -0.4774 -0.5472 -0.6875
vn -0.6784 -0.2136 -0.7030
vn -0.6833 -0.3532 -0.6390
vn 0.3381 0.9220 -0.1888
vn -0.0941 0.3875 0.9170
vn -0.1885 0.2607 0.9468
vn -0.7101 0.6622 -0.2393
vn -0.6677 0.7155 -0.2055
vn -0.5672 0.3649 0.7383
vn -0.6232 0.3242 0.7117
vn -0.0880 0.4067 0.9093
vn 0.3372 0.7163 0.6108
vn 0.3673 0.7324 0.5734
vn -0.0631 0.0630 0.9960
vn 0.6680 -0.6044 0.4341
vn -0.8069 -0.4909 0.3285
vn 0.8623 0.3499 0.3661
vn -0.9140 0.3162 0.2543
vn 0.4968 0.7773 0.3859
vn -0.6616 0.6840 0.3073
vn -0.7502 0.3452 -0.5639
vt 0.039978 0.849854
vt 0.153137 0.849854
vt 0.153137 0.849854
vt 0.039978 0.849854
vt 0.039978 0.849854
vt 0.153137 0.849854
vt 0.153137 0.849854
vt 0.039978 0.849854
vt 0.039978 0.849854
vt 0.153137 0.849854
vt 0.153137 0.849854
vt 0.039978 0.849854
vt 0.153137 0.956482
vt 0.039978 0.956482
vt 0.039978 0.956482
vt 0.153137 0.956482
vt 0.153137 0.849854
vt 0.039978 0.849854
vt 0.039978 0.849854
vt 0.153137 0.849854
vt 0.039978 0.956482
vt 0.153137 0.956482
vt 0.153137 0.956482
vt 0.039978 0.956482
vt 0.039978 0.956482
vt 0.153137 0.956482
vt 0.142700 0.687744
vt 0.029541 0.687744
vt 0.153137 0.956482
vt 0.039978 0.956482
vt 0.142700 0.687744
vt 0.029541 0.687744
vt 0.153137 0.849854
vt 0.039978 0.849854
vt 0.039978 0.849854
vt 0.153137 0.849854
vt 0.039978 0.956482
vt 0.153137 0.956482
vt 0.153137 0.849854
vt 0.039978 0.849854
vt 0.153137 0.956482
vt 0.039978 0.956482
vt 0.029541 0.687744
vt 0.142700 0.687744
vt 0.039978 0.956482
vt 0.153137 0.956482
vt 0.029541 0.687744
vt 0.142700 0.687744
vt 0.153137 0.956482
vt 0.039978 0.956482
vt 0.039978 0.849854
vt 0.153137 0.849854
vt 0.153137 0.956482
vt 0.039978 0.956482
vt 0.142700 0.687744
vt 0.029541 0.687744
vt 0.039978 0.956482
vt 0.153137 0.956482
vt 0.029541 0.687744
vt 0.142700 0.687744
vt 0.142700 0.794434
vt 0.118628 0.888735
vt 0.089335 0.926820
vt 0.115011 0.891686
vt 0.074094 0.909822
vt 0.074730 0.913116
vt 0.116174 0.891794
vt 0.088519 0.926093
vt 0.106233 0.878261
vt 0.121811 0.893580
vt 0.070465 0.910202
vt 0.101335 0.877997
vt 0.090099 0.924507
vt 0.072988 0.911481
vt 0.119432 0.890044
vt 0.073496 0.923726
vt 0.112515 0.878682
vt 0.101800 0.878371
vt 0.089948 0.924461
vt 0.086833 0.921327
vt 0.102784 0.880723
vt 0.121294 0.891453
vt 0.071445 0.910768
vt 0.069178 0.918219
vt 0.118763 0.888117
vt 0.117305 0.894111
vt 0.073340 0.908806
vt 0.119209 0.892587
vt 0.080247 0.916621
vt 0.108024 0.877833
vt 0.080830 0.928050
vt 0.074045 0.911168
vt 0.114876 0.890397
vt 0.102256 0.877665
vt 0.090783 0.925575
vt 0.102952 0.877531
vt 0.091070 0.926406
vt 0.109120 0.728595
vt 0.106163 0.729010
vt 0.111401 0.729998
vt 0.106529 0.731082
vt 0.112490 0.733201
vt 0.108355 0.733698
s 1
usemtl Cl
f 3/5/1 7/13/2 27/63/3
f 9/17/4 7/13/2 28/64/5
f 10/19/6 7/13/2 29/65/7
f 11/21/8 5/9/9 30/66/10
f 12/23/11 5/9/9 31/67/12
f 13/25/13 10/19/6 32/68/14
f 14/29/15 10/19/6 33/69/16
f 15/33/17 12/23/11 34/70/18
f 16/35/19 12/23/11 35/71/20
f 18/39/21 19/41/22 36/72/23
f 16/35/19 19/41/22 37/73/24
f 8/15/25 22/51/26 38/74/27
f 21/49/28 22/51/26 39/75/29
f 17/37/30 1/1/31 40/76/32
f 21/49/28 1/1/31 41/77/33
f 9/17/4 23/53/34 42/78/35
f 22/51/26 23/53/34 43/79/36
f 14/30/15 15/34/17 44/80/37
f 20/46/38 15/34/17 45/81/39
f 16/36/19 17/38/30 46/82/40
f 18/40/21 17/38/30 47/83/41
f 12/24/11 2/4/42 48/84/43
f 17/38/30 2/4/42 49/85/44
f 10/20/6 11/22/8 50/86/45
f 15/34/17 11/22/8 51/87/46
f 5/10/9 11/22/8 52/88/47
f 6/12/48 11/22/8 53/89/49
f 3/6/1 8/16/25 54/90/50
f 4/8/51 8/16/25 55/91/52
f 7/14/2 9/18/4 56/92/53
f 8/16/25 9/18/4 57/93/54
f 10/20/6 13/26/13 58/94/55
f 9/18/4 13/26/13 59/95/56
f 22/52/26 24/58/57 60/96/58
f 18/40/21 24/58/57 61/97/59
f 25/61/60 24/59/57 62/98/61
f 19/43/22 24/60/57 63/99/62
f 25/61/60 23/56/34 64/100/63
f 20/47/38 19/44/22 65/101/64
f 25/61/60 13/28/13 66/102/65
f 14/32/15 20/48/38 67/103/66
f 6/11/48 7/13/2 26/62/67
f 7/13/2 3/5/1 26/62/67
f 3/5/1 6/11/48 26/62/67
f 7/13/2 8/15/25 27/63/3
f 8/15/25 3/5/1 27/63/3
f 7/13/2 10/19/6 28/64/5
f 10/19/6 9/17/4 28/64/5
f 7/13/2 11/21/8 29/65/7
f 11/21/8 10/19/6 29/65/7
f 5/9/9 12/23/11 30/66/10
f 12/23/11 11/21/8 30/66/10
f 5/9/9 2/3/42 31/67/12
f 2/3/42 12/23/11 31/67/12
f 10/19/6 14/29/15 32/68/14
f 14/29/15 13/25/13 32/68/14
f 10/19/6 15/33/17 33/69/16
f 15/33/17 14/29/15 33/69/16
f 12/23/11 16/35/19 34/70/18
f 16/35/19 15/33/17 34/70/18
f 12/23/11 17/37/30 35/71/20
f 17/37/30 16/35/19 35/71/20
f 19/41/22 16/35/19 36/72/23
f 16/35/19 18/39/21 36/72/23
f 19/41/22 20/45/38 37/73/24
f 20/45/38 16/35/19 37/73/24
f 22/51/26 21/49/28 38/74/27
f 21/49/28 8/15/25 38/74/27
f 22/51/26 18/39/21 39/75/29
f 18/39/21 21/49/28 39/75/29
f 1/1/31 21/49/28 40/76/32
f 21/49/28 17/37/30 40/76/32
f 1/1/31 4/7/51 41/77/33
f 4/7/51 21/49/28 41/77/33
f 23/53/34 22/51/26 42/78/35
f 22/51/26 9/17/4 42/78/35
f 23/53/34 24/57/57 43/79/36
f 24/57/57 22/51/26 43/79/36
f 15/34/17 20/46/38 44/80/37
f 20/46/38 14/30/15 44/80/37
f 15/34/17 16/36/19 45/81/39
f 16/36/19 20/46/38 45/81/39
f 17/38/30 18/40/21 46/82/40
f 18/40/21 16/36/19 46/82/40
f 17/38/30 21/50/28 47/83/41
f 21/50/28 18/40/21 47/83/41
f 2/4/42 17/38/30 48/84/43
f 17/38/30 12/24/11 48/84/43
f 2/4/42 1/2/31 49/85/44
f 1/2/31 17/38/30 49/85/44
f 11/22/8 15/34/17 50/86/45
f 15/34/17 10/20/6 50/86/45
f 11/22/8 12/24/11 51/87/46
f 12/24/11 15/34/17 51/87/46
f 11/22/8 6/12/48 52/88/47
f 6/12/48 5/10/9 52/88/47
f 11/22/8 7/14/2 53/89/49
f 7/14/2 6/12/48 53/89/49
f 8/16/25 4/8/51 54/90/50
f 4/8/51 3/6/1 54/90/50
f 8/16/25 21/50/28 55/91/52
f 21/50/28 4/8/51 55/91/52
f 9/18/4 8/16/25 56/92/53
f 8/16/25 7/14/2 56/92/53
f 9/18/4 22/52/26 57/93/54
f 22/52/26 8/16/25 57/93/54
f 13/26/13 9/18/4 58/94/55
f 9/18/4 10/20/6 58/94/55
f 13/26/13 23/54/34 59/95/56
f 23/54/34 9/18/4 59/95/56
f 24/58/57 18/40/21 60/96/58
f 18/40/21 22/52/26 60/96/58
f 24/58/57 19/42/22 61/97/59
f 19/42/22 18/40/21 61/97/59
f 24/59/57 23/55/34 62/98/61
f 23/55/34 25/61/60 62/98/61
f 24/60/57 25/61/60 63/99/62
f 25/61/60 19/43/22 63/99/62
f 23/56/34 13/27/13 64/100/63
f 13/27/13 25/61/60 64/100/63
f 19/44/22 25/61/60 65/101/64
f 25/61/60 20/47/38 65/101/64
f 13/28/13 14/31/15 66/102/65
f 14/31/15 25/61/60 66/102/65
f 20/48/38 25/61/60 67/103/66
f 25/61/60 14/32/15 67/103/66
