# This file uses centimeters as units for non-parametric coordinates.

mtllib Lamp.mtl
g default
v 0.224416 0.313785 -0.012930
v 0.119519 0.298301 0.182243
v -0.009486 0.183649 -0.148966
v -0.114384 0.168164 0.046206
v -0.009486 0.183649 -0.148966
v -0.114384 0.168164 0.046206
v -0.101094 0.383219 -0.182374
v -0.205992 0.367735 0.012799
v -0.101094 0.383219 -0.182374
v -0.205992 0.367735 0.012799
v 0.132810 0.513357 -0.046338
v 0.027911 0.497873 0.148834
v 0.027911 0.497873 0.148834
v -0.205992 0.367735 0.012799
v 0.119519 0.298301 0.182243
v -0.114384 0.168164 0.046206
v -0.101094 0.383219 -0.182374
v 0.132810 0.513357 -0.046338
v -0.009486 0.183649 -0.148966
v 0.224416 0.313785 -0.012930
v 0.037079 0.522626 0.172663
v 0.156030 0.540186 -0.048659
v 0.014197 0.509897 0.159350
v 0.133148 0.527452 -0.061962
v 0.014197 0.509897 0.159350
v 0.133148 0.527452 -0.061962
v 0.118078 0.283590 0.197233
v 0.237029 0.301149 -0.024089
v 0.118078 0.283590 0.197233
v 0.237029 0.301149 -0.024089
v 0.140959 0.296321 0.210535
v 0.259910 0.313876 -0.010776
v 0.259910 0.313876 -0.010776
v 0.237029 0.301149 -0.024089
v 0.156030 0.540186 -0.048659
v 0.133148 0.527452 -0.061962
v 0.118078 0.283590 0.197233
v 0.140959 0.296321 0.210535
v 0.014197 0.509897 0.159350
v 0.037079 0.522626 0.172663
v -0.014764 0.409086 0.117268
v -0.025725 0.407468 0.137662
v 0.029475 0.312707 0.133403
v 0.018514 0.311089 0.153798
v 0.029475 0.312707 0.133403
v 0.018514 0.311089 0.153798
v -0.054086 0.266218 0.084800
v -0.065047 0.264600 0.105194
v -0.054086 0.266218 0.084800
v -0.065047 0.264600 0.105194
v -0.098326 0.362592 0.068676
v -0.109287 0.360974 0.089070
v -0.098326 0.362592 0.068676
v -0.109287 0.360974 0.089070
v -0.014764 0.409086 0.117268
v -0.025725 0.407468 0.137662
v -0.025725 0.407468 0.137662
v -0.109287 0.360974 0.089070
v 0.018514 0.311089 0.153798
v -0.065047 0.264600 0.105194
v 0.088815 0.424376 -0.075453
v 0.133055 0.327997 -0.059317
v 0.099777 0.425993 -0.095846
v 0.144016 0.329615 -0.079711
v 0.133055 0.327997 -0.059317
v 0.049494 0.281508 -0.107920
v 0.144016 0.329615 -0.079711
v 0.060455 0.283126 -0.128314
v 0.049494 0.281508 -0.107920
v 0.005254 0.377882 -0.124044
v 0.060455 0.283126 -0.128314
v 0.016215 0.379500 -0.144438
v 0.005254 0.377882 -0.124044
v 0.088815 0.424376 -0.075453
v 0.016215 0.379500 -0.144438
v 0.099777 0.425993 -0.095846
v 0.099777 0.425993 -0.095846
v 0.144016 0.329615 -0.079711
v 0.016215 0.379500 -0.144438
v 0.060455 0.283126 -0.128314
v 0.086147 0.326168 -0.169381
v -0.087732 0.300500 0.154139
v 0.075361 0.379889 -0.170909
v -0.098517 0.354226 0.152601
v 0.075361 0.379889 -0.170909
v -0.098517 0.354226 0.152601
v 0.122462 0.390094 -0.144792
v -0.051417 0.364427 0.178729
v 0.122462 0.390094 -0.144792
v -0.051417 0.364427 0.178729
v 0.133247 0.336368 -0.143253
v -0.040632 0.310701 0.180268
v 0.133247 0.336368 -0.143253
v -0.040632 0.310701 0.180268
v 0.086147 0.326168 -0.169381
v -0.087732 0.300500 0.154139
v -0.087732 0.300500 0.154139
v -0.040632 0.310701 0.180268
v -0.098517 0.354226 0.152601
v -0.051417 0.364427 0.178729
v 0.133247 0.336368 -0.143253
v 0.086147 0.326168 -0.169381
v 0.122462 0.390094 -0.144792
v 0.075361 0.379889 -0.170909
v 0.093925 0.325432 -0.114098
v 0.093939 0.116478 -0.114088
v 0.115640 0.325433 -0.120772
v 0.115655 0.100663 -0.120761
v -0.035425 0.116481 0.139541
v -0.035439 0.325434 0.139531
v -0.028082 0.100665 0.161041
v -0.028097 0.325436 0.161031
v 0.093940 0.116476 -0.114088
v -0.035425 0.116482 0.139541
v 0.115655 0.100664 -0.120761
v -0.028081 0.100664 0.161041
v 0.115640 0.325433 -0.120772
v 0.115655 0.100663 -0.120761
v 0.108299 0.325432 -0.142271
v 0.108316 0.084843 -0.142259
v -0.028082 0.100665 0.161041
v -0.028097 0.325437 0.161031
v -0.049796 0.084847 0.167728
v -0.049812 0.325434 0.167717
v 0.115655 0.100663 -0.120761
v -0.028082 0.100665 0.161041
v 0.108316 0.084843 -0.142259
v -0.049796 0.084847 0.167728
v 0.108299 0.325432 -0.142271
v 0.108316 0.084843 -0.142259
v 0.086582 0.325431 -0.135598
v 0.086597 0.100660 -0.135588
v -0.049796 0.084847 0.167728
v -0.049812 0.325434 0.167717
v -0.057138 0.100661 0.146216
v -0.057155 0.325434 0.146205
v 0.108316 0.084843 -0.142259
v -0.049796 0.084847 0.167728
v 0.086597 0.100660 -0.135588
v -0.057138 0.100661 0.146216
v 0.086582 0.325431 -0.135598
v 0.086597 0.100660 -0.135588
v 0.093925 0.325432 -0.114098
v 0.093939 0.116478 -0.114088
v -0.057139 0.100661 0.146215
v -0.057155 0.325433 0.146204
v -0.035425 0.116482 0.139541
v -0.035440 0.325436 0.139531
v 0.086597 0.100660 -0.135588
v -0.057138 0.100661 0.146216
v 0.093939 0.116478 -0.114088
v -0.035425 0.116482 0.139541
v 0.064345 0.134667 0.030628
v 0.011359 0.134665 0.047822
v 0.064354 -0.006858 0.030634
v 0.011369 -0.006862 0.047828
v 0.047163 -0.006862 -0.022352
v -0.005823 -0.006865 -0.005158
v 0.047153 0.134665 -0.022359
v -0.005831 0.134660 -0.005164
v 0.047153 0.134664 -0.022358
v -0.005832 0.134661 -0.005164
v 0.064345 0.134666 0.030629
v 0.011359 0.134665 0.047822
v 0.011359 0.134665 0.047822
v -0.005831 0.134660 -0.005164
v 0.011369 -0.006862 0.047828
v -0.005823 -0.006865 -0.005158
v 0.047153 0.134665 -0.022359
v 0.064345 0.134667 0.030628
v 0.047163 -0.006862 -0.022352
v 0.064354 -0.006858 0.030634
vt 0.373175 0.829908
vt 0.373251 0.623056
vt 0.740032 0.829923
vt 0.740032 0.623072
vt 0.949676 0.622904
vt 0.740032 0.623072
vt 0.949676 0.416602
vt 0.740032 0.416220
vt 0.740032 0.209384
vt 0.740032 0.416220
vt 0.373175 0.209400
vt 0.373251 0.416236
vt 0.373251 0.416236
vt 0.740032 0.416220
vt 0.373251 0.623056
vt 0.740032 0.623072
vt 0.740032 0.209384
vt 0.373175 0.209400
vt 0.740032 0.005066
vt 0.373175 0.005051
vt 0.312993 0.303929
vt 0.064363 0.303929
vt 0.312993 0.259541
vt 0.064363 0.259541
vt 0.312993 0.259541
vt 0.064363 0.259541
vt 0.312993 0.010910
vt 0.064363 0.010895
vt 0.312993 0.603998
vt 0.064363 0.603998
vt 0.312993 0.558999
vt 0.064363 0.558999
vt 0.064363 0.558999
vt 0.022919 0.558999
vt 0.064363 0.303929
vt 0.022919 0.303929
vt 0.354436 0.558999
vt 0.312993 0.558999
vt 0.354436 0.303929
vt 0.312993 0.303929
vt 0.941176 0.369970
vt 0.914946 0.369970
vt 0.941176 0.238773
vt 0.914946 0.238773
vt 0.914946 0.212543
vt 0.914946 0.238773
vt 0.783749 0.212543
vt 0.783749 0.238773
vt 0.757519 0.238773
vt 0.783749 0.238773
vt 0.757519 0.369970
vt 0.783749 0.369970
vt 0.783749 0.396201
vt 0.783749 0.369970
vt 0.914946 0.396201
vt 0.914946 0.369970
vt 0.914946 0.369970
vt 0.783749 0.369970
vt 0.914946 0.238773
vt 0.783749 0.238773
vt 0.782696 0.009812
vt 0.913878 0.009812
vt 0.782696 0.036042
vt 0.913878 0.036042
vt 0.940124 0.036042
vt 0.940124 0.167224
vt 0.913878 0.036042
vt 0.913878 0.167224
vt 0.913878 0.193469
vt 0.782696 0.193469
vt 0.913878 0.167224
vt 0.782696 0.167224
vt 0.756451 0.167224
vt 0.756451 0.036042
vt 0.782696 0.167224
vt 0.782696 0.036042
vt 0.782696 0.036042
vt 0.913878 0.036042
vt 0.782696 0.167224
vt 0.913878 0.167224
vt 0.772244 0.936996
vt 0.772244 0.679545
vt 0.812131 0.936996
vt 0.812131 0.679545
vt 0.812131 0.936996
vt 0.812131 0.679545
vt 0.852018 0.936996
vt 0.852018 0.679545
vt 0.852018 0.936996
vt 0.852018 0.679545
vt 0.891905 0.936996
vt 0.891905 0.679545
vt 0.891905 0.936996
vt 0.891905 0.679545
vt 0.931808 0.936996
vt 0.931808 0.679545
vt 0.772244 0.679545
vt 0.772244 0.636500
vt 0.812131 0.679545
vt 0.812131 0.636500
vt 0.772244 0.980667
vt 0.772244 0.936996
vt 0.812131 0.980667
vt 0.812131 0.936996
vt 0.734432 0.981964
vt 0.517143 0.981964
vt 0.734432 0.949599
vt 0.517143 0.949599
vt 0.251469 0.981964
vt 0.030060 0.981964
vt 0.251469 0.949599
vt 0.030060 0.949599
vt 0.517143 0.981964
vt 0.251469 0.981964
vt 0.517143 0.949599
vt 0.251469 0.949599
vt 0.734432 0.949599
vt 0.517143 0.949599
vt 0.734432 0.917220
vt 0.517143 0.917220
vt 0.251469 0.949599
vt 0.030060 0.949599
vt 0.251469 0.917220
vt 0.030060 0.917220
vt 0.517143 0.949599
vt 0.251469 0.949599
vt 0.517143 0.917220
vt 0.251469 0.917220
vt 0.734432 0.917220
vt 0.517143 0.917220
vt 0.734432 0.884855
vt 0.517143 0.884855
vt 0.251469 0.917220
vt 0.030060 0.917220
vt 0.251469 0.884855
vt 0.030060 0.884855
vt 0.517143 0.917220
vt 0.251469 0.917220
vt 0.517143 0.884855
vt 0.251469 0.884855
vt 0.734432 0.884855
vt 0.517143 0.884855
vt 0.734432 0.852476
vt 0.517143 0.852476
vt 0.251469 0.884855
vt 0.030060 0.884855
vt 0.251469 0.852476
vt 0.030060 0.852476
vt 0.517143 0.884855
vt 0.251469 0.884855
vt 0.517143 0.852476
vt 0.251469 0.852476
vt 0.139269 0.674739
vt 0.194385 0.674739
vt 0.139269 0.836789
vt 0.194385 0.836789
vt 0.303533 0.836789
vt 0.250126 0.836789
vt 0.303533 0.674739
vt 0.250126 0.674739
vt 0.303533 0.674739
vt 0.250126 0.674739
vt 0.303533 0.620157
vt 0.250126 0.620157
vt 0.194385 0.674739
vt 0.250126 0.674739
vt 0.194385 0.836789
vt 0.250126 0.836789
vt 0.086961 0.674739
vt 0.139269 0.674739
vt 0.086961 0.836789
vt 0.139269 0.836789
vn 0.412430 -0.898491 0.150384
vn 0.412430 -0.898491 0.150384
vn 0.412430 -0.898491 0.150384
vn 0.412430 -0.898491 0.150384
vn 0.412430 -0.898491 0.150383
vn 0.412430 -0.898491 0.150384
vn -0.779013 -0.433429 -0.453077
vn -0.779013 -0.433429 -0.453077
vn -0.779013 -0.433429 -0.453077
vn -0.779013 -0.433429 -0.453077
vn -0.779013 -0.433429 -0.453077
vn -0.779013 -0.433429 -0.453077
vn -0.412434 0.898489 -0.150386
vn -0.412434 0.898489 -0.150386
vn -0.412434 0.898489 -0.150386
vn -0.412434 0.898489 -0.150386
vn -0.412434 0.898489 -0.150386
vn -0.412434 0.898489 -0.150386
vn -0.472268 -0.069685 0.878696
vn -0.472269 -0.069689 0.878695
vn -0.472269 -0.069688 0.878695
vn -0.472269 -0.069689 0.878695
vn -0.472270 -0.069692 0.878695
vn -0.472269 -0.069688 0.878695
vn 0.472266 0.069690 -0.878697
vn 0.472270 0.069688 -0.878695
vn 0.472268 0.069690 -0.878696
vn 0.472270 0.069688 -0.878695
vn 0.472272 0.069687 -0.878694
vn 0.472268 0.069690 -0.878696
vn -0.412377 0.898521 -0.150348
vn -0.412498 0.898450 -0.150444
vn -0.412388 0.898515 -0.150356
vn -0.412498 0.898450 -0.150444
vn -0.412508 0.898444 -0.150452
vn -0.412388 0.898515 -0.150356
vn -0.779007 -0.433430 -0.453085
vn -0.779013 -0.433425 -0.453081
vn -0.779013 -0.433425 -0.453081
vn -0.779013 -0.433425 -0.453081
vn -0.779019 -0.433419 -0.453076
vn -0.779013 -0.433425 -0.453081
vn 0.412490 -0.898459 0.150413
vn 0.412349 -0.898533 0.150355
vn 0.412478 -0.898465 0.150409
vn 0.412349 -0.898533 0.150355
vn 0.412338 -0.898539 0.150350
vn 0.412478 -0.898465 0.150409
vn 0.472414 0.069766 -0.878611
vn 0.472391 0.069758 -0.878624
vn 0.472137 0.069659 -0.878768
vn 0.472391 0.069758 -0.878624
vn 0.472115 0.069650 -0.878781
vn 0.472137 0.069659 -0.878768
vn -0.472130 -0.069611 0.878776
vn -0.472149 -0.069626 0.878765
vn -0.472376 -0.069790 0.878630
vn -0.472149 -0.069626 0.878765
vn -0.472396 -0.069804 0.878618
vn -0.472376 -0.069790 0.878630
vn 0.779012 0.433428 0.453079
vn 0.779013 0.433429 0.453076
vn 0.779019 0.433432 0.453064
vn 0.779013 0.433429 0.453076
vn 0.779020 0.433432 0.453062
vn 0.779019 0.433432 0.453064
vn 0.412421 -0.898500 0.150356
vn 0.412421 -0.898499 0.150359
vn 0.412408 -0.898503 0.150372
vn 0.412421 -0.898499 0.150359
vn 0.412406 -0.898504 0.150375
vn 0.412408 -0.898503 0.150372
vn -0.779020 -0.433411 -0.453082
vn -0.779020 -0.433411 -0.453082
vn -0.779021 -0.433410 -0.453081
vn -0.779020 -0.433411 -0.453082
vn -0.779021 -0.433410 -0.453081
vn -0.779021 -0.433410 -0.453081
vn -0.412453 0.898477 -0.150402
vn -0.412453 0.898477 -0.150402
vn -0.412456 0.898476 -0.150403
vn -0.412453 0.898477 -0.150402
vn -0.412456 0.898476 -0.150403
vn -0.412456 0.898476 -0.150403
vn -0.472233 -0.069636 0.878719
vn -0.472254 -0.069709 0.878702
vn -0.472254 -0.069709 0.878702
vn -0.472254 -0.069709 0.878702
vn -0.472273 -0.069781 0.878686
vn -0.472254 -0.069709 0.878702
vn 0.779011 0.433428 0.453081
vn 0.779012 0.433427 0.453080
vn 0.779011 0.433428 0.453081
vn 0.779012 0.433427 0.453080
vn 0.779013 0.433426 0.453079
vn 0.779011 0.433428 0.453081
vn 0.412410 -0.898501 0.150380
vn 0.412409 -0.898501 0.150381
vn 0.412410 -0.898501 0.150380
vn 0.412409 -0.898501 0.150381
vn 0.412409 -0.898501 0.150381
vn 0.412410 -0.898501 0.150380
vn -0.779019 -0.433409 -0.453085
vn -0.779020 -0.433411 -0.453082
vn -0.779020 -0.433409 -0.453084
vn -0.779020 -0.433411 -0.453082
vn -0.779020 -0.433411 -0.453082
vn -0.779020 -0.433409 -0.453084
vn -0.412455 0.898477 -0.150402
vn -0.412455 0.898477 -0.150402
vn -0.412455 0.898477 -0.150402
vn -0.412455 0.898477 -0.150402
vn -0.412455 0.898477 -0.150402
vn -0.412455 0.898477 -0.150402
vn 0.472227 0.069647 -0.878721
vn 0.472246 0.069713 -0.878706
vn 0.472246 0.069713 -0.878706
vn 0.472246 0.069713 -0.878706
vn 0.472264 0.069778 -0.878691
vn 0.472246 0.069713 -0.878706
vn -0.859229 -0.186053 -0.476561
vn -0.859212 -0.186119 -0.476566
vn -0.859227 -0.186060 -0.476562
vn -0.859212 -0.186119 -0.476566
vn -0.859209 -0.186126 -0.476568
vn -0.859227 -0.186060 -0.476562
vn -0.196794 0.980044 -0.028028
vn -0.196734 0.980058 -0.027983
vn -0.196788 0.980045 -0.028024
vn -0.196734 0.980058 -0.027983
vn -0.196729 0.980059 -0.027979
vn -0.196788 0.980045 -0.028024
vn 0.859213 0.186132 0.476559
vn 0.859215 0.186128 0.476557
vn 0.859213 0.186131 0.476559
vn 0.859215 0.186128 0.476557
vn 0.859215 0.186128 0.476556
vn 0.859213 0.186131 0.476559
vn 0.196729 -0.980059 0.027979
vn 0.196733 -0.980058 0.027979
vn 0.196729 -0.980059 0.027979
vn 0.196733 -0.980058 0.027979
vn 0.196733 -0.980058 0.027979
vn 0.196729 -0.980059 0.027979
vn -0.472341 -0.069655 0.878659
vn -0.472340 -0.069656 0.878660
vn -0.472340 -0.069656 0.878660
vn -0.472340 -0.069656 0.878660
vn -0.472340 -0.069656 0.878660
vn -0.472340 -0.069656 0.878660
vn 0.472339 0.069657 -0.878660
vn 0.472238 0.069732 -0.878709
vn 0.472238 0.069732 -0.878709
vn 0.472238 0.069732 -0.878709
vn 0.472137 0.069808 -0.878757
vn 0.472238 0.069732 -0.878709
vn 0.180583 -0.440794 0.879256
vn 0.180582 -0.440794 0.879256
vn 0.180583 -0.440794 0.879256
vn 0.180582 -0.440794 0.879256
vn 0.180582 -0.440794 0.879256
vn 0.180583 -0.440794 0.879256
vn 0.858847 -0.340794 -0.382414
vn 0.858850 -0.340796 -0.382407
vn 0.858848 -0.340794 -0.382413
vn 0.858850 -0.340796 -0.382407
vn 0.858850 -0.340796 -0.382407
vn 0.858848 -0.340794 -0.382413
vn 0.856081 0.201207 0.476068
vn 0.856099 0.201099 0.476082
vn 0.856083 0.201197 0.476069
vn 0.856099 0.201099 0.476082
vn 0.856100 0.201095 0.476082
vn 0.856083 0.201197 0.476069
vn 0.858849 -0.340796 -0.382408
vn 0.858847 -0.340794 -0.382414
vn 0.858849 -0.340796 -0.382408
vn 0.858847 -0.340794 -0.382414
vn 0.858848 -0.340793 -0.382414
vn 0.858849 -0.340796 -0.382408
vn 0.181033 -0.440978 0.879071
vn 0.181032 -0.440978 0.879071
vn 0.181033 -0.440978 0.879071
vn 0.181032 -0.440978 0.879071
vn 0.181032 -0.440978 0.879071
vn 0.181033 -0.440978 0.879071
vn 0.183569 -0.982789 0.020696
vn 0.183640 -0.982775 0.020726
vn 0.183574 -0.982788 0.020698
vn 0.183640 -0.982775 0.020726
vn 0.183642 -0.982775 0.020726
vn 0.183574 -0.982788 0.020698
vn -0.180582 0.440793 -0.879256
vn -0.180582 0.440794 -0.879256
vn -0.180582 0.440793 -0.879256
vn -0.180582 0.440794 -0.879256
vn -0.180582 0.440794 -0.879256
vn -0.180582 0.440793 -0.879256
vn -0.858878 0.340858 0.382289
vn -0.858878 0.340858 0.382288
vn -0.858878 0.340858 0.382289
vn -0.858878 0.340858 0.382288
vn -0.858878 0.340858 0.382288
vn -0.858878 0.340858 0.382289
vn -0.856084 -0.201196 -0.476068
vn -0.856063 -0.201269 -0.476074
vn -0.856083 -0.201198 -0.476068
vn -0.856063 -0.201269 -0.476074
vn -0.856062 -0.201275 -0.476074
vn -0.856083 -0.201198 -0.476068
vn -0.858849 0.340793 0.382412
vn -0.858849 0.340794 0.382411
vn -0.858849 0.340793 0.382412
vn -0.858849 0.340794 0.382411
vn -0.858849 0.340794 0.382411
vn -0.858849 0.340793 0.382412
vn -0.180582 0.440793 -0.879256
vn -0.180582 0.440793 -0.879256
vn -0.180582 0.440793 -0.879256
vn -0.180582 0.440793 -0.879256
vn -0.180581 0.440793 -0.879257
vn -0.180582 0.440793 -0.879256
vn -0.183567 0.982789 -0.020696
vn -0.183482 0.982806 -0.020637
vn -0.183563 0.982790 -0.020693
vn -0.183482 0.982806 -0.020637
vn -0.183474 0.982808 -0.020632
vn -0.183563 0.982790 -0.020693
vn 0.194076 -0.446281 0.873595
vn 0.194076 -0.446281 0.873595
vn 0.194076 -0.446281 0.873595
vn 0.194076 -0.446281 0.873595
vn 0.194076 -0.446281 0.873595
vn 0.194076 -0.446281 0.873595
vn -0.194075 0.446281 -0.873595
vn -0.194075 0.446281 -0.873595
vn -0.194075 0.446281 -0.873595
vn -0.194075 0.446281 -0.873595
vn -0.194075 0.446281 -0.873595
vn -0.194075 0.446281 -0.873595
vn 0.468434 0.824599 0.317185
vn 0.468434 0.824599 0.317185
vn 0.468434 0.824599 0.317185
vn 0.468434 0.824599 0.317185
vn 0.468434 0.824599 0.317185
vn 0.468434 0.824599 0.317185
vn -0.861927 0.347681 0.369052
vn -0.861927 0.347681 0.369052
vn -0.861927 0.347681 0.369052
vn -0.861927 0.347681 0.369052
vn -0.861927 0.347681 0.369052
vn -0.861927 0.347681 0.369052
vn 0.861928 -0.347682 -0.369050
vn 0.861928 -0.347682 -0.369050
vn 0.861927 -0.347682 -0.369052
vn 0.861928 -0.347682 -0.369050
vn 0.861927 -0.347682 -0.369052
vn 0.861927 -0.347682 -0.369052
s off
g polySurface2 Lamp:polySurface8362852__tc_spotlight_blue1
usemtl Lamp:lambert2SG
f 1/1/1 2/2/2 3/3/3
f 2/2/4 4/4/5 3/3/6
f 5/5/7 6/6/8 7/7/9
f 6/6/10 8/8/11 7/7/12
f 9/9/13 10/10/14 11/11/15
f 10/10/16 12/12/17 11/11/18
f 13/13/19 14/14/20 15/15/21
f 14/14/22 16/16/23 15/15/24
f 17/17/25 18/18/26 19/19/27
f 18/18/28 20/20/29 19/19/30
f 21/21/31 22/22/32 23/23/33
f 22/22/34 24/24/35 23/23/36
f 25/25/37 26/26/38 27/27/39
f 26/26/40 28/28/41 27/27/42
f 29/29/43 30/30/44 31/31/45
f 30/30/46 32/32/47 31/31/48
f 33/33/49 34/34/50 35/35/51
f 34/34/52 36/36/53 35/35/54
f 37/37/55 38/38/56 39/39/57
f 38/38/58 40/40/59 39/39/60
f 41/41/61 42/42/62 43/43/63
f 42/42/64 44/44/65 43/43/66
f 45/45/67 46/46/68 47/47/69
f 46/46/70 48/48/71 47/47/72
f 49/49/73 50/50/74 51/51/75
f 50/50/76 52/52/77 51/51/78
f 53/53/79 54/54/80 55/55/81
f 54/54/82 56/56/83 55/55/84
f 57/57/85 58/58/86 59/59/87
f 58/58/88 60/60/89 59/59/90
f 61/61/91 62/62/92 63/63/93
f 62/62/94 64/64/95 63/63/96
f 65/65/97 66/66/98 67/67/99
f 66/66/100 68/68/101 67/67/102
f 69/69/103 70/70/104 71/71/105
f 70/70/106 72/72/107 71/71/108
f 73/73/109 74/74/110 75/75/111
f 74/74/112 76/76/113 75/75/114
f 77/77/115 78/78/116 79/79/117
f 78/78/118 80/80/119 79/79/120
f 81/81/121 82/82/122 83/83/123
f 82/82/124 84/84/125 83/83/126
f 85/85/127 86/86/128 87/87/129
f 86/86/130 88/88/131 87/87/132
f 89/89/133 90/90/134 91/91/135
f 90/90/136 92/92/137 91/91/138
f 93/93/139 94/94/140 95/95/141
f 94/94/142 96/96/143 95/95/144
f 97/97/145 98/98/146 99/99/147
f 98/98/148 100/100/149 99/99/150
f 101/101/151 102/102/152 103/103/153
f 102/102/154 104/104/155 103/103/156
f 105/105/157 106/106/158 107/107/159
f 106/106/160 108/108/161 107/107/162
f 109/109/163 110/110/164 111/111/165
f 110/110/166 112/112/167 111/111/168
f 113/113/169 114/114/170 115/115/171
f 114/114/172 116/116/173 115/115/174
f 117/117/175 118/118/176 119/119/177
f 118/118/178 120/120/179 119/119/180
f 121/121/181 122/122/182 123/123/183
f 122/122/184 124/124/185 123/123/186
f 125/125/187 126/126/188 127/127/189
f 126/126/190 128/128/191 127/127/192
f 129/129/193 130/130/194 131/131/195
f 130/130/196 132/132/197 131/131/198
f 133/133/199 134/134/200 135/135/201
f 134/134/202 136/136/203 135/135/204
f 137/137/205 138/138/206 139/139/207
f 138/138/208 140/140/209 139/139/210
f 141/141/211 142/142/212 143/143/213
f 142/142/214 144/144/215 143/143/216
f 145/145/217 146/146/218 147/147/219
f 146/146/220 148/148/221 147/147/222
f 149/149/223 150/150/224 151/151/225
f 150/150/226 152/152/227 151/151/228
f 153/153/229 154/154/230 155/155/231
f 154/154/232 156/156/233 155/155/234
f 157/157/235 158/158/236 159/159/237
f 158/158/238 160/160/239 159/159/240
f 161/161/241 162/162/242 163/163/243
f 162/162/244 164/164/245 163/163/246
f 165/165/247 166/166/248 167/167/249
f 166/166/250 168/168/251 167/167/252
f 169/169/253 170/170/254 171/171/255
f 170/170/256 172/172/257 171/171/258
