# This file uses centimeters as units for non-parametric coordinates.

mtllib Marco.mtl
g default
v -0.489537 0.489537 0.000000
v -0.489537 -0.489537 0.000000
v 0.489537 -0.489537 0.000000
v 0.489537 0.489537 0.000000
v -0.543930 0.543930 0.076923
v -0.543930 -0.543930 0.076923
v 0.543930 -0.543930 0.076923
v 0.543930 0.543930 0.076923
v -0.598323 0.598324 -0.000000
v -0.598323 -0.598323 -0.000000
v 0.598323 -0.598323 -0.000000
v 0.598323 0.598323 -0.000000
v -0.543930 0.543930 -0.076923
v -0.543930 -0.543930 -0.076923
v 0.543930 -0.543930 -0.076923
v 0.543930 0.543930 -0.076923
vt 0.480901 0.092539
vt 0.480901 0.907461
vt 0.416875 0.952735
vt 0.416875 0.047265
vt 0.544928 0.047265
vt 0.544928 0.952735
vt 0.480901 0.907461
vt 0.416875 0.952734
vt 0.480901 0.998008
vt 0.480901 0.001992
vt 0.480901 0.092539
vt 0.416875 0.047265
vt 0.480901 0.998008
vt 0.480901 0.001992
vt 0.544928 0.047265
vt 0.544928 0.952734
vt 0.616391 0.001992
vt 0.616391 0.998008
vt 0.552365 0.952735
vt 0.552365 0.047265
vt 0.552365 0.952734
vt 0.552365 0.047265
vt 0.616391 0.907461
vt 0.616391 0.092539
vt 0.064831 0.092539
vt 0.064831 0.907461
vt 0.000805 0.952735
vt 0.000805 0.047265
vt 0.128857 0.047265
vt 0.128857 0.952735
vt 0.064831 0.998008
vt 0.064831 0.001992
vt 0.199201 0.907461
vt 0.199201 0.092539
vt 0.263227 0.047266
vt 0.263227 0.952734
vt 0.135175 0.952734
vt 0.135175 0.047266
vt 0.199201 0.001992
vt 0.199201 0.998008
vt 0.333387 0.001992
vt 0.333387 0.998008
vt 0.269361 0.952735
vt 0.269361 0.047266
vt 0.339211 0.998008
vt 0.339211 0.001992
vt 0.403238 0.047266
vt 0.403238 0.952735
vn 0.816496 -0.000000 0.577351
vn 0.816496 -0.000000 0.577351
vn 0.816496 -0.000000 0.577351
vn 0.816496 -0.000000 0.577351
vn 0.000000 0.816497 0.577350
vn 0.000000 0.816497 0.577350
vn 0.000000 0.816497 0.577350
vn 0.000000 0.816497 0.577350
vn -0.816496 0.000000 0.577350
vn -0.816496 0.000000 0.577350
vn -0.816496 0.000000 0.577350
vn -0.816496 0.000000 0.577350
vn -0.000000 -0.816496 0.577351
vn -0.000000 -0.816496 0.577351
vn -0.000000 -0.816496 0.577351
vn -0.000000 -0.816496 0.577350
vn -0.816497 0.000000 0.577350
vn -0.816497 0.000000 0.577350
vn -0.816497 0.000000 0.577350
vn -0.816497 0.000000 0.577350
vn -0.000000 -0.816496 0.577351
vn -0.000000 -0.816496 0.577351
vn -0.000000 -0.816496 0.577351
vn -0.000000 -0.816496 0.577351
vn 0.816497 0.000000 0.577350
vn 0.816497 0.000000 0.577350
vn 0.816497 0.000000 0.577350
vn 0.816497 0.000000 0.577350
vn 0.000000 0.816497 0.577350
vn 0.000000 0.816497 0.577350
vn 0.000000 0.816497 0.577350
vn 0.000000 0.816497 0.577350
vn -0.816497 0.000000 -0.577350
vn -0.816497 0.000000 -0.577350
vn -0.816497 0.000000 -0.577350
vn -0.816497 0.000000 -0.577350
vn -0.000000 -0.816496 -0.577351
vn -0.000000 -0.816496 -0.577351
vn -0.000000 -0.816496 -0.577351
vn -0.000000 -0.816496 -0.577351
vn 0.816497 0.000000 -0.577350
vn 0.816497 0.000000 -0.577350
vn 0.816497 0.000000 -0.577350
vn 0.816497 0.000000 -0.577350
vn 0.000000 0.816497 -0.577350
vn 0.000000 0.816497 -0.577350
vn 0.000000 0.816497 -0.577350
vn 0.000000 0.816497 -0.577350
vn 0.816496 -0.000000 -0.577351
vn 0.816496 -0.000000 -0.577351
vn 0.816496 -0.000000 -0.577351
vn 0.816496 -0.000000 -0.577351
vn 0.000000 0.816497 -0.577350
vn 0.000000 0.816497 -0.577350
vn 0.000000 0.816497 -0.577350
vn 0.000000 0.816497 -0.577350
vn -0.816496 0.000000 -0.577350
vn -0.816496 0.000000 -0.577350
vn -0.816496 0.000000 -0.577350
vn -0.816496 0.000000 -0.577350
vn -0.000000 -0.816497 -0.577350
vn -0.000000 -0.816496 -0.577350
vn -0.000000 -0.816497 -0.577350
vn -0.000000 -0.816497 -0.577350
s off
g pTorus1
usemtl lambert2SG
f 2/1/1 1/2/2 5/3/3 6/4/4
f 3/25/5 2/26/6 6/27/7 7/28/8
f 4/7/9 3/11/10 7/12/11 8/8/12
f 1/33/13 4/34/14 8/35/15 5/36/16
f 6/4/17 5/3/18 9/9/19 10/10/20
f 7/28/21 6/27/22 10/31/23 11/32/24
f 8/8/25 7/12/26 11/14/27 12/13/28
f 5/36/29 8/35/30 12/39/31 9/40/32
f 10/17/33 9/18/34 13/19/35 14/20/36
f 11/41/37 10/42/38 14/43/39 15/44/40
f 12/13/41 11/14/42 15/15/43 16/16/44
f 9/45/45 12/46/46 16/47/47 13/48/48
f 14/5/49 13/6/50 1/2/51 2/1/52
f 15/29/53 14/30/54 2/26/55 3/25/56
f 16/21/57 15/22/58 3/24/59 4/23/60
f 13/37/61 16/38/62 4/34/63 1/33/64
