# This file uses centimeters as units for non-parametric coordinates.

mtllib GoombaPieIzq.mtl
g default
v 0.220611 0.045359 0.050473
v 0.194804 0.094236 0.041245
v 0.176136 0.045359 0.105794
v 0.054686 0.093859 0.035888
v 0.037778 0.097421 -0.044741
v 0.010088 0.045359 -0.043132
v 0.035444 0.045359 0.050040
v 0.082901 0.111543 0.022171
v 0.024669 0.000081 -0.039865
v 0.051104 0.000081 0.040773
v 0.106244 0.045359 0.117805
v 0.111804 0.095473 0.090110
v 0.153518 0.102527 0.065943
v 0.107539 0.000081 0.100462
v 0.164868 0.000081 0.087816
v 0.075406 0.102901 -0.066744
v 0.116334 0.114094 0.002491
v 0.149697 0.110547 -0.017154
v 0.110814 0.096333 -0.087740
v 0.178935 0.000081 -0.034487
v 0.195643 0.045359 -0.044275
v 0.203826 0.000081 0.043774
v 0.177655 0.092173 -0.030744
v 0.124509 0.045359 -0.110496
v 0.119297 0.000081 -0.095575
v 0.061114 0.000081 -0.088420
v 0.051726 0.045359 -0.105527
vt 0.201099 -0.167225
vt 0.237656 -0.082590
vt 0.137237 -0.167225
vt 0.361694 -0.082590
vt 0.498763 -0.082590
vt 0.520396 -0.167225
vt 0.361694 -0.167225
vt 0.504660 -0.244339
vt 0.361694 -0.244339
vt 0.201099 -0.167225
vt 0.237656 -0.082590
vt 0.361694 -0.055351
vt 0.232738 -0.024558
vt 0.226856 -0.244339
vt 0.164726 -0.244339
vt 0.361694 -0.016022
vt 0.361694 -0.055351
vt 0.507155 -0.024558
vt 0.498763 -0.082590
vt 0.361694 -0.244339
vt 0.361694 -0.167225
vt 0.226856 -0.244339
vt 0.361694 -0.082590
vt 0.520396 -0.167225
vt 0.504660 -0.244339
vt 0.570868 -0.244339
vt 0.597087 -0.167225
vn 0.984215 0.098960 0.146721
vn 0.706196 0.694797 0.136179
vn 0.517623 0.107691 0.848804
vn -0.731933 0.534646 0.422407
vn -0.822687 0.527778 -0.211274
vn -0.989263 0.102299 -0.104376
vn -0.731933 0.534646 0.422407
vn -0.989263 0.102299 -0.104376
vn -0.852518 0.059265 0.519327
vn -0.852518 0.059265 0.519327
vn -0.989263 0.102299 -0.104376
vn -0.942541 -0.326865 -0.069105
vn -0.852518 0.059265 0.519327
vn -0.942541 -0.326865 -0.069105
vn -0.786070 -0.361124 0.501680
vn -0.786070 -0.361124 0.501680
vn -0.342521 0.111316 0.932892
vn -0.852518 0.059265 0.519327
vn -0.731933 0.534646 0.422407
vn -0.225693 0.697761 0.679847
vn -0.134178 0.950045 0.281799
vn -0.342521 0.111316 0.932892
vn 0.517623 0.107691 0.848804
vn -0.225693 0.697761 0.679847
vn -0.852518 0.059265 0.519327
vn -0.342521 0.111316 0.932892
vn -0.225693 0.697761 0.679847
vn -0.852518 0.059265 0.519327
vn -0.225693 0.697761 0.679847
vn -0.731933 0.534646 0.422407
vn -0.225693 0.697761 0.679847
vn 0.517623 0.107691 0.848804
vn 0.253847 0.868548 0.425660
vn 0.253847 0.868548 0.425660
vn 0.517623 0.107691 0.848804
vn 0.706196 0.694797 0.136179
vn -0.786070 -0.361124 0.501680
vn -0.358833 -0.352663 0.864215
vn -0.342521 0.111316 0.932892
vn -0.358833 -0.352663 0.864215
vn 0.517623 0.107691 0.848804
vn -0.342521 0.111316 0.932892
vn -0.358833 -0.352663 0.864215
vn 0.488385 -0.413997 0.768171
vn 0.517623 0.107691 0.848804
vn 0.488385 -0.413997 0.768171
vn 0.984215 0.098960 0.146721
vn 0.517623 0.107691 0.848804
vn 0.055725 0.997495 0.043571
vn -0.225693 0.697761 0.679847
vn 0.253847 0.868548 0.425660
vn 0.055725 0.997495 0.043571
vn -0.134178 0.950045 0.281799
vn -0.225693 0.697761 0.679847
vn 0.253847 0.868548 0.425660
vn 0.706196 0.694797 0.136179
vn 0.251250 0.956412 -0.148826
vn 0.253847 0.868548 0.425660
vn 0.251250 0.956412 -0.148826
vn 0.055725 0.997495 0.043571
vn -0.248813 0.803871 -0.540262
vn 0.055725 0.997495 0.043571
vn 0.251250 0.956412 -0.148826
vn -0.248813 0.803871 -0.540262
vn 0.251250 0.956412 -0.148826
vn 0.224422 0.689841 -0.688298
vn 0.796103 -0.371304 -0.477863
vn 0.851522 0.019000 -0.523974
vn 0.984215 0.098960 0.146721
vn 0.851522 0.019000 -0.523974
vn 0.706196 0.694797 0.136179
vn 0.984215 0.098960 0.146721
vn 0.796103 -0.371304 -0.477863
vn 0.984215 0.098960 0.146721
vn 0.929352 -0.357911 0.090583
vn 0.488385 -0.413997 0.768171
vn 0.929352 -0.357911 0.090583
vn 0.984215 0.098960 0.146721
vn 0.224422 0.689841 -0.688298
vn 0.678804 0.599225 -0.424445
vn 0.851522 0.019000 -0.523974
vn 0.851522 0.019000 -0.523974
vn 0.678804 0.599225 -0.424445
vn 0.706196 0.694797 0.136179
vn 0.224422 0.689841 -0.688298
vn 0.251250 0.956412 -0.148826
vn 0.678804 0.599225 -0.424445
vn 0.251250 0.956412 -0.148826
vn 0.706196 0.694797 0.136179
vn 0.678804 0.599225 -0.424445
vn 0.224422 0.689841 -0.688298
vn 0.851522 0.019000 -0.523974
vn 0.401611 0.106668 -0.909577
vn 0.401611 0.106668 -0.909577
vn 0.851522 0.019000 -0.523974
vn 0.796103 -0.371304 -0.477863
vn 0.401611 0.106668 -0.909577
vn 0.796103 -0.371304 -0.477863
vn 0.375314 -0.340209 -0.862205
vn -0.510962 -0.381380 -0.770369
vn -0.942541 -0.326865 -0.069105
vn -0.989263 0.102299 -0.104376
vn -0.248813 0.803871 -0.540262
vn -0.522606 0.083916 -0.848435
vn -0.822687 0.527778 -0.211274
vn -0.510962 -0.381380 -0.770369
vn -0.989263 0.102299 -0.104376
vn -0.522606 0.083916 -0.848435
vn 0.224422 0.689841 -0.688298
vn -0.522606 0.083916 -0.848435
vn -0.248813 0.803871 -0.540262
vn 0.401611 0.106668 -0.909577
vn -0.522606 0.083916 -0.848435
vn 0.224422 0.689841 -0.688298
vn -0.822687 0.527778 -0.211274
vn -0.522606 0.083916 -0.848435
vn -0.989263 0.102299 -0.104376
vn 0.375314 -0.340209 -0.862205
vn -0.522606 0.083916 -0.848435
vn 0.401611 0.106668 -0.909577
vn 0.375314 -0.340209 -0.862205
vn -0.510962 -0.381380 -0.770369
vn -0.522606 0.083916 -0.848435
s off
g polySurface17 polySurface13 Goomba:GombaMesh
usemtl Goomba:lambert2SG
f 1/1/1 2/2/2 3/3/3
f 4/4/4 5/5/5 6/6/6
f 4/4/7 6/6/8 7/7/9
f 7/7/10 6/6/11 9/8/12
f 7/7/13 9/8/14 10/9/15
f 10/9/16 11/10/17 7/7/18
f 4/4/19 12/11/20 8/12/21
f 11/10/22 3/3/23 12/11/24
f 7/7/25 11/10/26 12/11/27
f 7/7/28 12/11/29 4/4/30
f 12/11/31 3/3/32 13/13/33
f 13/13/34 3/3/35 2/2/36
f 10/9/37 14/14/38 11/10/39
f 14/14/40 3/3/41 11/10/42
f 14/14/43 15/15/44 3/3/45
f 15/15/46 1/1/47 3/3/48
f 17/16/49 12/11/50 13/13/51
f 17/16/52 8/12/53 12/11/54
f 13/13/55 2/2/56 18/17/57
f 13/13/58 18/17/59 17/16/60
f 16/18/61 17/16/62 18/17/63
f 16/18/64 18/17/65 19/19/66
f 20/20/67 21/21/68 1/1/69
f 21/21/70 2/2/71 1/1/72
f 20/20/73 1/1/74 22/22/75
f 15/15/76 22/22/77 1/1/78
f 19/19/79 23/23/80 21/21/81
f 21/21/82 23/23/83 2/2/84
f 19/19/85 18/17/86 23/23/87
f 18/17/88 2/2/89 23/23/90
f 19/19/91 21/21/92 24/24/93
f 24/24/94 21/21/95 20/20/96
f 24/24/97 20/20/98 25/25/99
f 26/26/100 9/8/101 6/6/102
f 16/18/103 27/27/104 5/5/105
f 26/26/106 6/6/107 27/27/108
f 19/19/109 27/27/110 16/18/111
f 24/24/112 27/27/113 19/19/114
f 5/5/115 27/27/116 6/6/117
f 25/25/118 27/27/119 24/24/120
f 25/25/121 26/26/122 27/27/123
