# This file uses centimeters as units for non-parametric coordinates.

mtllib GoombaIzqPie.mtl
g default
v 0.015868 0.000378 0.017574
v 0.011318 0.009368 0.015955
v 0.021657 0.009368 -0.024572
v 0.025695 0.000378 -0.020944
v 0.046076 0.009368 -0.052448
v 0.048902 0.000378 -0.047438
v 0.007124 0.026723 0.014464
v 0.017936 0.026723 -0.027916
v 0.043470 0.026723 -0.057066
v 0.021122 0.000378 0.061455
v 0.016846 0.009368 0.062126
v 0.007124 0.044466 0.014464
v 0.017936 0.044466 -0.027916
v 0.012905 0.026723 0.062744
v 0.043470 0.044466 -0.057066
v 0.080351 0.009368 -0.062853
v 0.081478 0.000378 -0.057327
v 0.012905 0.044466 0.062744
v 0.011318 0.061821 0.015955
v 0.021657 0.061821 -0.024572
v 0.079312 0.026723 -0.067946
v 0.046076 0.061821 -0.052448
v 0.040547 0.000378 0.103112
v 0.037284 0.009368 0.105956
v 0.079312 0.044466 -0.067946
v 0.016846 0.061821 0.062126
v 0.034277 0.026723 0.108578
v 0.019523 0.078030 0.018873
v 0.028937 0.078030 -0.018030
v 0.051172 0.078030 -0.043414
v 0.080351 0.061821 -0.062853
v 0.034277 0.044466 0.108578
v 0.118556 0.009368 -0.053988
v 0.117789 0.000378 -0.048901
v 0.024556 0.078030 0.060916
v 0.119264 0.026723 -0.058676
v 0.031379 0.092384 0.023090
v 0.039458 0.092384 -0.008577
v 0.037284 0.061821 0.105956
v 0.082383 0.078030 -0.052889
v 0.058538 0.092384 -0.030359
v 0.070785 0.000378 0.135343
v 0.069100 0.009368 0.139869
v 0.119264 0.044466 -0.058676
v 0.035698 0.092384 0.059167
v 0.067547 0.026723 0.144040
v 0.085282 0.118610 0.032599
v 0.083021 0.118610 0.041459
v 0.103082 0.120465 0.048594
v 0.090620 0.118610 0.026505
v 0.043167 0.078030 0.100828
v 0.084230 0.118610 0.051552
v 0.098113 0.118610 0.024230
v 0.088698 0.118610 0.061134
v 0.118556 0.061821 -0.053988
v 0.106465 0.118610 0.026168
v 0.085320 0.092384 -0.038489
v 0.095653 0.118610 0.068548
v 0.046369 0.104256 0.028422
v 0.052759 0.104256 0.003375
v 0.114232 0.118610 0.031984
v 0.103893 0.118610 0.072511
v 0.067547 0.044466 0.144040
v 0.067850 0.104256 -0.013853
v 0.120071 0.118610 0.040672
v 0.154086 0.009368 -0.027385
v 0.151557 0.000378 -0.023618
v 0.111992 0.118610 0.072339
v 0.122973 0.118610 0.050729
v 0.118551 0.118610 0.068061
v 0.122435 0.118610 0.060417
v 0.049785 0.104256 0.056957
v 0.051669 0.092384 0.093416
v 0.117173 0.078030 -0.044816
v 0.156417 0.026723 -0.030858
v 0.069100 0.061821 0.139869
v 0.089033 0.104256 -0.020284
v 0.106607 0.000378 0.152574
v 0.106791 0.009368 0.157999
v 0.063838 0.113127 0.034635
v 0.068259 0.113127 0.017303
v 0.156417 0.044466 -0.030858
v 0.115173 0.092384 -0.031562
v 0.078702 0.113127 0.005382
v 0.062417 0.104256 0.084046
v 0.072138 0.078030 0.131708
v 0.066202 0.113127 0.054381
v 0.106961 0.026723 0.162999
v 0.093361 0.113127 0.000932
v 0.154086 0.061821 -0.027385
v 0.112646 0.104256 -0.014805
v 0.076529 0.092384 0.119915
v 0.180797 0.009368 0.012355
v 0.176943 0.000378 0.014152
v 0.074942 0.113127 0.073126
v 0.106961 0.044466 0.162999
v 0.149526 0.078030 -0.020592
v 0.082080 0.104256 0.105005
v 0.184349 0.026723 0.010699
v 0.109700 0.113127 0.004723
v 0.106791 0.061821 0.157999
v 0.141820 0.000378 0.151826
v 0.143841 0.009368 0.157212
v 0.142936 0.092384 -0.010775
v 0.088549 0.113127 0.087629
v 0.184349 0.044466 0.010699
v 0.106460 0.078030 0.148217
v 0.134604 0.104256 0.001636
v 0.145704 0.026723 0.162176
v 0.194070 0.009368 0.058361
v 0.189558 0.000378 0.057876
v 0.124895 0.113127 0.016100
v 0.105980 0.092384 0.134082
v 0.180797 0.061821 0.012355
v 0.105375 0.104256 0.116210
v 0.145704 0.044466 0.162176
v 0.104668 0.113127 0.095383
v 0.170335 0.000378 0.133228
v 0.173844 0.009368 0.137643
v 0.173849 0.078030 0.015595
v 0.198229 0.026723 0.058807
v 0.163808 0.092384 0.020277
v 0.136318 0.113127 0.033096
v 0.191611 0.009368 0.102678
v 0.187221 0.000378 0.099996
v 0.143841 0.061821 0.157212
v 0.151112 0.104256 0.026197
v 0.120513 0.113127 0.095046
v 0.177078 0.026723 0.141713
v 0.198229 0.044466 0.058807
v 0.140197 0.078030 0.147500
v 0.141995 0.113127 0.052771
v 0.128273 0.104256 0.115723
v 0.134931 0.092384 0.133466
v 0.133344 0.113127 0.086678
v 0.195657 0.026723 0.105150
v 0.140943 0.113127 0.071724
v 0.194070 0.061821 0.058361
v 0.177078 0.044466 0.141713
v 0.159316 0.104256 0.054630
v 0.185935 0.078030 0.057487
v 0.174179 0.092384 0.056226
v 0.146815 0.104256 0.103630
v 0.195657 0.044466 0.105150
v 0.173844 0.061821 0.137643
v 0.157796 0.104256 0.082020
v 0.158374 0.092384 0.118176
v 0.167517 0.078030 0.129682
v 0.191611 0.061821 0.102678
v 0.172257 0.092384 0.090854
v 0.183696 0.078030 0.097842
vt 0.305851 0.753824
vt 0.305851 0.767820
vt 0.271144 0.767820
vt 0.271144 0.753824
vt 0.236436 0.767820
vt 0.236436 0.753824
vt 0.305851 0.793056
vt 0.271144 0.793056
vt 0.236436 0.793056
vt 0.340558 0.753824
vt 0.340558 0.767820
vt 0.305851 0.818291
vt 0.271144 0.818291
vt 0.340558 0.793056
vt 0.236436 0.818291
vt 0.201729 0.767820
vt 0.201729 0.753824
vt 0.340558 0.818291
vt 0.305851 0.843527
vt 0.271144 0.843527
vt 0.201729 0.793056
vt 0.236436 0.843527
vt 0.375265 0.753824
vt 0.375265 0.767820
vt 0.201729 0.818291
vt 0.340558 0.843527
vt 0.375265 0.793056
vt 0.305851 0.868763
vt 0.271144 0.868763
vt 0.236436 0.868763
vt 0.201729 0.843527
vt 0.375265 0.818291
vt 0.167022 0.767820
vt 0.167022 0.753824
vt 0.340558 0.868763
vt 0.167022 0.793056
vt 0.305851 0.893999
vt 0.271144 0.893999
vt 0.375265 0.843527
vt 0.201729 0.868763
vt 0.236436 0.893999
vt 0.409972 0.753824
vt 0.409972 0.767820
vt 0.167022 0.818291
vt 0.340558 0.893999
vt 0.409972 0.793056
vt 0.271144 0.969706
vt 0.305851 0.969706
vt 0.288497 0.994942
vt 0.236436 0.969706
vt 0.253790 0.994942
vt 0.375265 0.868763
vt 0.340558 0.969706
vt 0.323204 0.994942
vt 0.201729 0.969706
vt 0.219083 0.994942
vt 0.375265 0.969706
vt 0.357911 0.994942
vt 0.167022 0.843527
vt 0.167022 0.969706
vt 0.184376 0.994942
vt 0.201729 0.893999
vt 0.409972 0.969706
vt 0.392618 0.994942
vt 0.305851 0.919235
vt 0.271144 0.919235
vt 0.132315 0.969706
vt 0.149669 0.994942
vt 0.444679 0.969706
vt 0.427326 0.994942
vt 0.409972 0.818291
vt 0.236436 0.919235
vt 0.618214 0.969706
vt 0.652921 0.969706
vt 0.635568 0.994942
vt 0.132315 0.767820
vt 0.132315 0.753824
vt 0.479386 0.969706
vt 0.462033 0.994942
vt 0.583507 0.969706
vt 0.600861 0.994942
vt 0.514093 0.969706
vt 0.496740 0.994942
vt 0.548800 0.969706
vt 0.566154 0.994942
vt 0.531447 0.994942
vt 0.340558 0.919235
vt 0.375265 0.893999
vt 0.167022 0.868763
vt 0.132315 0.793056
vt 0.409972 0.843527
vt 0.201729 0.919235
vt 0.444679 0.753824
vt 0.444679 0.767820
vt 0.305851 0.944471
vt 0.271144 0.944471
vt 0.132315 0.818291
vt 0.167022 0.893999
vt 0.236436 0.944471
vt 0.375265 0.919235
vt 0.409972 0.868763
vt 0.340558 0.944471
vt 0.444679 0.793056
vt 0.201729 0.944471
vt 0.132315 0.843527
vt 0.167022 0.919235
vt 0.409972 0.893999
vt 0.652921 0.753824
vt 0.652921 0.767820
vt 0.618214 0.767820
vt 0.618214 0.753824
vt 0.375265 0.944471
vt 0.444679 0.818291
vt 0.132315 0.868763
vt 0.409972 0.919235
vt 0.652921 0.793056
vt 0.618214 0.793056
vt 0.167022 0.944471
vt 0.444679 0.843527
vt 0.479386 0.753824
vt 0.479386 0.767820
vt 0.132315 0.893999
vt 0.409972 0.944471
vt 0.652921 0.818291
vt 0.618214 0.818291
vt 0.444679 0.868763
vt 0.132315 0.919235
vt 0.479386 0.793056
vt 0.583507 0.767820
vt 0.583507 0.753824
vt 0.132315 0.944471
vt 0.444679 0.893999
vt 0.652921 0.843527
vt 0.618214 0.843527
vt 0.444679 0.919235
vt 0.479386 0.818291
vt 0.444679 0.944471
vt 0.514093 0.753824
vt 0.514093 0.767820
vt 0.652921 0.868763
vt 0.618214 0.868763
vt 0.583507 0.793056
vt 0.652921 0.893999
vt 0.618214 0.893999
vt 0.618214 0.944471
vt 0.652921 0.944471
vt 0.548800 0.767820
vt 0.548800 0.753824
vt 0.479386 0.843527
vt 0.652921 0.919235
vt 0.618214 0.919235
vt 0.479386 0.944471
vt 0.514093 0.793056
vt 0.583507 0.818291
vt 0.479386 0.868763
vt 0.583507 0.944471
vt 0.479386 0.919235
vt 0.479386 0.893999
vt 0.514093 0.944471
vt 0.548800 0.793056
vt 0.548800 0.944471
vt 0.583507 0.843527
vt 0.514093 0.818291
vt 0.583507 0.919235
vt 0.583507 0.868763
vt 0.583507 0.893999
vt 0.514093 0.919235
vt 0.548800 0.818291
vt 0.514093 0.843527
vt 0.548800 0.919235
vt 0.514093 0.893999
vt 0.514093 0.868763
vt 0.548800 0.843527
vt 0.548800 0.893999
vt 0.548800 0.868763
vt 0.928668 0.251412
vt 0.961228 0.226117
vt 0.983327 0.185189
vt 0.991143 0.135705
vt 0.983327 0.086220
vt 0.961228 0.045292
vt 0.928668 0.019997
vt 0.891277 0.014709
vt 0.855521 0.030342
vt 0.827581 0.064194
vt 0.812289 0.110410
vt 0.812289 0.161000
vt 0.827581 0.207216
vt 0.855521 0.241067
vt 0.891277 0.256700
vn -0.889327 -0.456082 -0.032972
vn -0.948300 -0.313558 -0.049080
vn -0.779993 -0.501425 -0.374413
vn -0.837715 -0.348229 -0.420679
vn -0.464162 -0.538084 -0.703576
vn -0.506391 -0.375814 -0.776100
vn -0.991336 -0.118117 -0.057453
vn -0.882183 -0.132644 -0.451838
vn -0.539223 -0.145219 -0.829548
vn -0.864943 -0.430665 0.257684
vn -0.917860 -0.294622 0.265952
vn -0.882183 0.132644 -0.451838
vn -0.991336 0.118117 -0.057453
vn -0.955470 -0.108905 0.274258
vn -0.539223 0.145219 -0.829548
vn -0.015018 -0.365014 -0.930881
vn -0.001710 -0.523850 -0.851809
vn -0.955009 0.109838 0.275487
vn -0.824898 0.381471 -0.417160
vn -0.937483 0.344345 -0.050517
vn -0.022989 -0.139696 -0.989928
vn -0.497168 0.411144 -0.764058
vn -0.751530 -0.430831 0.499588
vn -0.794680 -0.292733 0.531781
vn -0.022989 0.139696 -0.989928
vn -0.908587 0.322811 0.265072
vn -0.824904 -0.109838 0.554499
vn -0.722917 0.589772 -0.359945
vn -0.837861 0.544349 -0.040906
vn -0.426582 0.624299 -0.654430
vn -0.016501 0.399167 -0.916730
vn -0.824258 0.108906 0.555642
vn 0.412800 -0.329882 -0.848984
vn 0.398072 -0.477266 -0.783425
vn -0.820821 0.517110 0.242591
vn 0.427197 -0.124944 -0.895484
vn -0.594831 0.749316 -0.291036
vn -0.704674 0.708888 -0.030198
vn -0.785162 0.322134 0.528915
vn -0.009460 0.610679 -0.791821
vn -0.343235 0.778535 -0.525427
vn -0.571958 -0.313558 0.757987
vn -0.546391 -0.456081 0.702458
vn 0.427197 0.124944 -0.895484
vn -0.698925 0.683763 0.209695
vn -0.593207 -0.118117 0.796338
vn -0.166056 0.983295 -0.074547
vn -0.203875 0.978994 -0.002459
vn -0.000000 1.000000 -0.000000
vn -0.093420 0.985531 -0.141425
vn -0.710286 0.516873 0.477846
vn -0.205521 0.976387 0.066557
vn 0.004174 0.985099 -0.171937
vn -0.169927 0.978972 0.112865
vn 0.405303 0.361915 -0.839492
vn 0.091932 0.981119 -0.170157
vn -0.003482 0.767199 -0.641400
vn -0.129165 0.978994 0.157758
vn -0.454962 0.863325 -0.218358
vn -0.549550 0.835227 -0.019768
vn 0.159870 0.977321 -0.138872
vn -0.049632 0.983295 0.175124
vn -0.593207 0.118117 0.796338
vn -0.257495 0.882668 -0.393183
vn 0.186352 0.978633 -0.086897
vn 0.697600 -0.301216 -0.650095
vn 0.663201 -0.440248 -0.605266
vn 0.048288 0.985531 0.162470
vn 0.209144 0.977321 -0.033203
vn 0.134395 0.985099 0.107321
vn 0.189440 0.981120 0.038951
vn -0.551130 0.817273 0.168286
vn -0.605582 0.684036 0.406652
vn 0.362692 0.566120 -0.740245
vn 0.723726 -0.112973 -0.680777
vn -0.563904 0.344345 0.750626
vn 0.000717 0.875322 -0.483540
vn -0.216214 -0.348229 0.912134
vn -0.214553 -0.501425 0.838176
vn -0.311088 0.939110 -0.145932
vn -0.380947 0.924537 -0.010538
vn 0.723726 0.112973 -0.680777
vn 0.305482 0.728540 -0.613115
vn -0.173820 0.948571 -0.264574
vn -0.477781 0.818084 0.320100
vn -0.507231 0.544349 0.668132
vn -0.384935 0.915104 0.120041
vn -0.220928 -0.132644 0.966228
vn 0.003063 0.945188 -0.326513
vn 0.689587 0.330975 -0.644147
vn 0.239121 0.849056 -0.471090
vn -0.429823 0.708888 0.559223
vn 0.867064 -0.291078 -0.404319
vn 0.819286 -0.427570 -0.382040
vn -0.332383 0.916624 0.222085
vn -0.220928 0.132644 0.966228
vn 0.623301 0.527475 -0.577292
vn -0.338100 0.835227 0.433686
vn 0.901021 -0.107852 -0.420153
vn 0.167200 0.931769 -0.322259
vn -0.210671 0.381471 0.900054
vn 0.269025 -0.375814 0.886786
vn 0.240612 -0.538084 0.807819
vn 0.531151 0.693350 -0.486974
vn -0.236796 0.924537 0.298596
vn 0.901021 0.107852 -0.420153
vn -0.188949 0.589772 0.785155
vn 0.419787 0.824113 -0.380284
vn 0.288864 -0.145218 0.946292
vn 0.889957 -0.440249 -0.118984
vn 0.946410 -0.301216 -0.116520
vn 0.294683 0.918670 -0.263073
vn -0.159404 0.749316 0.642741
vn 0.858861 0.319314 -0.400494
vn -0.125172 0.863325 0.488879
vn 0.288864 0.145218 0.946292
vn -0.088173 0.939110 0.332111
vn 0.651424 -0.523849 0.548843
vn 0.703443 -0.365013 0.609864
vn 0.777864 0.513185 -0.362724
vn 0.986708 -0.112973 -0.116811
vn 0.664092 0.680503 -0.309672
vn 0.365257 0.915193 -0.170322
vn 0.856015 -0.477266 0.198635
vn 0.915702 -0.329883 0.229494
vn 0.265728 0.411144 0.871980
vn 0.524587 0.815457 -0.244619
vn 0.090946 0.948571 0.303219
vn 0.743551 -0.139696 0.653925
vn 0.986708 0.112973 -0.116811
vn 0.227120 0.624299 0.747440
vn 0.390943 0.918670 -0.056640
vn 0.135681 0.882668 0.449986
vn 0.181873 0.778535 0.600671
vn 0.252092 0.945188 0.207532
vn 0.960578 -0.124944 0.248354
vn 0.354338 0.931769 0.079062
vn 0.936704 0.330974 -0.114204
vn 0.743551 0.139696 0.653924
vn 0.561148 0.824114 -0.077134
vn 0.842881 0.527475 -0.106400
vn 0.714461 0.693351 -0.093865
vn 0.370874 0.875322 0.310264
vn 0.960577 0.124944 0.248354
vn 0.691649 0.399167 0.601903
vn 0.514580 0.849056 0.119633
vn 0.489103 0.767199 0.414951
vn 0.600489 0.610680 0.516220
vn 0.903612 0.361916 0.229135
vn 0.666034 0.728540 0.160090
vn 0.800194 0.566120 0.197983
vn 0.000000 -1.000000 -0.000000
vn 0.000000 -1.000000 -0.000000
vn 0.000000 -1.000000 -0.000000
vn 0.000000 -1.000000 -0.000000
vn 0.000000 -1.000000 0.000000
vn 0.000000 -1.000000 0.000000
vn 0.000000 -1.000000 0.000000
vn 0.000000 -1.000000 -0.000000
vn 0.000000 -1.000000 0.000000
vn 0.000000 -1.000000 -0.000000
vn 0.000000 -1.000000 0.000000
vn 0.000000 -1.000000 -0.000000
vn 0.000000 -1.000000 -0.000000
vn 0.000000 -1.000000 0.000000
vn 0.000000 -1.000000 0.000000
s 1
g polySurface1
usemtl lambert4SG
f 1/1/1 2/2/2 4/4/3
f 4/4/3 2/2/2 3/3/4
f 4/4/3 3/3/4 6/6/5
f 6/6/5 3/3/4 5/5/6
f 2/2/2 7/7/7 3/3/4
f 3/3/4 7/7/7 8/8/8
f 3/3/4 8/8/8 5/5/6
f 5/5/6 8/8/8 9/9/9
f 10/10/10 11/11/11 1/1/1
f 1/1/1 11/11/11 2/2/2
f 8/8/8 7/7/7 13/13/12
f 13/13/12 7/7/7 12/12/13
f 11/11/11 14/14/14 2/2/2
f 2/2/2 14/14/14 7/7/7
f 9/9/9 8/8/8 15/15/15
f 15/15/15 8/8/8 13/13/12
f 5/5/6 16/16/16 6/6/5
f 6/6/5 16/16/16 17/17/17
f 7/7/7 14/14/14 12/12/13
f 12/12/13 14/14/14 18/18/18
f 13/13/12 12/12/13 20/20/19
f 20/20/19 12/12/13 19/19/20
f 16/16/16 5/5/6 21/21/21
f 21/21/21 5/5/6 9/9/9
f 15/15/15 13/13/12 22/22/22
f 22/22/22 13/13/12 20/20/19
f 23/23/23 24/24/24 10/10/10
f 10/10/10 24/24/24 11/11/11
f 21/21/21 9/9/9 25/25/25
f 25/25/25 9/9/9 15/15/15
f 12/12/13 18/18/18 19/19/20
f 19/19/20 18/18/18 26/26/26
f 11/11/11 24/24/24 14/14/14
f 14/14/14 24/24/24 27/27/27
f 20/20/19 19/19/20 29/29/28
f 29/29/28 19/19/20 28/28/29
f 22/22/22 20/20/19 30/30/30
f 30/30/30 20/20/19 29/29/28
f 15/15/15 22/22/22 25/25/25
f 25/25/25 22/22/22 31/31/31
f 14/14/14 27/27/27 18/18/18
f 18/18/18 27/27/27 32/32/32
f 16/16/16 33/33/33 17/17/17
f 17/17/17 33/33/33 34/34/34
f 19/19/20 26/26/26 28/28/29
f 28/28/29 26/26/26 35/35/35
f 33/33/33 16/16/16 36/36/36
f 36/36/36 16/16/16 21/21/21
f 29/29/28 28/28/29 38/38/37
f 38/38/37 28/28/29 37/37/38
f 18/18/18 32/32/32 26/26/26
f 26/26/26 32/32/32 39/39/39
f 22/22/22 30/30/30 31/31/31
f 31/31/31 30/30/30 40/40/40
f 30/30/30 29/29/28 41/41/41
f 41/41/41 29/29/28 38/38/37
f 43/43/42 24/24/24 42/42/43
f 42/42/43 24/24/24 23/23/23
f 36/36/36 21/21/21 44/44/44
f 44/44/44 21/21/21 25/25/25
f 28/28/29 35/35/35 37/37/38
f 37/37/38 35/35/35 45/45/45
f 24/24/24 43/43/42 27/27/27
f 27/27/27 43/43/42 46/46/46
f 47/47/47 48/48/48 49/49/49
f 50/50/50 47/47/47 49/51/49
f 26/26/26 39/39/39 35/35/35
f 35/35/35 39/39/39 51/52/51
f 48/48/48 52/53/52 49/54/49
f 53/55/53 50/50/50 49/56/49
f 52/53/52 54/57/54 49/58/49
f 25/25/25 31/31/31 44/44/44
f 44/44/44 31/31/31 55/59/55
f 56/60/56 53/55/53 49/61/49
f 30/30/30 41/41/41 40/40/40
f 40/40/40 41/41/41 57/62/57
f 54/57/54 58/63/58 49/64/49
f 38/38/37 37/37/38 60/66/59
f 60/66/59 37/37/38 59/65/60
f 61/67/61 56/60/56 49/68/49
f 58/63/58 62/69/62 49/70/49
f 27/27/27 46/46/46 32/32/32
f 32/32/32 46/46/46 63/71/63
f 41/41/41 38/38/37 64/72/64
f 64/72/64 38/38/37 60/66/59
f 65/73/65 61/74/61 49/75/49
f 33/33/33 66/76/66 34/34/34
f 34/34/34 66/76/66 67/77/67
f 62/69/62 68/78/68 49/79/49
f 69/80/69 65/73/65 49/81/49
f 68/78/68 70/82/70 49/83/49
f 71/84/71 69/80/69 49/85/49
f 70/82/70 71/84/71 49/86/49
f 37/37/38 45/45/45 59/65/60
f 59/65/60 45/45/45 72/87/72
f 35/35/35 51/52/51 45/45/45
f 45/45/45 51/52/51 73/88/73
f 31/31/31 40/40/40 55/59/55
f 55/59/55 40/40/40 74/89/74
f 66/76/66 33/33/33 75/90/75
f 75/90/75 33/33/33 36/36/36
f 63/71/63 76/91/76 32/32/32
f 32/32/32 76/91/76 39/39/39
f 41/41/41 64/72/64 57/62/57
f 57/62/57 64/72/64 77/92/77
f 79/94/78 43/43/42 78/93/79
f 78/93/79 43/43/42 42/42/43
f 60/66/59 59/65/60 81/96/80
f 81/96/80 59/65/60 80/95/81
f 75/90/75 36/36/36 82/97/82
f 82/97/82 36/36/36 44/44/44
f 40/40/40 57/62/57 74/89/74
f 74/89/74 57/62/57 83/98/83
f 64/72/64 60/66/59 84/99/84
f 84/99/84 60/66/59 81/96/80
f 45/45/45 73/88/73 72/87/72
f 72/87/72 73/88/73 85/100/85
f 76/91/76 86/101/86 39/39/39
f 39/39/39 86/101/86 51/52/51
f 59/65/60 72/87/72 80/95/81
f 80/95/81 72/87/72 87/102/87
f 43/43/42 79/94/78 46/46/46
f 46/46/46 79/94/78 88/103/88
f 64/72/64 84/99/84 77/92/77
f 77/92/77 84/99/84 89/104/89
f 44/44/44 55/59/55 82/97/82
f 82/97/82 55/59/55 90/105/90
f 57/62/57 77/92/77 83/98/83
f 83/98/83 77/92/77 91/106/91
f 86/101/86 92/107/92 51/52/51
f 51/52/51 92/107/92 73/88/73
f 66/109/66 93/110/93 67/108/67
f 67/108/67 93/110/93 94/111/94
f 72/87/72 85/100/85 87/102/87
f 87/102/87 85/100/85 95/112/95
f 46/46/46 88/103/88 63/71/63
f 63/71/63 88/103/88 96/113/96
f 81/96/80 80/95/81 47/47/47
f 47/47/47 80/95/81 48/48/48
f 55/59/55 74/89/74 90/105/90
f 90/105/90 74/89/74 97/114/97
f 84/99/84 81/96/80 50/50/50
f 50/50/50 81/96/80 47/47/47
f 80/95/81 87/102/87 48/48/48
f 48/48/48 87/102/87 52/53/52
f 92/107/92 98/115/98 73/88/73
f 73/88/73 98/115/98 85/100/85
f 93/110/93 66/109/66 99/117/99
f 99/117/99 66/109/66 75/116/75
f 77/92/77 89/104/89 91/106/91
f 91/106/91 89/104/89 100/118/100
f 84/99/84 50/50/50 89/104/89
f 89/104/89 50/50/50 53/55/53
f 96/113/96 101/119/101 63/71/63
f 63/71/63 101/119/101 76/91/76
f 103/121/102 79/94/78 102/120/103
f 102/120/103 79/94/78 78/93/79
f 74/89/74 83/98/83 97/114/97
f 97/114/97 83/98/83 104/122/104
f 87/102/87 95/112/95 52/53/52
f 52/53/52 95/112/95 54/57/54
f 98/115/98 105/123/105 85/100/85
f 85/100/85 105/123/105 95/112/95
f 99/117/99 75/116/75 106/125/106
f 106/125/106 75/116/75 82/124/82
f 101/119/101 107/126/107 76/91/76
f 76/91/76 107/126/107 86/101/86
f 89/104/89 53/55/53 100/118/100
f 100/118/100 53/55/53 56/60/56
f 83/98/83 91/106/91 104/122/104
f 104/122/104 91/106/91 108/127/108
f 79/94/78 103/121/102 88/103/88
f 88/103/88 103/121/102 109/128/109
f 105/123/105 58/63/58 95/112/95
f 95/112/95 58/63/58 54/57/54
f 94/111/94 93/110/93 111/130/110
f 111/130/110 93/110/93 110/129/111
f 91/106/91 100/118/100 108/127/108
f 108/127/108 100/118/100 112/131/112
f 107/126/107 113/132/113 86/101/86
f 86/101/86 113/132/113 92/107/92
f 82/124/82 90/133/90 106/125/106
f 106/125/106 90/133/90 114/134/114
f 100/118/100 56/60/56 112/131/112
f 112/131/112 56/60/56 61/67/61
f 113/132/113 115/135/115 92/107/92
f 92/107/92 115/135/115 98/115/98
f 88/103/88 109/128/109 96/113/96
f 96/113/96 109/128/109 116/136/116
f 115/135/115 117/137/117 98/115/98
f 98/115/98 117/137/117 105/123/105
f 118/138/118 119/139/119 102/120/103
f 102/120/103 119/139/119 103/121/102
f 117/137/117 62/69/62 105/123/105
f 105/123/105 62/69/62 58/63/58
f 90/133/90 97/140/97 114/134/114
f 114/134/114 97/140/97 120/141/120
f 93/110/93 99/117/99 110/129/111
f 110/129/111 99/117/99 121/142/121
f 97/140/97 104/143/104 120/141/120
f 120/141/120 104/143/104 122/144/122
f 112/146/112 61/74/61 123/145/123
f 123/145/123 61/74/61 65/73/65
f 111/130/110 110/129/111 125/148/124
f 125/148/124 110/129/111 124/147/125
f 116/136/116 126/149/126 96/113/96
f 96/113/96 126/149/126 101/119/101
f 104/143/104 108/150/108 122/144/122
f 122/144/122 108/150/108 127/151/127
f 108/150/108 112/146/112 127/151/127
f 127/151/127 112/146/112 123/145/123
f 125/148/124 124/147/125 118/138/118
f 118/138/118 124/147/125 119/139/119
f 128/152/128 68/78/68 117/137/117
f 117/137/117 68/78/68 62/69/62
f 119/139/119 129/153/129 103/121/102
f 103/121/102 129/153/129 109/128/109
f 121/142/121 99/117/99 130/154/130
f 130/154/130 99/117/99 106/125/106
f 126/149/126 131/155/131 101/119/101
f 101/119/101 131/155/131 107/126/107
f 132/156/132 123/145/123 69/80/69
f 69/80/69 123/145/123 65/73/65
f 133/157/133 128/152/128 115/135/115
f 115/135/115 128/152/128 117/137/117
f 131/155/131 134/158/134 107/126/107
f 107/126/107 134/158/134 113/132/113
f 128/152/128 135/159/135 68/78/68
f 68/78/68 135/159/135 70/82/70
f 110/129/111 121/142/121 124/147/125
f 124/147/125 121/142/121 136/160/136
f 134/158/134 133/157/133 113/132/113
f 113/132/113 133/157/133 115/135/115
f 137/161/137 132/156/132 71/84/71
f 71/84/71 132/156/132 69/80/69
f 130/154/130 106/125/106 138/162/138
f 138/162/138 106/125/106 114/134/114
f 135/159/135 137/161/137 70/82/70
f 70/82/70 137/161/137 71/84/71
f 124/147/125 136/160/136 119/139/119
f 119/139/119 136/160/136 129/153/129
f 109/128/109 129/153/129 116/136/116
f 116/136/116 129/153/129 139/163/139
f 140/164/140 127/151/127 132/156/132
f 132/156/132 127/151/127 123/145/123
f 138/162/138 114/134/114 141/165/141
f 141/165/141 114/134/114 120/141/120
f 142/166/142 122/144/122 140/164/140
f 140/164/140 122/144/122 127/151/127
f 133/157/133 143/167/143 128/152/128
f 128/152/128 143/167/143 135/159/135
f 141/165/141 120/141/120 142/166/142
f 142/166/142 120/141/120 122/144/122
f 136/160/136 121/142/121 144/168/144
f 144/168/144 121/142/121 130/154/130
f 116/136/116 139/163/139 126/149/126
f 126/149/126 139/163/139 145/169/145
f 146/170/146 140/164/140 137/161/137
f 137/161/137 140/164/140 132/156/132
f 143/167/143 146/170/146 135/159/135
f 135/159/135 146/170/146 137/161/137
f 129/153/129 136/160/136 139/163/139
f 139/163/139 136/160/136 144/168/144
f 134/158/134 147/171/147 133/157/133
f 133/157/133 147/171/147 143/167/143
f 126/149/126 145/169/145 131/155/131
f 131/155/131 145/169/145 148/172/148
f 131/155/131 148/172/148 134/158/134
f 134/158/134 148/172/148 147/171/147
f 144/168/144 130/154/130 149/173/149
f 149/173/149 130/154/130 138/162/138
f 150/174/150 142/166/142 146/170/146
f 146/170/146 142/166/142 140/164/140
f 147/171/147 150/174/150 143/167/143
f 143/167/143 150/174/150 146/170/146
f 139/163/139 144/168/144 145/169/145
f 145/169/145 144/168/144 149/173/149
f 149/173/149 138/162/138 151/175/151
f 151/175/151 138/162/138 141/165/141
f 151/175/151 141/165/141 150/174/150
f 150/174/150 141/165/141 142/166/142
f 148/172/148 151/175/151 147/171/147
f 147/171/147 151/175/151 150/174/150
f 145/169/145 149/173/149 148/172/148
f 148/172/148 149/173/149 151/175/151
s 9
f 17/176/152 34/177/153 6/190/154
f 6/190/154 34/177/153 4/189/155
f 4/189/155 34/177/153 1/188/156
f 34/177/153 67/178/157 1/188/156
f 1/188/156 67/178/157 10/187/158
f 67/178/157 94/179/159 10/187/158
f 10/187/158 94/179/159 23/186/160
f 94/179/159 111/180/161 23/186/160
f 23/186/160 111/180/161 42/185/162
f 111/180/161 125/181/163 42/185/162
f 42/185/162 125/181/163 78/184/164
f 125/181/163 118/182/165 78/184/164
f 118/182/165 102/183/166 78/184/164
