# This file uses centimeters as units for non-parametric coordinates.

mtllib Poste.mtl
g default
v 0.041060 2.604238 0.000010
v 0.041060 0.727072 0.000010
v 0.000000 2.604238 -0.041050
v 0.000000 0.727072 0.041060
v 0.000000 2.604238 0.041060
v -0.041060 0.727072 0.000010
v -0.041060 2.604238 0.000010
v 0.000000 0.727072 -0.041050
v 0.000000 0.619800 0.041060
v -0.041060 0.619800 0.000010
v 0.041060 0.619800 0.000010
v 0.000000 0.619800 -0.041050
v 0.261685 2.404213 0.000010
v -0.261685 2.404213 0.000010
v 0.261685 2.385050 0.019173
v -0.261685 2.385050 -0.019173
v 0.261685 2.385050 -0.019173
v -0.261685 2.365876 0.000010
v 0.261685 2.365876 0.000010
v -0.261685 2.385050 0.019173
v 0.000000 -0.000050 -0.242903
v -0.242903 0.169154 0.000010
v 0.000000 0.169154 -0.242903
v -0.242903 -0.000050 0.000010
v 0.000000 0.332239 -0.136083
v 0.154945 0.195744 0.000010
v 0.000000 0.195744 -0.154935
v 0.136093 0.332239 0.000010
v 0.000000 0.195744 0.154945
v 0.000000 0.332239 0.136093
v -0.136093 0.332239 0.000010
v -0.154945 0.195744 0.000010
v 0.000000 0.409153 -0.160914
v 0.160914 0.409153 0.000010
v -0.160914 0.409153 0.000010
v 0.000000 0.409153 0.160914
v 0.000000 0.169154 0.242903
v 0.000000 -0.000050 0.242903
v 0.242913 -0.000050 0.000010
v 0.242913 0.169154 0.000010
v -0.041060 0.619800 0.000010
v -0.081778 0.619800 0.000010
v -0.057832 0.619800 0.057832
v -0.057832 0.619800 -0.057822
v 0.000000 0.619800 -0.041050
v 0.000000 0.619800 -0.081778
v 0.057832 0.619800 -0.057822
v 0.041060 0.619800 0.000010
v 0.081788 0.619800 0.000010
v 0.057832 0.619800 0.057832
v 0.000000 0.554632 -0.215430
v 0.090189 0.554632 -0.090179
v 0.215430 0.554632 0.000010
v 0.000000 0.554632 -0.127531
v -0.090189 0.554632 -0.090179
v -0.215440 0.554632 0.000010
v -0.127551 0.554632 0.000010
v -0.090189 0.554632 0.090189
v 0.215430 0.554632 0.000010
v 0.000000 0.439853 0.215440
v 0.215430 0.439853 0.000010
v 0.000000 0.554632 0.215440
v -0.215440 0.439853 0.000010
v -0.215440 0.554632 0.000010
v 0.000000 0.554632 -0.215430
v 0.000000 0.439853 -0.215430
v 0.000000 0.409153 -0.160914
v -0.215440 0.439853 0.000010
v 0.000000 0.439853 -0.215430
v -0.160914 0.409153 0.000010
v 0.215430 0.439853 0.000010
v 0.000000 0.409153 0.160914
v 0.160914 0.409153 0.000010
v 0.000000 0.439853 0.215440
v 0.000000 0.439853 0.215440
v -0.160914 0.409153 0.000010
v 0.000000 0.409153 0.160914
v -0.215440 0.439853 0.000010
v 0.000000 0.195744 0.154945
v -0.242903 0.169154 0.000010
v 0.000000 0.169154 0.242903
v -0.154945 0.195744 0.000010
v 0.000000 0.195744 -0.154935
v 0.242913 0.169154 0.000010
v 0.000000 0.169154 -0.242903
v 0.154945 0.195744 0.000010
v 0.154945 0.195744 0.000010
v 0.000000 0.169154 0.242903
v 0.242913 0.169154 0.000010
v 0.000000 0.195744 0.154945
v 0.081788 0.619800 0.000010
v 0.090189 0.554632 0.090189
v 0.127541 0.554632 0.000010
v 0.057832 0.619800 0.057832
v 0.000000 0.554632 0.127541
v 0.000000 0.619800 0.081788
v -0.090189 0.554632 0.090189
v -0.057832 0.619800 0.057832
v -0.127551 0.554632 0.000010
v -0.081778 0.619800 0.000010
v 0.000000 0.439853 -0.215430
v 0.160914 0.409153 0.000010
v 0.000000 0.409153 -0.160914
v 0.215430 0.439853 0.000010
v -0.090189 0.554632 -0.090179
v -0.057832 0.619800 -0.057822
v 0.000000 0.554632 -0.127531
v 0.000000 0.619800 -0.081778
v 0.000000 0.619800 -0.081778
v 0.090189 0.554632 -0.090179
v 0.000000 0.554632 -0.127531
v 0.057832 0.619800 -0.057822
v 0.000000 0.169154 -0.242903
v -0.154945 0.195744 0.000010
v 0.000000 0.195744 -0.154935
v -0.242903 0.169154 0.000010
v 0.000000 0.619800 0.041060
v 0.000000 0.619800 0.081788
v 0.127541 0.554632 0.000010
v 0.090189 0.554632 0.090189
v 0.000000 0.554632 0.215440
v 0.000000 0.554632 0.127541
vt -0.492200 1.000000
vt -0.492200 2.906200
vt -0.546900 1.000000
vt -0.445300 2.906200
vt -0.445300 1.000000
vt -0.492200 2.906200
vt -0.492200 1.000000
vt -0.546900 2.906200
vt -0.445300 3.015600
vt -0.492200 3.015600
vt -0.492200 3.015600
vt -0.546900 3.015600
vt 0.414100 -0.968800
vt 0.414100 3.421900
vt 0.492200 -0.968800
vt 0.492200 3.421900
vt 0.492200 -0.968800
vt 0.562500 3.421900
vt 0.562500 -0.968800
vt 0.492200 3.421900
vt 0.859400 -3.375000
vt 0.359400 -3.109400
vt 0.859400 -3.109400
vt 0.359400 -3.375000
vt 0.609400 -2.125000
vt 1.109400 -2.609400
vt 0.609400 -2.609400
vt 1.109400 -2.125000
vt 0.609400 -2.609400
vt 0.609400 -2.125000
vt 0.109400 -2.125000
vt 0.109400 -2.609400
vt 0.609400 -1.859400
vt 1.109400 -1.859400
vt 0.109400 -1.859400
vt 0.609400 -1.859400
vt -0.125000 -3.109400
vt -0.125000 -3.375000
vt 0.359400 -3.375000
vt 0.359400 -3.109400
vt 0.703100 0.125000
vt 0.687500 0.125000
vt 0.703100 0.093800
vt 0.703100 0.140600
vt 0.734400 0.140600
vt 0.734400 0.156200
vt 0.765600 0.140600
vt 0.750000 0.125000
vt 0.765600 0.125000
vt 0.765600 0.093800
vt 0.734400 0.234400
vt 0.781200 0.171900
vt 0.843800 0.125000
vt 0.734400 0.187500
vt 0.687500 0.171900
vt 0.625000 0.125000
vt 0.671900 0.125000
vt 0.687500 0.078100
vt 4.796900 -2.156200
vt 4.000000 -2.500000
vt 4.796900 -2.500000
vt 4.000000 -2.156200
vt 3.203100 -2.500000
vt 3.203100 -2.156200
vt 4.000000 -2.156200
vt 4.000000 -2.500000
vt 4.343800 -3.984400
vt 5.593800 -3.484400
vt 4.125000 -3.484400
vt 5.390600 -3.984400
vt 5.593800 -3.484400
vt 4.343800 -3.984400
vt 5.390600 -3.984400
vt 4.125000 -3.484400
vt 5.593800 -3.484400
vt 4.343800 -3.984400
vt 5.390600 -3.984400
vt 4.125000 -3.484400
vt -2.515600 -1.875000
vt -3.968800 -2.234400
vt -2.187500 -2.234400
vt -3.640600 -1.875000
vt -2.515600 -1.875000
vt -3.968800 -2.234400
vt -2.187500 -2.234400
vt -3.640600 -1.875000
vt -2.515600 -1.875000
vt -3.968800 -2.234400
vt -2.187500 -2.234400
vt -3.640600 -1.875000
vt 3.953100 0.750000
vt 3.703100 0.500000
vt 3.953100 0.500000
vt 3.703100 0.750000
vt 3.453100 0.500000
vt 3.453100 0.750000
vt 3.203100 0.500000
vt 3.203100 0.750000
vt 2.953100 0.500000
vt 2.953100 0.750000
vt 5.593800 -3.484400
vt 4.343800 -3.984400
vt 5.390600 -3.984400
vt 4.125000 -3.484400
vt 2.703100 0.500000
vt 2.703100 0.750000
vt 2.453100 0.500000
vt 2.453100 0.750000
vt 4.453100 0.750000
vt 4.203100 0.500000
vt 4.453100 0.500000
vt 4.203100 0.750000
vt -3.968800 -2.234400
vt -2.515600 -1.875000
vt -3.640600 -1.875000
vt -2.187500 -2.234400
vt 0.734400 0.093800
vt 0.734400 0.078100
vt 0.796900 0.125000
vt 0.781200 0.078100
vt 0.734400 0.015600
vt 0.734400 0.062500
vn 1.000000 0.000000 0.000100
vn 1.000000 0.000000 0.000100
vn 0.000100 0.000000 -1.000000
vn 1.000000 0.000000 0.000100
vn 1.000000 0.000000 0.000100
vn 0.000000 0.000000 1.000000
vn 0.000100 0.000000 1.000000
vn 0.000000 0.000000 1.000000
vn 1.000000 0.000000 0.000100
vn 0.000000 0.000000 1.000000
vn 0.000100 0.000000 1.000000
vn -1.000000 0.000000 0.000100
vn -1.000000 0.000000 0.000100
vn -1.000000 0.000000 0.000100
vn 0.000100 0.000000 1.000000
vn -1.000000 0.000000 0.000100
vn -1.000000 0.000000 0.000100
vn 0.000000 0.000000 -1.000000
vn 0.000100 0.000000 -1.000000
vn 0.000000 0.000000 -1.000000
vn -1.000000 0.000000 0.000100
vn 0.000000 0.000000 -1.000000
vn 0.000100 0.000000 -1.000000
vn 1.000000 0.000000 0.000100
vn -0.000100 0.000000 1.000000
vn 0.000000 0.000000 1.000000
vn -1.000000 0.000000 0.000000
vn 0.000000 0.000000 1.000000
vn -0.000100 0.000000 1.000000
vn 1.000000 0.000000 0.000100
vn 1.000000 0.000000 0.000100
vn 1.000000 0.000000 0.000100
vn -0.000100 0.000000 1.000000
vn 1.000000 0.000000 0.000100
vn 1.000000 0.000000 0.000100
vn 0.000000 0.000000 -1.000000
vn 0.000000 0.000000 -1.000000
vn 0.000000 0.000000 -1.000000
vn 1.000000 0.000000 0.000100
vn 0.000000 0.000000 -1.000000
vn 0.000000 0.000000 -1.000000
vn -1.000000 0.000000 0.000100
vn -1.000000 0.000000 0.000000
vn -1.000000 0.000000 0.000100
vn 0.000000 0.000000 -1.000000
vn -1.000000 0.000000 0.000100
vn -1.000000 0.000000 0.000000
vn 0.000000 0.000000 1.000000
vn 0.000000 1.000000 0.000300
vn 0.000000 1.000000 0.000300
vn 0.000000 0.000100 1.000000
vn 0.000000 1.000000 0.000300
vn 0.000000 1.000000 0.000300
vn 0.000000 0.000100 -1.000000
vn 0.000000 0.000100 -1.000000
vn 0.000000 0.000100 -1.000000
vn 0.000000 1.000000 0.000300
vn 0.000000 0.000100 -1.000000
vn 0.000000 0.000100 -1.000000
vn 0.000000 -1.000000 0.000300
vn 0.000000 -1.000000 0.000300
vn 0.000000 -1.000000 0.000300
vn 0.000000 0.000100 -1.000000
vn 0.000000 -1.000000 0.000300
vn 0.000000 -1.000000 0.000300
vn 0.000000 0.000100 1.000000
vn 0.000000 0.000100 1.000000
vn 0.000000 0.000100 1.000000
vn 0.000000 -1.000000 0.000300
vn 0.000000 0.000100 1.000000
vn 0.000000 0.000100 1.000000
vn 0.000000 1.000000 0.000300
vn 0.000000 0.000000 -1.000000
vn -1.000000 0.000000 0.000000
vn 0.000000 0.000000 -1.000000
vn -1.000000 0.000000 0.000000
vn 0.000000 0.000000 -1.000000
vn -1.000000 0.000000 0.000000
vn 0.000000 -0.097603 -0.995225
vn 0.990599 0.136800 0.000000
vn 0.000000 0.136800 -0.990599
vn 0.990599 0.136800 0.000000
vn 0.000000 -0.097603 -0.995225
vn 0.995225 -0.097603 0.000000
vn 0.995225 -0.097603 0.000000
vn 0.000000 0.136800 0.990599
vn 0.990599 0.136800 0.000000
vn 0.000000 0.136800 0.990599
vn 0.995225 -0.097603 0.000000
vn 0.000000 -0.097603 0.995225
vn 0.000000 0.136800 0.990599
vn -0.995235 -0.097503 0.000000
vn -0.990585 0.136898 0.000000
vn -0.995235 -0.097503 0.000000
vn 0.000000 0.136800 0.990599
vn 0.000000 -0.097603 0.995225
vn 0.000000 0.136800 -0.990599
vn -0.995235 -0.097503 0.000000
vn 0.000000 -0.097603 -0.995225
vn -0.995235 -0.097503 0.000000
vn 0.000000 0.136800 -0.990599
vn -0.990585 0.136898 0.000000
vn 0.000000 -0.307184 -0.951650
vn 0.995225 -0.097603 0.000000
vn 0.000000 -0.097603 -0.995225
vn 0.995225 -0.097603 0.000000
vn 0.000000 -0.307184 -0.951650
vn 0.951679 -0.307093 0.000000
vn 0.000000 -0.097603 0.995225
vn -0.951679 -0.307093 0.000000
vn -0.995235 -0.097503 0.000000
vn -0.951679 -0.307093 0.000000
vn 0.000000 -0.097603 0.995225
vn 0.000000 -0.307213 0.951641
vn 0.951679 -0.307093 0.000000
vn 0.000000 -0.097603 0.995225
vn 0.995225 -0.097603 0.000000
vn 0.000000 -0.097603 0.995225
vn 0.951679 -0.307093 0.000000
vn 0.000000 -0.307213 0.951641
vn 0.000000 -0.097603 -0.995225
vn -0.951679 -0.307093 0.000000
vn 0.000000 -0.307184 -0.951650
vn -0.951679 -0.307093 0.000000
vn 0.000000 -0.097603 -0.995225
vn -0.995235 -0.097503 0.000000
vn 0.000000 0.000000 1.000000
vn -1.000000 0.000000 0.000000
vn 0.000000 0.000000 1.000000
vn -1.000000 0.000000 0.000000
vn 0.000000 0.000000 1.000000
vn -1.000000 0.000000 0.000000
vn 0.000000 0.000000 -1.000000
vn 1.000000 0.000000 0.000000
vn 0.000000 0.000000 -1.000000
vn 1.000000 0.000000 0.000000
vn 0.000000 0.000000 -1.000000
vn 1.000000 0.000000 0.000000
vn 1.000000 0.000000 0.000000
vn 0.000000 0.000000 1.000000
vn 1.000000 0.000000 0.000000
vn 0.000000 0.000000 1.000000
vn 1.000000 0.000000 0.000000
vn 0.000000 0.000000 1.000000
vn 0.000000 1.000000 0.000000
vn 0.000000 1.000000 0.000000
vn 0.000000 1.000000 0.000000
vn 0.000000 1.000000 0.000000
vn 0.000000 1.000000 0.000000
vn 0.000000 1.000000 0.000000
vn 0.000000 1.000000 0.000000
vn 0.000000 1.000000 0.000000
vn 0.000000 1.000000 0.000000
vn 0.000000 1.000000 0.000000
vn 0.000000 1.000000 0.000000
vn 0.000000 1.000000 0.000000
vn 0.000000 1.000000 0.000000
vn 0.000000 1.000000 0.000000
vn 0.000000 1.000000 0.000000
vn 0.000000 1.000000 0.000000
vn 0.000000 1.000000 0.000000
vn 0.000000 1.000000 0.000000
vn 0.000000 1.000000 0.000000
vn 0.000000 1.000000 0.000000
vn 0.000000 1.000000 0.000000
vn 0.000000 1.000000 0.000000
vn 0.000000 1.000000 0.000000
vn 0.000000 1.000000 0.000000
vn 0.000000 1.000000 0.000000
vn 0.000000 1.000000 0.000000
vn 0.000000 1.000000 0.000000
vn 0.000000 1.000000 0.000000
vn 0.000000 1.000000 0.000000
vn 0.000000 1.000000 0.000000
vn 0.000000 1.000000 0.000000
vn 0.000000 1.000000 0.000000
vn 0.000000 1.000000 0.000000
vn 0.000000 1.000000 0.000000
vn 0.000000 1.000000 0.000000
vn 0.000000 1.000000 0.000000
vn 0.000000 1.000000 0.000000
vn 0.000000 1.000000 0.000000
vn 0.000000 1.000000 0.000000
vn 0.000000 1.000000 0.000000
vn 0.000000 1.000000 0.000000
vn 0.000000 1.000000 0.000000
vn 1.000000 0.000000 0.000000
vn 0.000000 0.000000 1.000000
vn 1.000000 0.000000 0.000000
vn 0.000000 0.000000 1.000000
vn 1.000000 0.000000 0.000000
vn 0.000000 0.000000 1.000000
vn 0.000000 0.000000 1.000000
vn -1.000000 0.000000 0.000000
vn 0.000000 0.000000 1.000000
vn -1.000000 0.000000 0.000000
vn 0.000000 0.000000 1.000000
vn -1.000000 0.000000 0.000000
vn 0.000000 0.000000 -1.000000
vn 1.000000 0.000000 0.000000
vn 0.000000 0.000000 -1.000000
vn 1.000000 0.000000 0.000000
vn 0.000000 0.000000 -1.000000
vn 1.000000 0.000000 0.000000
vn -0.440518 -0.782232 -0.440518
vn -0.440423 -0.782340 -0.440423
vn -0.440518 -0.782232 -0.440518
vn -0.440423 -0.782340 -0.440423
vn -0.440518 -0.782232 -0.440518
vn -0.440388 -0.782379 -0.440388
vn 0.440518 -0.782232 0.440518
vn 0.440423 -0.782340 0.440423
vn 0.440499 -0.782198 0.440599
vn 0.440423 -0.782340 0.440423
vn 0.440518 -0.782232 0.440518
vn 0.440388 -0.782379 0.440388
vn -0.440484 -0.782271 0.440484
vn -0.440403 -0.782306 0.440503
vn -0.440484 -0.782271 0.440484
vn -0.440403 -0.782306 0.440503
vn -0.440484 -0.782271 0.440484
vn -0.440423 -0.782340 0.440423
vn 0.000000 0.000000 -1.000000
vn -1.000000 0.000000 0.000000
vn 0.000000 0.000000 -1.000000
vn -1.000000 0.000000 0.000000
vn 0.000000 0.000000 -1.000000
vn -1.000000 0.000000 0.000000
vn -0.277993 0.919478 0.277993
vn -0.277993 0.919478 0.277993
vn -0.277993 0.919478 0.277993
vn -0.277993 0.919478 0.277993
vn -0.277993 0.919478 0.277993
vn -0.277901 0.919503 0.278001
vn 0.277909 0.919529 -0.277909
vn 0.277909 0.919529 -0.277909
vn 0.277909 0.919529 -0.277909
vn 0.277909 0.919529 -0.277909
vn 0.277909 0.919529 -0.277909
vn 0.277909 0.919529 -0.277909
vn 0.277909 0.919529 0.277909
vn 0.277901 0.919503 0.278001
vn 0.277909 0.919529 0.277909
vn 0.277901 0.919503 0.278001
vn 0.277909 0.919529 0.277909
vn 0.277901 0.919503 0.278001
vn 0.818423 0.574616 0.000000
vn 0.578614 0.574714 0.578714
vn 0.818423 0.574616 0.000000
vn 0.578614 0.574714 0.578714
vn 0.818423 0.574616 0.000000
vn 0.578614 0.574714 0.578714
vn 0.578614 0.574714 0.578714
vn 0.000000 0.574616 0.818423
vn 0.578614 0.574714 0.578714
vn 0.000000 0.574616 0.818423
vn 0.578614 0.574714 0.578714
vn 0.000100 0.574616 0.818423
vn 0.000100 0.574616 0.818423
vn -0.578680 0.574681 0.578680
vn 0.000000 0.574616 0.818423
vn -0.578680 0.574681 0.578680
vn 0.000100 0.574616 0.818423
vn -0.578680 0.574681 0.578680
vn -0.578680 0.574681 0.578680
vn -0.818376 0.574683 0.000000
vn -0.578680 0.574681 0.578680
vn -0.818376 0.574683 0.000000
vn -0.578680 0.574681 0.578680
vn -0.818376 0.574683 0.000000
vn 0.440484 -0.782271 -0.440484
vn 0.440484 -0.782271 -0.440484
vn 0.440518 -0.782232 -0.440518
vn 0.440484 -0.782271 -0.440484
vn 0.440484 -0.782271 -0.440484
vn 0.440484 -0.782271 -0.440484
vn -0.818376 0.574683 0.000000
vn -0.578680 0.574681 -0.578680
vn -0.818376 0.574683 0.000000
vn -0.578680 0.574681 -0.578680
vn -0.818376 0.574683 0.000000
vn -0.578814 0.574614 -0.578614
vn -0.578814 0.574614 -0.578614
vn -0.321094 0.544189 -0.775085
vn -0.578680 0.574681 -0.578680
vn -0.321094 0.544189 -0.775085
vn -0.578814 0.574614 -0.578614
vn -0.321201 0.544102 -0.775102
vn 0.321094 0.544189 -0.775085
vn 0.578680 0.574681 -0.578680
vn 0.321094 0.544189 -0.775085
vn 0.578680 0.574681 -0.578680
vn 0.321094 0.544189 -0.775085
vn 0.578680 0.574681 -0.578680
vn -0.277909 0.919529 -0.277909
vn -0.277993 0.919478 -0.277993
vn -0.277909 0.919529 -0.277909
vn -0.277993 0.919478 -0.277993
vn -0.277909 0.919529 -0.277909
vn -0.277993 0.919478 -0.277993
vn 0.578680 0.574681 -0.578680
vn 0.818423 0.574616 0.000000
vn 0.578680 0.574681 -0.578680
vn 0.818423 0.574616 0.000000
vn 0.578680 0.574681 -0.578680
vn 0.818423 0.574616 0.000000
vn 0.000000 1.000000 0.000000
vn 0.000000 1.000000 0.000000
vn 0.000000 1.000000 0.000000
vn 0.000000 1.000000 0.000000
vn 0.000000 1.000000 0.000000
vn 0.000000 1.000000 0.000000
vn 0.000000 1.000000 0.000000
vn 0.000000 1.000000 0.000000
vn 0.000000 1.000000 0.000000
vn 0.000000 1.000000 0.000000
vn 0.000000 1.000000 0.000000
vn 0.000000 1.000000 0.000000
vn 0.000000 1.000000 0.000000
vn 0.000000 1.000000 0.000000
vn 0.000000 1.000000 0.000000
vn 0.000000 1.000000 0.000000
vn 0.000000 1.000000 0.000000
vn 0.000000 1.000000 0.000000
vn 0.000000 1.000000 0.000000
vn 0.000000 1.000000 0.000000
vn 0.000000 1.000000 0.000000
vn 0.000000 1.000000 0.000000
vn 0.000000 1.000000 0.000000
vn 0.000000 1.000000 0.000000
vn 0.000000 1.000000 0.000000
vn 0.000000 1.000000 0.000000
vn 0.000000 1.000000 0.000000
vn 0.000000 1.000000 0.000000
vn 0.000000 1.000000 0.000000
vn 0.000000 1.000000 0.000000
s off
g polySurface28 Poste:Mesh
usemtl Poste:m17CastMS10
f 1/1/1 2/2/2 3/3/3
f 2/2/4 1/1/5 4/4/6
f 5/5/7 4/4/8 1/1/9
f 4/4/10 5/5/11 6/6/12
f 7/7/13 6/6/14 5/5/15
f 6/6/16 7/7/17 8/8/18
f 3/3/19 8/8/20 7/7/21
f 8/8/22 3/3/23 2/2/24
f 9/9/25 4/4/26 10/10/27
f 4/4/28 9/9/29 2/2/30
f 11/11/31 2/2/32 9/9/33
f 2/2/34 11/11/35 8/8/36
f 12/12/37 8/8/38 11/11/39
f 8/8/40 12/12/41 6/6/42
f 10/10/43 6/6/44 12/12/45
f 6/6/46 10/10/47 4/4/48
f 13/13/49 14/14/50 15/15/51
f 14/14/52 13/13/53 16/16/54
f 17/17/55 16/16/56 13/13/57
f 16/16/58 17/17/59 18/18/60
f 19/19/61 18/18/62 17/17/63
f 18/18/64 19/19/65 20/20/66
f 15/15/67 20/20/68 19/19/69
f 20/20/70 15/15/71 14/14/72
usemtl Poste:m0CastSS26_t
f 21/21/73 22/22/74 23/23/75
f 22/22/76 21/21/77 24/24/78
f 25/25/79 26/26/80 27/27/81
f 26/26/82 25/25/83 28/28/84
f 28/28/85 29/29/86 26/26/87
f 29/29/88 28/28/89 30/30/90
f 29/29/91 31/31/92 32/32/93
f 31/31/94 29/29/95 30/30/96
f 27/27/97 31/31/98 25/25/99
f 31/31/100 27/27/101 32/32/102
f 33/33/103 28/28/104 25/25/105
f 28/28/106 33/33/107 34/34/108
f 30/30/109 35/35/110 31/31/111
f 35/35/112 30/30/113 36/36/114
f 34/34/115 30/30/116 28/28/117
f 30/30/118 34/34/119 36/36/120
f 25/25/121 35/35/122 33/33/123
f 35/35/124 25/25/125 31/31/126
f 37/37/127 24/24/128 38/38/129
f 24/24/130 37/37/131 22/22/132
f 23/23/133 39/39/134 21/21/135
f 39/39/136 23/23/137 40/40/138
f 40/40/139 38/38/140 39/39/141
f 38/38/142 40/40/143 37/37/144
usemtl Poste:m3CastSS23_t
f 41/41/145 42/42/146 43/43/147
f 42/42/148 41/41/149 44/44/150
f 45/45/151 44/44/152 41/41/153
f 44/44/154 45/45/155 46/46/156
f 47/47/157 46/46/158 45/45/159
f 48/48/160 47/47/161 45/45/162
f 47/47/163 48/48/164 49/49/165
f 50/50/166 49/49/167 48/48/168
f 51/51/169 52/52/170 53/53/171
f 52/52/172 51/51/173 54/54/174
f 55/55/175 54/54/176 51/51/177
f 56/56/178 55/55/179 51/51/180
f 55/55/181 56/56/182 57/57/183
f 58/58/184 57/57/185 56/56/186
f 59/59/187 60/60/188 61/61/189
f 60/60/190 59/59/191 62/62/192
f 62/62/193 63/63/194 60/60/195
f 63/63/196 62/62/197 64/64/198
f 65/65/199 61/61/200 66/66/201
f 61/61/202 65/65/203 59/59/204
f 67/67/205 68/68/206 69/69/207
f 68/68/208 67/67/209 70/70/210
f 71/71/211 72/72/212 73/73/213
f 72/72/214 71/71/215 74/74/216
f 75/75/217 76/76/218 77/77/219
f 76/76/220 75/75/221 78/78/222
f 66/66/223 64/64/224 65/65/225
f 64/64/226 66/66/227 63/63/228
f 79/79/229 80/80/230 81/81/231
f 80/80/232 79/79/233 82/82/234
f 83/83/235 84/84/236 85/85/237
f 84/84/238 83/83/239 86/86/240
f 87/87/241 88/88/242 89/89/243
f 88/88/244 87/87/245 90/90/246
f 91/91/247 92/92/248 93/93/249
f 92/92/250 91/91/251 94/94/252
f 94/94/253 95/95/254 92/92/255
f 95/95/256 94/94/257 96/96/258
f 96/96/259 97/97/260 95/95/261
f 97/97/262 96/96/263 98/98/264
f 98/98/265 99/99/266 97/97/267
f 99/99/268 98/98/269 100/100/270
f 101/101/271 102/102/272 103/103/273
f 102/102/274 101/101/275 104/104/276
f 100/100/277 105/105/278 99/99/279
f 105/105/280 100/100/281 106/106/282
f 106/106/283 107/107/284 105/105/285
f 107/107/286 106/106/287 108/108/288
f 109/109/289 110/110/290 111/111/291
f 110/110/292 109/109/293 112/112/294
f 113/113/295 114/114/296 115/115/297
f 114/114/298 113/113/299 116/116/300
f 112/112/301 93/93/302 110/110/303
f 93/93/304 112/112/305 91/91/306
f 43/43/307 117/117/308 41/41/309
f 117/117/310 43/43/311 118/118/312
f 50/50/313 117/117/314 118/118/315
f 117/117/316 50/50/317 48/48/318
f 119/119/319 53/53/320 52/52/321
f 53/53/322 119/119/323 120/120/324
f 120/120/325 121/121/326 53/53/327
f 121/121/328 120/120/329 122/122/330
f 121/121/331 58/58/332 56/56/333
f 58/58/334 121/121/335 122/122/336
