# This file uses centimeters as units for non-parametric coordinates.

mtllib QuestionBlock.mtl
g default
v -0.190421 -0.200442 0.190421
v -0.190421 -0.190421 0.200442
v -0.200442 -0.190421 0.190421
v 0.200442 -0.190421 0.190421
v 0.190421 -0.190421 0.200442
v 0.190421 -0.200442 0.190421
v -0.200442 0.190421 0.190421
v -0.190421 0.190421 0.200442
v -0.190421 0.200442 0.190421
v 0.190421 0.200442 0.190421
v 0.190421 0.190421 0.200442
v 0.200442 0.190421 0.190421
v -0.200442 0.190421 -0.190421
v -0.190421 0.200442 -0.190421
v -0.190421 0.190421 -0.200442
v 0.190421 0.190421 -0.200442
v 0.190421 0.200442 -0.190421
v 0.200442 0.190421 -0.190421
v -0.200442 -0.190421 -0.190421
v -0.190421 -0.190421 -0.200442
v -0.190421 -0.200442 -0.190421
v 0.190421 -0.200442 -0.190421
v 0.190421 -0.190421 -0.200442
v 0.200442 -0.190421 -0.190421
vt 0.721711 0.325175
vt 0.721584 0.325537
vt 0.713956 0.325175
vt 0.714083 0.325537
vt 0.721838 0.325537
vt 0.729339 0.325537
vt 0.729466 0.325175
vt 0.721584 0.337448
vt 0.721838 0.337448
vt 0.729592 0.325537
vt 0.737094 0.325537
vt 0.737221 0.325175
vt 0.729339 0.337448
vt 0.729592 0.337448
vt 0.721711 0.337810
vt 0.714083 0.337448
vt 0.713956 0.337810
vt 0.729466 0.337810
vt 0.737221 0.337810
vt 0.737094 0.337448
vt 0.713830 0.337448
vt 0.713830 0.325537
vt 0.744849 0.337448
vt 0.744976 0.337810
vt 0.737347 0.337448
vt 0.737347 0.325537
vt 0.744976 0.325175
vt 0.744849 0.325537
vt -0.000000 -0.000000
vt 1.000000 -0.000000
vt -0.000000 1.000000
vt 1.000000 1.000000
vt 0.752730 0.337810
vt 0.760485 0.337810
vt 1.000000 1.000000
vt 0.000000 1.000000
vt 1.000000 -0.000000
vt 0.000000 -0.000000
vt 0.025638 -0.000000
vt 1.000000 -0.000000
vt 0.025638 1.000000
vt 1.000000 1.000000
vt 0.000000 -0.000000
vt 0.974362 -0.000000
vt 0.000000 1.000000
vt 0.974362 1.000000
vn -0.707108 -0.707105 0.000000
vn -0.707108 -0.707105 0.000000
vn -0.707106 -0.707108 0.000000
vn -0.707106 -0.707108 0.000000
vn -0.707108 -0.707105 0.000000
vn -0.707106 -0.707108 0.000000
vn 0.000000 -0.707108 0.707105
vn 0.000000 -0.707108 0.707105
vn 0.000000 -0.707106 0.707108
vn 0.000000 -0.707106 0.707108
vn 0.000000 -0.707108 0.707105
vn 0.000000 -0.707106 0.707108
vn -0.707105 0.000000 0.707108
vn -0.707105 0.000000 0.707108
vn -0.707108 0.000000 0.707106
vn -0.707108 0.000000 0.707106
vn -0.707105 0.000000 0.707108
vn -0.707108 0.000000 0.707106
vn 0.707106 -0.707108 0.000000
vn 0.707106 -0.707108 0.000000
vn 0.707108 -0.707105 0.000000
vn 0.707108 -0.707105 0.000000
vn 0.707106 -0.707108 0.000000
vn 0.707108 -0.707105 0.000000
vn 0.707108 0.000000 0.707106
vn 0.707108 0.000000 0.707106
vn 0.707105 0.000000 0.707108
vn 0.707105 0.000000 0.707108
vn 0.707108 0.000000 0.707106
vn 0.707105 0.000000 0.707108
vn -0.707106 0.707108 0.000000
vn -0.707106 0.707108 0.000000
vn -0.707108 0.707105 0.000000
vn -0.707108 0.707105 0.000000
vn -0.707106 0.707108 0.000000
vn -0.707108 0.707105 0.000000
vn 0.000000 0.707106 0.707108
vn 0.000000 0.707106 0.707108
vn 0.000000 0.707108 0.707105
vn 0.000000 0.707108 0.707105
vn 0.000000 0.707106 0.707108
vn 0.000000 0.707108 0.707105
vn 0.707108 0.707105 0.000000
vn 0.707108 0.707105 0.000000
vn 0.707106 0.707108 0.000000
vn 0.707106 0.707108 0.000000
vn 0.707108 0.707105 0.000000
vn 0.707106 0.707108 0.000000
vn -0.707105 0.000000 -0.707108
vn -0.707105 0.000000 -0.707108
vn -0.707108 0.000000 -0.707106
vn -0.707108 0.000000 -0.707106
vn -0.707105 0.000000 -0.707108
vn -0.707108 0.000000 -0.707106
vn 0.000000 0.707108 -0.707105
vn 0.000000 0.707108 -0.707105
vn 0.000000 0.707106 -0.707108
vn 0.000000 0.707106 -0.707108
vn 0.000000 0.707108 -0.707105
vn 0.000000 0.707106 -0.707108
vn 0.707108 0.000000 -0.707106
vn 0.707108 0.000000 -0.707106
vn 0.707105 0.000000 -0.707108
vn 0.707105 0.000000 -0.707108
vn 0.707108 0.000000 -0.707106
vn 0.707105 0.000000 -0.707108
vn 0.000000 -0.707106 -0.707108
vn 0.000000 -0.707106 -0.707108
vn 0.000000 -0.707108 -0.707105
vn 0.000000 -0.707108 -0.707105
vn 0.000000 -0.707106 -0.707108
vn 0.000000 -0.707108 -0.707105
vn 0.000000 0.000000 1.000000
vn 0.000000 0.000000 1.000000
vn 0.000000 0.000000 1.000000
vn 0.000000 0.000000 1.000000
vn 0.000000 0.000000 1.000000
vn 0.000000 0.000000 1.000000
vn 0.000000 1.000000 0.000000
vn 0.000000 1.000000 0.000000
vn 0.000000 1.000000 0.000000
vn 0.000000 1.000000 0.000000
vn 0.000000 1.000000 0.000000
vn 0.000000 1.000000 0.000000
vn 0.000000 0.000000 -1.000000
vn 0.000000 0.000000 -1.000000
vn 0.000000 0.000000 -1.000000
vn 0.000000 0.000000 -1.000000
vn 0.000000 0.000000 -1.000000
vn 0.000000 0.000000 -1.000000
vn 0.000000 -1.000000 0.000000
vn 0.000000 -1.000000 0.000000
vn 0.000000 -1.000000 0.000000
vn 0.000000 -1.000000 0.000000
vn 0.000000 -1.000000 0.000000
vn 0.000000 -1.000000 0.000000
vn 1.000000 0.000000 0.000000
vn 1.000000 0.000000 0.000000
vn 1.000000 0.000000 0.000000
vn 1.000000 0.000000 0.000000
vn 1.000000 0.000000 0.000000
vn 1.000000 0.000000 0.000000
vn -1.000000 0.000000 0.000000
vn -1.000000 0.000000 0.000000
vn -1.000000 0.000000 0.000000
vn -1.000000 0.000000 0.000000
vn -1.000000 0.000000 0.000000
vn -1.000000 0.000000 0.000000
vn -0.577350 -0.577350 0.577350
vn -0.577350 -0.577350 0.577350
vn -0.577350 -0.577350 0.577350
vn 0.577350 -0.577350 0.577350
vn 0.577350 -0.577350 0.577350
vn 0.577350 -0.577350 0.577350
vn -0.577350 0.577350 0.577350
vn -0.577350 0.577350 0.577350
vn -0.577350 0.577350 0.577350
vn 0.577350 0.577350 0.577350
vn 0.577350 0.577350 0.577350
vn 0.577350 0.577350 0.577350
vn -0.577350 0.577350 -0.577350
vn -0.577350 0.577350 -0.577350
vn -0.577350 0.577350 -0.577350
vn 0.577350 0.577350 -0.577350
vn 0.577350 0.577350 -0.577350
vn 0.577350 0.577350 -0.577350
vn -0.577350 -0.577350 -0.577350
vn -0.577350 -0.577350 -0.577350
vn -0.577350 -0.577350 -0.577350
vn 0.577350 -0.577350 -0.577350
vn 0.577350 -0.577350 -0.577350
vn 0.577350 -0.577350 -0.577350
s off
g QuestionBlock:pCube2
usemtl QuestionBlock:lambert2SG
f 1/1/1 3/2/2 21/3/3
f 21/3/4 3/2/5 19/4/6
f 2/5/7 1/1/8 5/6/9
f 5/6/10 1/1/11 6/7/12
f 3/2/13 2/5/14 7/8/15
f 7/8/16 2/5/17 8/9/18
f 4/10/19 6/7/20 24/11/21
f 24/11/22 6/7/23 22/12/24
f 5/6/25 4/10/26 11/13/27
f 11/13/28 4/10/29 12/14/30
f 7/8/31 9/15/32 13/16/33
f 13/16/34 9/15/35 14/17/36
f 9/15/37 8/9/38 10/18/39
f 10/18/40 8/9/41 11/13/42
f 10/18/43 12/14/44 17/19/45
f 17/19/46 12/14/47 18/20/48
f 13/16/49 15/21/50 19/4/51
f 19/4/52 15/21/53 20/22/54
f 15/23/55 14/24/56 16/25/57
f 16/25/58 14/24/59 17/19/60
f 16/25/61 18/20/62 23/26/63
f 23/26/64 18/20/65 24/11/66
f 21/27/67 20/28/68 22/12/69
f 22/12/70 20/28/71 23/26/72
f 2/29/73 5/30/74 8/31/75
f 8/31/76 5/30/77 11/32/78
f 9/33/79 10/34/80 14/24/81
f 14/24/82 10/34/83 17/19/84
f 15/35/85 16/36/86 20/37/87
f 20/37/88 16/36/89 23/38/90
f 21/27/91 22/12/92 1/1/93
f 1/1/94 22/12/95 6/7/96
f 4/39/97 24/40/98 12/41/99
f 12/41/100 24/40/101 18/42/102
f 19/43/103 3/44/104 13/45/105
f 13/45/106 3/44/107 7/46/108
f 1/1/109 2/5/110 3/2/111
f 4/10/112 5/6/113 6/7/114
f 7/8/115 8/9/116 9/15/117
f 10/18/118 11/13/119 12/14/120
f 13/16/121 14/17/122 15/21/123
f 16/25/124 17/19/125 18/20/126
f 19/4/127 20/22/128 21/3/129
f 22/12/130 23/26/131 24/11/132
