# This file uses centimeters as units for non-parametric coordinates.

mtllib Rampa.mtl
g default
v -0.500000 -0.239655 1.008346
v 0.500000 -0.239655 1.008346
v -0.499999 0.010476 1.008346
v -0.499999 0.010476 -1.008347
v -0.499999 -0.239655 -1.008347
v 0.500001 -0.239655 -1.008347
vt 0.094856 0.998591
vt 0.094856 -1.001193
vt 0.570147 -1.001193
vt 0.570146 0.998591
vt -0.914235 -1.001193
vt 0.077381 -1.001193
vt 0.077380 0.998591
vt -0.914235 0.998591
vt 0.588404 0.998591
vt 0.588404 -1.001193
vt 1.580019 -1.001193
vt 1.580019 0.998591
vt 1.352090 2.001193
vt 1.827381 1.009578
vt 1.827381 2.001193
vt 0.859912 2.001193
vt 0.859911 1.009578
vt 1.335203 2.001192
vn -0.000000 -1.000000 0.000000
vn -0.000000 -1.000000 0.000000
vn -0.000000 -1.000000 0.000000
vn -0.000000 -1.000000 0.000000
vn -1.000000 0.000001 -0.000000
vn -1.000000 0.000001 -0.000000
vn -1.000000 0.000001 -0.000000
vn -1.000000 0.000001 -0.000000
vn 0.000000 0.000000 -1.000000
vn 0.000000 0.000000 -1.000000
vn 0.000000 0.000000 -1.000000
vn 0.000000 0.000000 1.000000
vn 0.000000 0.000000 1.000000
vn 0.000000 0.000000 1.000000
vn 0.242656 0.970113 -0.000000
vn 0.242656 0.970113 -0.000000
vn 0.242656 0.970113 -0.000000
vn 0.242656 0.970113 -0.000000
s off
g pCube1
usemtl lambert2SG
f 5/5/1 6/6/2 2/7/3 1/8/4
f 5/1/5 1/2/6 3/3/7 4/4/8
f 4/13/9 6/14/10 5/15/11
f 1/16/12 2/17/13 3/18/14
f 4/9/15 3/10/16 2/11/17 6/12/18
