# This file uses centimeters as units for non-parametric coordinates.

mtllib Ventana.mtl
g default
v -0.434619 -0.000209 -0.000001
v -0.091453 1.196313 -0.000001
v 0.002135 -0.000017 -0.000001
v -0.000698 1.204571 -0.000001
v -0.138217 1.175971 -0.000001
v -0.179095 1.147817 -0.000001
v -0.242362 1.105663 -0.000001
v -0.289888 1.055269 -0.000001
v -0.354758 0.991109 -0.000001
v -0.419061 0.845530 -0.000001
v 0.434616 -0.000209 -0.000001
v 0.091450 1.196313 -0.000001
v -0.002138 -0.000017 -0.000001
v 0.000695 1.204571 -0.000001
v 0.138214 1.175971 -0.000001
v 0.179092 1.147817 -0.000001
v 0.242359 1.105663 -0.000001
v 0.289885 1.055269 -0.000001
v 0.354754 0.991109 -0.000001
v 0.419057 0.845530 -0.000001
vt 0.993513 1.000000
vt 0.785720 0.995691
vt 1.000000 0.000164
vt 0.584638 0.975537
vt 0.393351 0.951459
vt 0.235592 0.915405
vt 0.119403 0.872305
vt 0.043573 0.817428
vt 0.020622 0.745659
vt 0.000000 0.000000
vt 0.993513 1.000000
vt 0.785720 0.995691
vt 1.000000 0.000164
vt 0.584638 0.975537
vt 0.393351 0.951459
vt 0.235592 0.915405
vt 0.119403 0.872305
vt 0.043573 0.817428
vt 0.020622 0.745659
vt 0.000000 0.000000
vn -0.000000 0.000000 1.000000
vn -0.000000 0.000000 1.000000
vn -0.000000 0.000000 1.000000
vn -0.000000 0.000000 1.000000
vn -0.000000 0.000000 1.000000
vn -0.000000 0.000000 1.000000
vn -0.000000 0.000000 1.000000
vn -0.000000 0.000000 1.000000
vn -0.000000 0.000000 1.000000
vn -0.000000 0.000000 1.000000
vn -0.000000 0.000000 1.000000
vn -0.000000 0.000000 1.000000
vn -0.000000 0.000000 1.000000
vn -0.000000 0.000000 1.000000
vn -0.000000 0.000000 1.000000
vn -0.000000 0.000000 1.000000
vn -0.000000 0.000000 1.000000
vn -0.000000 0.000000 1.000000
vn -0.000000 0.000000 1.000000
vn -0.000000 0.000000 1.000000
vn -0.000000 0.000000 1.000000
vn -0.000000 0.000000 1.000000
vn -0.000000 0.000000 1.000000
vn -0.000000 0.000000 1.000000
vn -0.000000 0.000000 1.000000
vn -0.000000 0.000000 1.000000
vn -0.000000 0.000000 1.000000
vn -0.000000 0.000000 1.000000
vn -0.000000 0.000000 1.000000
vn -0.000000 0.000000 1.000000
vn -0.000000 0.000000 1.000000
vn -0.000000 0.000000 1.000000
vn -0.000000 0.000000 1.000000
vn -0.000000 0.000000 1.000000
vn -0.000000 0.000000 1.000000
vn -0.000000 0.000000 1.000000
vn -0.000000 0.000000 1.000000
vn -0.000000 0.000000 1.000000
vn -0.000000 0.000000 1.000000
vn -0.000000 0.000000 1.000000
vn -0.000000 0.000000 1.000000
vn -0.000000 0.000000 1.000000
vn -0.000000 0.000000 1.000000
vn -0.000000 0.000000 1.000000
vn -0.000000 0.000000 1.000000
vn -0.000000 0.000000 1.000000
vn -0.000000 0.000000 1.000000
vn -0.000000 0.000000 1.000000
s off
g polySurface6771
usemtl Ventana1:lambert2SG
f 4/1/1 2/2/2 3/3/3
f 2/2/4 5/4/5 3/3/6
f 5/4/7 6/5/8 3/3/9
f 6/5/10 7/6/11 3/3/12
f 7/6/13 8/7/14 3/3/15
f 8/7/16 9/8/17 3/3/18
f 9/8/19 10/9/20 3/3/21
f 1/10/22 3/3/23 10/9/24
f 14/11/25 13/13/26 12/12/27
f 12/12/28 13/13/29 15/14/30
f 15/14/31 13/13/32 16/15/33
f 16/15/34 13/13/35 17/16/36
f 17/16/37 13/13/38 18/17/39
f 18/17/40 13/13/41 19/18/42
f 19/18/43 13/13/44 20/19/45
f 11/20/46 20/19/47 13/13/48
