# Blender 3.5.1
# www.blender.org
mtllib grim_antebrazo.mtl
o antebrazo
v 0.018256 -0.004527 0.016424
v 0.021167 -0.026063 0.011964
v -0.018977 0.019575 -0.001977
v -0.000337 0.015407 0.011050
v 0.005946 -0.021278 -0.016412
v -0.014285 0.000643 -0.019811
v -0.038496 -0.004785 0.009079
v -0.014789 0.019866 0.006945
v -0.062537 0.001028 0.096508
v -0.054915 -0.049787 0.127478
v -0.037120 -0.034537 0.024052
v -0.017325 -0.048894 0.040178
v -0.048056 -0.039178 0.127503
v -0.023604 -0.063208 0.144427
v -0.023347 -0.080553 0.149171
v 0.003717 -0.047337 0.133000
v 0.000554 -0.027456 0.027010
v 0.012408 -0.000840 0.106491
v 0.004338 -0.001003 0.111867
v -0.002668 -0.037282 0.131787
v 0.003135 -0.000509 0.016123
v -0.020532 0.035933 0.081551
v -0.054191 0.000459 0.104075
v -0.021403 0.027757 0.091621
v -0.020406 -0.011284 0.035728
v -0.024544 0.004437 -0.003838
v -0.026294 0.009033 0.005394
v -0.050537 -0.018373 0.072642
v -0.045322 -0.032241 0.064797
v -0.013525 -0.033554 0.012548
v 0.001055 -0.033480 0.013793
v -0.039522 -0.052510 0.134756
v -0.036500 -0.063180 0.138916
v -0.013385 -0.058375 0.099999
v -0.002890 -0.041861 0.076561
v 0.006299 -0.022168 0.120045
v 0.002350 -0.024228 0.123328
v -0.011984 0.020703 0.041109
v -0.000899 0.010238 0.065001
v 0.006756 -0.012431 0.020533
v 0.007276 0.003948 0.014351
v -0.041249 0.016712 0.091746
v -0.035620 0.018158 0.094097
v -0.014851 -0.058192 0.140758
v -0.010174 -0.059206 0.139845
v 0.004928 -0.026497 0.084191
v 0.006392 -0.008145 0.057893
v 0.001101 -0.035169 0.026655
v 0.012788 -0.019297 0.018868
v -0.037533 -0.053200 0.091419
v -0.025854 -0.058817 0.084157
v -0.017379 -0.020019 -0.001214
v -0.028956 -0.013344 0.003608
v -0.010447 0.017990 0.005558
v -0.004262 0.011091 0.011457
v -0.041575 0.005107 0.045591
v -0.032551 0.018022 0.058241
v -0.056553 -0.024172 0.113559
v -0.053856 -0.017172 0.112400
v -0.006150 0.017502 0.095225
v -0.005008 0.012028 0.101209
v -0.031525 0.004063 0.074209
v -0.012706 0.003370 0.076539
v -0.038803 -0.017167 0.084676
v -0.007953 -0.016776 0.087306
v -0.028770 -0.034670 0.093596
v -0.016663 -0.033953 0.094249
vn -0.6716 0.7252 -0.1517
vn -0.8845 0.1320 -0.4476
vn -0.6758 0.6754 0.2952
vn -0.9180 0.3602 0.1659
vn -0.9293 -0.2836 -0.2367
vn -0.8652 -0.2746 0.4196
vn -0.9722 -0.1395 -0.1878
vn -0.6941 -0.5819 -0.4238
vn -0.1896 -0.7881 -0.5856
vn -0.2069 -0.8430 -0.4965
vn 0.1560 -0.9489 -0.2743
vn 0.3032 -0.8996 -0.3143
vn -0.0223 0.6008 0.7991
vn -0.3792 0.2430 0.8929
vn -0.0805 0.4386 0.8951
vn -0.3812 0.2386 0.8932
vn 0.0152 -0.7510 0.6602
vn 0.7280 -0.6681 -0.1538
vn 0.8195 -0.1998 0.5371
vn 0.7120 -0.6859 -0.1499
vn 0.8750 0.3611 0.3224
vn -0.2048 0.5160 0.8317
vn 0.5145 0.3501 0.7828
vn 0.4268 0.3705 0.8250
vn -0.0455 0.9990 -0.0031
vn 0.0372 0.9919 0.1217
vn 0.7658 0.6383 -0.0785
vn 0.5641 0.4720 0.6775
vn 0.7679 0.6360 -0.0765
vn 0.8563 -0.1606 0.4908
vn 0.2693 0.2100 0.9399
vn 0.0790 0.3669 0.9269
vn 0.0651 0.3159 0.9466
vn 0.0484 0.4956 0.8672
vn -0.4257 0.7371 0.5248
vn -0.3953 0.7295 0.5582
vn 0.2433 0.2592 0.9347
vn -0.1711 0.5782 0.7978
vn 0.2363 0.2629 0.9354
vn 0.9725 -0.2221 -0.0707
vn 0.9856 -0.1354 -0.1016
vn 0.6385 -0.6829 0.3550
vn 0.5894 0.0047 0.8079
vn 0.5912 -0.0862 0.8019
vn -0.6008 -0.7694 -0.2168
vn -0.4072 -0.8708 -0.2754
vn -0.4774 -0.5472 -0.6875
vn -0.6784 -0.2136 -0.7030
vn -0.6833 -0.3532 -0.6390
vn 0.3381 0.9220 -0.1888
vn -0.0941 0.3875 0.9170
vn -0.1885 0.2607 0.9468
vn -0.7101 0.6622 -0.2393
vn -0.6677 0.7155 -0.2055
vn -0.5672 0.3649 0.7383
vn -0.6232 0.3242 0.7117
vn -0.0880 0.4067 0.9093
vn 0.3372 0.7163 0.6108
vn 0.3673 0.7324 0.5734
vn -0.0631 0.0630 0.9960
vn 0.6680 -0.6044 0.4341
vn -0.8069 -0.4909 0.3285
vn 0.8623 0.3499 0.3661
vn -0.9140 0.3162 0.2543
vn 0.4968 0.7773 0.3859
vn -0.6616 0.6840 0.3073
vn -0.7502 0.3452 -0.5639
vt 0.898916 0.338339
vt 0.299729 0.458398
vt 0.218153 0.097044
vt 0.358277 0.481876
vt 0.547631 0.519614
vt 0.467030 0.548196
vt 0.467030 0.481876
vt 0.938225 0.250422
vt 0.156693 0.016894
vt 0.594766 0.457870
vt 0.055440 0.000000
vt 0.977476 0.498667
vt 0.449074 0.919659
vt 0.000000 0.121453
vt 0.651254 0.571675
vt 0.815887 0.498667
vt 0.449074 0.526595
vt 0.981709 0.216670
vt 0.533249 0.548309
vt 0.876828 0.779844
vt 0.651254 0.886941
vt 0.702752 0.106974
vt 0.977476 0.946197
vt 0.449074 0.481876
vt 0.062261 0.564631
vt 0.702752 0.313606
vt 0.395589 0.849926
vt 0.061856 0.202790
vt 0.470299 0.333619
vt 0.151294 0.251219
vt 0.671365 0.283116
vt 0.295591 0.570045
vt 0.599423 0.395651
vt 0.395589 0.481876
vt 0.876828 0.896075
vt 0.470299 0.000000
vt 0.609746 0.457870
vt 0.218153 0.638566
vt 0.898916 0.000000
vt 0.498938 0.346264
vt 0.340298 0.089284
vt 0.981709 0.405028
vt 0.388108 0.400243
vt 0.218153 0.174475
vt 0.847010 0.151580
vt 0.470300 0.170726
vt 0.821136 0.133408
vt 1.000000 0.216670
vt 0.702752 0.713066
vt 0.513585 0.308410
vt 0.783651 0.813009
vt 0.898916 0.441847
vt 0.317950 0.431721
vt 0.944208 0.309981
vt 0.539280 0.000000
vt 0.470300 0.807978
vt 0.702752 0.281008
vt 0.671718 0.122696
vt 0.000000 0.876578
vt 0.218153 0.702248
vt 0.544387 0.038099
vt 0.709009 0.237018
vt 0.156110 0.876578
vt 0.898916 0.102038
vt 0.129485 0.638566
vt 1.000000 0.000000
vt 0.395589 0.905002
vt 0.876828 0.498667
vt 0.600989 0.518197
vt 0.588721 0.550518
vt 0.950225 0.725581
vt 0.435119 0.709892
vt 0.127894 0.142058
vt 0.171780 0.131505
vt 0.649450 0.340079
vt 0.645546 0.381497
vt 0.434311 0.161527
vt 0.389501 0.247327
vt 0.863942 0.077394
vt 0.490021 0.258778
vt 0.792361 0.390232
vt 0.823606 0.299539
vt 0.945167 0.356388
vt 0.925732 0.298085
vt 0.620290 0.062648
vt 0.599082 0.064015
vt 0.567284 0.380041
vt 0.552485 0.384966
vt 0.324579 0.234571
vt 0.294674 0.312680
vt 0.408892 0.404012
vt 0.349228 0.444661
vt 0.111456 0.437857
vt 0.154820 0.410133
vt 0.088327 0.086330
vt 0.042737 0.104995
vt 0.462319 0.516088
vt 0.956151 0.260413
vt 0.615728 0.698619
vt 0.555419 0.735944
vt 0.694565 0.212744
vt 0.680555 0.190162
vt 0.768352 0.212190
vt 0.777808 0.185314
vt 0.095905 0.785443
vt 0.970652 0.099584
vt 0.313776 0.739269
vt 0.799322 0.657922
vt 0.368892 0.685695
vt 0.852065 0.702826
s 1
usemtl Material.002
f 3/5/1 7/15/2 27/70/3
f 9/20/4 7/12/2 28/71/5
f 10/24/6 7/13/2 29/72/7
f 11/28/8 5/9/9 30/73/10
f 12/30/11 5/9/9 31/74/12
f 13/31/13 10/26/6 32/75/14
f 14/33/15 10/26/6 33/76/16
f 15/36/17 12/29/11 34/77/18
f 16/41/19 12/29/11 35/78/20
f 18/45/21 19/47/22 36/79/23
f 16/40/19 19/46/22 37/80/24
f 8/16/25 22/57/26 38/81/27
f 21/52/28 22/57/26 39/82/29
f 17/42/30 1/1/31 40/83/32
f 21/54/28 1/1/31 41/84/33
f 9/22/4 23/58/34 42/85/35
f 22/55/26 23/58/34 43/86/36
f 14/33/15 15/37/17 44/87/37
f 20/50/38 15/37/17 45/88/39
f 16/41/19 17/43/30 46/89/40
f 18/44/21 17/43/30 47/90/41
f 12/29/11 2/4/42 48/91/43
f 17/43/30 2/4/42 49/92/44
f 10/25/6 11/28/8 50/93/45
f 15/38/17 11/28/8 51/94/46
f 5/9/9 11/28/8 52/95/47
f 6/11/48 11/28/8 53/96/49
f 3/6/1 8/17/25 54/97/50
f 4/8/51 8/18/25 55/98/52
f 7/15/2 9/21/4 56/99/53
f 8/19/25 9/21/4 57/100/54
f 10/26/6 13/31/13 58/101/55
f 9/22/4 13/31/13 59/102/56
f 22/57/26 24/62/57 60/103/58
f 18/45/21 24/62/57 61/104/59
f 25/65/60 24/63/57 62/105/61
f 19/48/22 24/64/57 63/106/62
f 25/67/60 23/60/34 64/107/63
f 20/51/38 19/49/22 65/108/64
f 25/67/60 13/32/13 66/109/65
f 14/35/15 20/51/38 67/110/66
f 6/10/48 7/15/2 26/69/67
f 7/15/2 3/5/1 26/69/67
f 3/5/1 6/10/48 26/69/67
f 7/15/2 8/19/25 27/70/3
f 8/19/25 3/5/1 27/70/3
f 7/12/2 10/23/6 28/71/5
f 10/23/6 9/20/4 28/71/5
f 7/13/2 11/27/8 29/72/7
f 11/27/8 10/24/6 29/72/7
f 5/9/9 12/30/11 30/73/10
f 12/30/11 11/28/8 30/73/10
f 5/9/9 2/3/42 31/74/12
f 2/3/42 12/30/11 31/74/12
f 10/26/6 14/33/15 32/75/14
f 14/33/15 13/31/13 32/75/14
f 10/26/6 15/37/17 33/76/16
f 15/37/17 14/33/15 33/76/16
f 12/29/11 16/41/19 34/77/18
f 16/41/19 15/36/17 34/77/18
f 12/29/11 17/43/30 35/78/20
f 17/43/30 16/41/19 35/78/20
f 19/47/22 16/39/19 36/79/23
f 16/39/19 18/45/21 36/79/23
f 19/46/22 20/50/38 37/80/24
f 20/50/38 16/40/19 37/80/24
f 22/57/26 21/52/28 38/81/27
f 21/52/28 8/16/25 38/81/27
f 22/57/26 18/45/21 39/82/29
f 18/45/21 21/52/28 39/82/29
f 1/1/31 21/54/28 40/83/32
f 21/54/28 17/42/30 40/83/32
f 1/1/31 4/8/51 41/84/33
f 4/8/51 21/54/28 41/84/33
f 23/58/34 22/55/26 42/85/35
f 22/55/26 9/22/4 42/85/35
f 23/58/34 24/61/57 43/86/36
f 24/61/57 22/55/26 43/86/36
f 15/37/17 20/50/38 44/87/37
f 20/50/38 14/33/15 44/87/37
f 15/37/17 16/40/19 45/88/39
f 16/40/19 20/50/38 45/88/39
f 17/43/30 18/44/21 46/89/40
f 18/44/21 16/41/19 46/89/40
f 17/43/30 21/53/28 47/90/41
f 21/53/28 18/44/21 47/90/41
f 2/4/42 17/43/30 48/91/43
f 17/43/30 12/29/11 48/91/43
f 2/4/42 1/2/31 49/92/44
f 1/2/31 17/43/30 49/92/44
f 11/28/8 15/38/17 50/93/45
f 15/38/17 10/25/6 50/93/45
f 11/28/8 12/30/11 51/94/46
f 12/30/11 15/38/17 51/94/46
f 11/28/8 6/11/48 52/95/47
f 6/11/48 5/9/9 52/95/47
f 11/28/8 7/14/2 53/96/49
f 7/14/2 6/11/48 53/96/49
f 8/17/25 4/7/51 54/97/50
f 4/7/51 3/6/1 54/97/50
f 8/18/25 21/54/28 55/98/52
f 21/54/28 4/8/51 55/98/52
f 9/21/4 8/19/25 56/99/53
f 8/19/25 7/15/2 56/99/53
f 9/21/4 22/56/26 57/100/54
f 22/56/26 8/19/25 57/100/54
f 13/31/13 9/22/4 58/101/55
f 9/22/4 10/26/6 58/101/55
f 13/31/13 23/58/34 59/102/56
f 23/58/34 9/22/4 59/102/56
f 24/62/57 18/45/21 60/103/58
f 18/45/21 22/57/26 60/103/58
f 24/62/57 19/47/22 61/104/59
f 19/47/22 18/45/21 61/104/59
f 24/63/57 23/59/34 62/105/61
f 23/59/34 25/65/60 62/105/61
f 24/64/57 25/66/60 63/106/62
f 25/66/60 19/48/22 63/106/62
f 23/60/34 13/32/13 64/107/63
f 13/32/13 25/67/60 64/107/63
f 19/49/22 25/68/60 65/108/64
f 25/68/60 20/51/38 65/108/64
f 13/32/13 14/34/15 66/109/65
f 14/34/15 25/67/60 66/109/65
f 20/51/38 25/68/60 67/110/66
f 25/68/60 14/35/15 67/110/66
